<?xml version="1.0" standalone="no"?>
<!DOCTYPE svg PUBLIC "-//W3C//DTD SVG 1.1//EN" "http://www.w3.org/Graphics/SVG/1.1/DTD/svg11.dtd" >
<svg xmlns="http://www.w3.org/2000/svg">
<defs>
<font id="WCWunderbachBta-DemiBold" horiz-adv-x="1296" >
  <font-face 
    font-family="WC Wunderbach Bta"
    font-weight="600"
    font-stretch="normal"
    units-per-em="2048"
    panose-1="2 0 5 4 0 0 0 2 0 3"
    ascent="1638"
    descent="-410"
    x-height="1120"
    cap-height="1681"
    bbox="-287 -565 1909 2265"
    underline-thickness="40"
    underline-position="-231"
    unicode-range="U+0020-U+00FF"
  />
<missing-glyph horiz-adv-x="748" 
d="M68 0v1365h544v-1365h-544zM136 68h408v1229h-408v-1229z" />
    <glyph glyph-name="AE" unicode="AE" horiz-adv-x="2013" 
d="M1378 297h531v-301h-531v301zM1835 698h-512l-106 299h618v-299zM1290 1673h531v-299h-531v299zM905 1413l320 -860v-553h-297v487l-183 492zM115 575l661 3v-306h-368v-272h-302v553zM823 1630l-334 -909h-321l358 956h250z" />
    <glyph glyph-name="ae" unicode="ae" horiz-adv-x="1734" 
d="M1110 0v301h551q0 -125 -86 -213t-211 -88h-254zM807 1083q72 41 149 41v-1124h-301v1124q76 0 152 -41zM1364 1124q123 0 210 -88t87 -211v-118q0 -125 -86 -212t-211 -87h-254v301h250v114h-250v301h254zM70 299l-2 119q0 125 88 212t213 87h131v-301h-129v-115h129
v-301h-131q-123 0 -209 87t-90 212zM266 823v301h234v-301h-234z" />
    <glyph glyph-name=".notdef" horiz-adv-x="748" 
d="M68 0v1365h544v-1365h-544zM136 68h408v1229h-408v-1229z" />
    <glyph glyph-name=".null" horiz-adv-x="0" 
 />
    <glyph glyph-name="nonmarkingreturn" horiz-adv-x="682" 
 />
    <glyph glyph-name="space" unicode=" " horiz-adv-x="520" 
 />
    <glyph glyph-name="exclam" unicode="!" horiz-adv-x="696" 
d="M184 1686h301v-994l-26 -205h-250l-25 205v994zM184 0v270h301v-270h-301z" />
    <glyph glyph-name="quotedbl" unicode="&#x22;" horiz-adv-x="808" 
d="M41 1686h301v-293l-27 -205h-249l-25 205v293zM426 1686h301v-293l-27 -205h-249l-25 205v293z" />
    <glyph glyph-name="numbersign" unicode="#" horiz-adv-x="675" 
d="M625 958h-80v-239h80v-152h-80v-151h-152v151h-18v152h18v239h-18v150h20v147h150v-147h80v-150zM279 719h20v-152h-20v-151h-150v151h-82v152h82v239h-82v150h82v147h150v-147h20v-150h-20v-239z" />
    <glyph glyph-name="dollar" unicode="$" horiz-adv-x="1198" 
d="M684 -115v416h154v395h-154v301h156q125 0 212 -86t87 -211v-399q0 -125 -87 -213t-212 -88h-4v-115h-152zM383 430v-129h152v-301h-152q-125 0 -213 88t-88 213v129h301zM840 1681q125 0 212 -87t87 -212v-120h-301v116h-154v303h156zM535 1802v-424h-152v-381h152v-301
h-154q-123 0 -211 88t-88 213v385q0 125 88 212t213 87v121h152z" />
    <glyph glyph-name="percent" unicode="%" horiz-adv-x="1314" 
d="M53 1430q0 94 55.5 165.5t141.5 94.5v-516q-86 23 -141.5 93.5t-55.5 162.5zM403 1688q82 -27 134.5 -97.5t52.5 -160.5q0 -88 -52.5 -158t-134.5 -96v512zM723 256q0 94 55.5 166t141.5 94v-516q-86 23 -141.5 93.5t-55.5 162.5zM1073 514q82 -27 134.5 -97.5
t52.5 -160.5q0 -88 -52.5 -157.5t-134.5 -96.5v512zM182 0l774 1690h189l-776 -1690h-187z" />
    <glyph glyph-name="ampersand" unicode="&#x26;" horiz-adv-x="1325" 
d="M772 1673v-301h-260v301h260zM82 1229v145q0 119 82 205t198 94v-1675q-121 4 -203.5 91t-82.5 208v408q0 125 96 208q-57 53 -73.5 124t-16.5 192zM1036 1184v-201h193v-301h-717v301h223v201h301zM737 532h301v-235q0 -125 -88 -212t-211 -87h-227v301h225v233z" />
    <glyph glyph-name="quotesingle" unicode="'" horiz-adv-x="413" 
d="M117 1184l153 491h301l-153 -491h-301z" />
    <glyph glyph-name="parenleft" unicode="(" horiz-adv-x="876" 
d="M260 0l6 1579q0 123 87 211t212 88h189v-301h-187q0 -1423 -6 -1577h184v-301h-184q-125 0 -213 88t-88 213z" />
    <glyph glyph-name="parenright" unicode=")" horiz-adv-x="931" 
d="M641 1577l-6 -1577q0 -123 -87 -211t-212 -88h-189v301h187q0 1421 6 1575h-184v301h184q125 0 213 -88t88 -213z" />
    <glyph glyph-name="asterisk" unicode="*" horiz-adv-x="755" 
d="M635 1559l47 -144l-178 -59l108 -152l-123 -88l-108 152l-113 -152l-123 88l113 152l-178 61l45 142l178 -58v187h152v-187z" />
    <glyph glyph-name="plus" unicode="+" horiz-adv-x="1044" 
d="M993 1004v-302h-329v-374h-302v374h-317v302h317v370h302v-370h329z" />
    <glyph glyph-name="comma" unicode="," horiz-adv-x="677" 
d="M57 -162l154 492h301l-154 -492h-301z" />
    <glyph glyph-name="hyphen" unicode="-" horiz-adv-x="841" 
d="M795 1001v-301h-754v301h754z" />
    <glyph glyph-name="period" unicode="." horiz-adv-x="575" 
d="M115 319h299v-317h-299v317z" />
    <glyph glyph-name="slash" unicode="/" horiz-adv-x="870" 
d="M-29 -197l901 1983h332l-903 -1983h-330z" />
    <glyph glyph-name="zero" unicode="0" horiz-adv-x="1351" 
d="M903 1677q125 0 210 -87t85 -212v-1077q0 -125 -88 -212t-211 -87h-156v301h158v1073h-158v301h160zM442 303h150v-301h-152q-125 0 -210 87t-85 212v1077q0 125 88.5 212t210.5 87h148v-301h-150v-1073z" />
    <glyph glyph-name="one" unicode="1" horiz-adv-x="835" 
d="M655 301h156v-301h-621v301h164v1083h-168v302h469v-1385z" />
    <glyph glyph-name="two" unicode="2" horiz-adv-x="1202" 
d="M446 1675h109v-301h-106v-256h-306v258q0 123 89 211t214 88zM145 0v328l410 438v-442l-23 -23h535v-301h-922zM1118 1374v-448l-413 -441v443l112 121v325h-112v301h114q123 0 210 -88t89 -213z" />
    <glyph glyph-name="three" unicode="3" horiz-adv-x="1267" 
d="M444 301h109v-301h-113q-125 0 -211 87t-86 212v258h301v-256zM440 1681h113v-301h-109v-256h-301v258q0 125 86 212t211 87zM1114 1382v-430l-123 -98l123 -96v-459q0 -125 -88 -212t-213 -87h-108v301h108v311l-115 93h-108v301h108l115 90v284h-108v301h108
q125 0 213 -87t88 -212z" />
    <glyph glyph-name="four" unicode="4" horiz-adv-x="1308" 
d="M1040 1683l-548 -874h-353l545 874h356zM102 358v301h594v-301h-594zM848 999h301v-999h-301v999z" />
    <glyph glyph-name="five" unicode="5" horiz-adv-x="1267" 
d="M1096 1677v-301h-377v301h377zM444 428v-129h123v-301h-125q-123 0 -211 88t-88 211v131h301zM143 1378q0 125 88 212t211 87h125v-301h-123v-379h123v-301h-424v682zM719 995h143q119 0 204 -88t85 -209v-401q0 -123 -88 -211t-211 -88h-133v301h131v397h-131v299z" />
    <glyph glyph-name="six" unicode="6" horiz-adv-x="1267" 
d="M1081 1681v-301h-356v301h356zM858 999q119 -2 204 -89t85 -208v-401q0 -123 -87 -211t-212 -88h-123v301h121v397h-121v299h133zM141 1382q0 125 87 212t212 87h135v-301h-133v-379h133v-301h-133v-397h133v-301h-135q-125 0 -212 88t-87 211v1081z" />
    <glyph glyph-name="seven" unicode="7" horiz-adv-x="1409" 
d="M879 1225h338l-426 -686v-541h-302v614l17 31zM141 1677h1155v-293l-4 -8h-1151v301z" />
    <glyph glyph-name="eight" unicode="8" horiz-adv-x="1267" 
d="M449 1067l112 -84v-307l-112 -86v-289h112v-301h-115q-123 0 -212 88t-89 211v436l119 94l-117 95v458q0 125 88.5 212t210.5 87h115v-301h-112v-313zM709 983l112 84v313h-112v301h114q123 0 212 -88t89 -211v-458l-118 -95l116 -94v-436q0 -123 -88 -211t-211 -88h-114
v301h112v289l-112 86v307z" />
    <glyph glyph-name="nine" unicode="9" horiz-adv-x="1267" 
d="M432 983h125v-301h-127q-125 0 -212 87t-87 212v399q0 123 87 211t212 88h127v-301h-125v-395zM1137 1380v-1081q0 -125 -87 -212t-212 -87h-131v301h129v381h-129v301h129v395h-129v301h131q125 0 212 -88t87 -211zM242 301h315v-301h-315v301z" />
    <glyph glyph-name="colon" unicode=":" horiz-adv-x="655" 
d="M158 672l2 317h299v-317h-301zM160 0v317h299v-317h-299z" />
    <glyph glyph-name="semicolon" unicode=";" horiz-adv-x="722" 
d="M209 600l2 318h299v-318h-301zM57 -162l154 492h301l-154 -492h-301z" />
    <glyph glyph-name="less" unicode="&#x3c;" horiz-adv-x="1290" 
d="M207 672v293l962 657v-365l-643 -440l643 -438v-365z" />
    <glyph glyph-name="equal" unicode="=" horiz-adv-x="1157" 
d="M102 823v301h955v-301h-955zM102 313v301h955v-301h-955z" />
    <glyph glyph-name="greater" unicode="&#x3e;" horiz-adv-x="1210" 
d="M1090 967v-293l-963 -658v365l643 440l-643 439v364z" />
    <glyph glyph-name="question" unicode="?" horiz-adv-x="1392" 
d="M442 1378v-118h-301v120q0 123 87 211t212 88h135v-301h-133zM410 0v270h301v-270h-301zM1188 1380v-389q0 -123 -87 -211t-212 -88h-178v-200h-301v202q0 123 88 212t211 89h178v383h-162v301h164q123 0 211 -88t88 -211z" />
    <glyph glyph-name="at" unicode="@" horiz-adv-x="1779" 
d="M823 1028v-301h-270v61q0 100 70.5 170t169.5 70h30zM1227 494h-254v534h14q100 0 170 -69.5t70 -170.5v-294zM553 406v172h270v-469q-115 10 -192.5 96t-77.5 201zM471 25h352v-301h-354q-123 0 -209 86t-86 206v1086q0 123 88 211t211 88h350v-301h-352v-1075zM1311 25
v36h301v-38q0 -123 -87 -211t-212 -88h-340v301h338zM1317 1100h-344v301h346q123 0 211 -88t88 -211v-696q0 -123 -88 -211.5t-211 -88.5h-346v302h344v692z" />
    <glyph glyph-name="A" unicode="A" horiz-adv-x="1320" 
d="M905 1413l320 -860v-553h-297v487l-183 492zM115 575l661 3v-306h-368v-272h-302v553zM823 1630l-334 -909h-321l358 956h250z" />
    <glyph glyph-name="B" unicode="B" horiz-adv-x="1343" 
d="M528 1679l7 -1679h-484v301h172v1073h-170v305h475zM1257 1376l3 -229q0 -201 -107 -316q92 -106 92 -319q0 -31 -2 -101.5t-2 -111.5q0 -123 -87 -211t-212 -88h-283v301h281v385h-281v303h295q0 45 1 212t1 173h-282v301h284q123 0 210 -88t89 -211z" />
    <glyph glyph-name="C" unicode="C" horiz-adv-x="1153" 
d="M803 -2h-148v301h146v180h301v-182q0 -123 -87 -211t-212 -88zM346 299h158v-301h-160q-123 0 -208 88t-85 213v1077q0 123 87 211t212 88h154v-301h-152q-6 -117 -6 -1075zM1106 1202h-301v172h-150v301h154q123 0 210 -88t87 -213v-172z" />
    <glyph glyph-name="D" unicode="D" horiz-adv-x="1447" 
d="M889 1675q203 -2 347 -147.5t144 -349.5v-678q0 -203 -144 -352.5t-347 -149.5h-201v301h201q78 0 134 59.5t56 135.5v684q0 80 -56 136t-134 56h-201v305h201zM535 1677v-1677h-457v299h155v1075h-155v303h457z" />
    <glyph glyph-name="E" unicode="E" horiz-adv-x="1314" 
d="M78 1677h459v-1677h-463v301h182v1075h-178v301zM688 301h531v-301h-531v301zM1219 1376h-531v301h531v-301zM1145 702h-457v302h457v-302z" />
    <glyph glyph-name="F" unicode="F" 
d="M72 1677h460v-1677h-280v1376h-180v301zM1212 1376h-530v301h530v-301zM1139 702h-457v302h457v-302z" />
    <glyph glyph-name="G" unicode="G" horiz-adv-x="1208" 
d="M821 299v272h301v-274q0 -123 -88 -211t-211 -88h-145v301h143zM371 1374l-4 -1075h161v-301h-163q-123 0 -209 88t-86 213v1077q0 123 88 211t211 88h159v-301h-157zM1122 995v-299h-522v299h522zM825 1202v172h-147v301h149q123 0 209 -88t86 -213v-172h-297z" />
    <glyph glyph-name="H" unicode="H" horiz-adv-x="1359" 
d="M475 1679v-1679h-299v1378h-98v301h397zM934 1681h299v-1681h-299v694h-305v301h305v686z" />
    <glyph glyph-name="I" unicode="I" horiz-adv-x="919" 
d="M793 1380h-185v-1079h185v-301h-662v301h176v1079h-176v301h662v-301z" />
    <glyph glyph-name="J" unicode="J" horiz-adv-x="1255" 
d="M485 1677h662v-1376q0 -125 -88 -213t-211 -88h-160v301h158v1075h-361v301zM391 301h148v-301h-150q-125 0 -213 88t-88 213v295h303v-295z" />
    <glyph glyph-name="K" unicode="K" horiz-adv-x="1427" 
d="M1280 1679l-215 -534h-328l219 534h324zM1051 995l338 -997h-316l-244 713h-178v284h400zM39 1389v292h461v-1681h-301v1389h-160z" />
    <glyph glyph-name="L" unicode="L" horiz-adv-x="1208" 
d="M459 1673l-2 -1673h-299v1372h-97v301h398zM608 299h549v-299h-549v299z" />
    <glyph glyph-name="M" unicode="M" horiz-adv-x="1732" 
d="M891 213l-420 827v-1040h-301v1386h-168v291h479l578 -1128zM1309 1040l-166 -323l-168 327l317 633h318v-1677h-301v1040z" />
    <glyph glyph-name="N" unicode="N" horiz-adv-x="1570" 
d="M1401 0h-299v1677h299v-1677zM551 1040v-1040h-301v1389h-168v290h485l385 -764v-665z" />
    <glyph glyph-name="O" unicode="O" horiz-adv-x="1228" 
d="M844 1675q125 0 210 -87t85 -212v-1077q0 -125 -88 -212t-211 -87h-305v301h307v1073h-307v301h309zM385 1675v-1675h-4q-125 0 -210 87t-85 212v1077q0 125 87 212t212 87z" />
    <glyph glyph-name="P" unicode="P" horiz-adv-x="1384" 
d="M92 1675h473v-1675h-301v1372h-172v303zM1061 694l2 -4h-346v297h280v385h-280v303h282q123 0 211 -89t88 -212v-407q0 -104 -67.5 -180.5t-169.5 -92.5z" />
    <glyph glyph-name="Q" unicode="Q" horiz-adv-x="1398" 
d="M414 301h186v-301h-188q-123 0 -209 88t-86 213v1077q0 123 88 211t211 88h184v-301h-186v-1075zM924 1376h-172v301h174q123 0 209 -88t86 -213v-923h-297v923zM752 0v301h575v-301h-575z" />
    <glyph glyph-name="R" unicode="R" horiz-adv-x="1357" 
d="M1065 535l217 -535h-326l-217 535h326zM33 1681l473 -2v-1679h-301v1378h-172v303zM1001 688h-344v305h281v385h-281v301h283q125 0 212 -88t87 -211v-413q0 -104 -69 -183.5t-169 -95.5z" />
    <glyph glyph-name="S" unicode="S" horiz-adv-x="1198" 
d="M375 301h151v-301h-151q-125 0 -213 88t-88 213v129h301v-129zM375 1378v-381h151v-301h-153q-123 0 -211 88t-88 213v385q0 125 88 212t211 87h153v-303h-151zM829 1378h-153v303h155q125 0 212 -87t87 -212v-120h-301v116zM831 997q125 0 212 -86t87 -211v-399
q0 -125 -87 -213t-212 -88h-155v301h153v395h-153v301h155z" />
    <glyph glyph-name="T" unicode="T" horiz-adv-x="1026" 
d="M356 0l2 1229h299v-1229h-301zM31 1679h956v-299h-956v299z" />
    <glyph glyph-name="U" unicode="U" 
d="M420 301h155v-301h-157q-125 0 -212 88t-87 211v1380h301v-1378zM874 1679h302v-1380q0 -123 -88.5 -211t-210.5 -88h-152v301h149v1378z" />
    <glyph glyph-name="V" unicode="V" horiz-adv-x="1290" 
d="M1171 1159l-292 -870l-158 475l149 444v467h301v-516zM412 1208l379 -1159l-17 -49h-276l-387 1159v516h301v-467z" />
    <glyph glyph-name="W" unicode="W" horiz-adv-x="1781" 
d="M459 1202l391 -1202h-320l-372 1155v520h301v-473zM1323 1675h301v-516l-201 -844l-180 543l80 338v479zM1038 987l318 -948l-8 -39h-304l-323 987h317z" />
    <glyph glyph-name="X" unicode="X" 
d="M115 565l188 176l221 -204l-108 -103v-436h-301v567zM1151 1120l-182 -170l-219 205l100 96v426h301v-557zM420 1251l737 -686v-567h-301v436l-737 686v557h301v-426z" />
    <glyph glyph-name="Y" unicode="Y" horiz-adv-x="1218" 
d="M401 1145l418 -436l-61 -66v-643h-301v643l-359 383v653h303v-534zM815 1679h299v-653l-192 -207l-209 219l102 107v534z" />
    <glyph glyph-name="Z" unicode="Z" horiz-adv-x="1177" 
d="M1071 1378h-969v299h969v-299zM1061 0h-653l192 301h461v-301zM999 1223l-772 -1223h-118v373l536 850h354z" />
    <glyph glyph-name="bracketleft" unicode="[" horiz-adv-x="876" 
d="M260 0l6 1579q0 123 87 211t212 88h189v-301h-187q0 -1423 -6 -1577h184v-301h-184q-125 0 -213 88t-88 213z" />
    <glyph glyph-name="backslash" unicode="\" horiz-adv-x="1247" 
d="M907 -197l-901 1983h330l903 -1983h-332z" />
    <glyph glyph-name="bracketright" unicode="]" horiz-adv-x="931" 
d="M641 1577l-6 -1577q0 -123 -87 -211t-212 -88h-189v301h193v1575h-184v301h184q125 0 213 -88t88 -213z" />
    <glyph glyph-name="asciicircum" unicode="^" horiz-adv-x="1056" 
d="M37 1225l199 272h571l199 -272h-301l-185 252l-184 -252h-299z" />
    <glyph glyph-name="underscore" unicode="_" horiz-adv-x="1167" 
d="M1124 -264v-301h-1083v301h1083z" />
    <glyph glyph-name="grave" unicode="`" horiz-adv-x="503" 
d="M152 1759l-95 287h301l95 -287h-301z" />
    <glyph glyph-name="a" unicode="a" horiz-adv-x="1026" 
d="M66 299l-3 119q0 125 88.5 212t213.5 87h131v-301h-129v-115h129v-301h-131q-125 0 -210 87t-89 212zM262 823v301h234v-301h-234zM647 1124q123 0 212 -88t89 -211v-825h-301v1124z" />
    <glyph glyph-name="b" unicode="b" horiz-adv-x="1214" 
d="M440 1599v-1599h-2q-45 0 -87 14.5t-94 53t-85 133t-33 231.5v866h-98v301h399zM844 1122q115 0 197.5 -82t82.5 -196v-545q0 -125 -87 -212t-212 -87h-233v301h231v520h-231v301h252z" />
    <glyph glyph-name="c" unicode="c" horiz-adv-x="966" 
d="M532 821v301h353v-301h-353zM532 2v301h349v-301h-349zM74 283l-2 540q0 123 87 211t212 88h10v-1120h-29q-115 0 -196.5 82t-81.5 199z" />
    <glyph glyph-name="d" unicode="d" horiz-adv-x="1136" 
d="M662 1604h387v-1164q0 -111 -22.5 -193.5t-55.5 -127.5t-77 -72t-77 -34t-65 -7v1294l-4 3h-86v301zM63 301v545q0 115 82 197.5t199 82.5h256v-301h-235v-522h235v-301h-238q-125 0 -212 87t-87 212z" />
    <glyph glyph-name="e" unicode="e" horiz-adv-x="1161" 
d="M1087 709q0 -125 -88 -212t-213 -87h-251v301h251v114h-251v301h251q125 0 213 -88t88 -211v-118zM82 827q0 123 87 211t210 88v-1124q-125 0 -211 87t-86 212v526zM535 299l552 2q0 -125 -88 -212t-213 -87h-251v297z" />
    <glyph glyph-name="f" unicode="f" horiz-adv-x="866" 
d="M139 1362q0 123 88 211t211 88h367v-301h-365v-1360h-301v821h-82v301h82v240zM592 821v301h211v-301h-211z" />
    <glyph glyph-name="g" unicode="g" horiz-adv-x="1161" 
d="M49 823q0 123 88 211t211 88h236v-301h-234v-518h234v-301h-252q-117 0 -200 81t-83 196v544zM354 -102v-95h230v-301h-234q-121 0 -209 88t-88 209v99h301zM735 -498v1620q127 0 214 -89t87 -218v-1016q0 -121 -88 -209t-213 -88z" />
    <glyph glyph-name="h" unicode="h" horiz-adv-x="1208" 
d="M55 1303v301h396v-1604h-301v1303h-95zM854 1124q117 0 199 -81.5t82 -196.5v-846h-301v823h-230v301h250z" />
    <glyph glyph-name="i" unicode="i" horiz-adv-x="446" 
d="M74 0l2 1128h299v-1128h-301zM74 1257v216h301v-216h-301z" />
    <glyph glyph-name="j" unicode="j" horiz-adv-x="643" 
d="M127 1479h387v-222h-387v222zM63 -106v-394q-123 0 -215 88t-92 211v95h307zM125 1124h389v-1325q0 -123 -87 -211t-212 -88v1323h-90v301z" />
    <glyph glyph-name="k" unicode="k" horiz-adv-x="1177" 
d="M440 1599v-1599h-301v1298h-96v301h397zM719 1126h424l-418 -426l410 -700h-347l-196 332v665z" />
    <glyph glyph-name="l" unicode="l" horiz-adv-x="479" 
d="M2 1604h395v-1604h-301v1303h-94v301z" />
    <glyph glyph-name="m" unicode="m" horiz-adv-x="1724" 
d="M43 825v301h397v-1124h-301v823h-96zM1327 1126q115 0 198 -81.5t83 -196.5v-846h-301v823h-285v-823h-301q-2 694 -2 823h-127v301h735z" />
    <glyph glyph-name="n" unicode="n" horiz-adv-x="1183" 
d="M819 1124q115 0 198 -81.5t83 -196.5v-846h-301v823h-209v301h229zM41 823v301h399v-1124h-299v823h-100z" />
    <glyph glyph-name="o" unicode="o" horiz-adv-x="1148" 
d="M76 301v522q0 125 87 212t212 87v-1120q-125 0 -212 88t-87 211zM782 1122q125 0 212 -87t87 -212v-522q0 -123 -87 -211t-212 -88h-256v301h254v518h-254v301h256z" />
    <glyph glyph-name="p" unicode="p" horiz-adv-x="1177" 
d="M807 1122q125 0 212 -87t87 -212v-540q0 -117 -82 -199t-199 -82h-252v301h232v518h-232v301h234zM23 1122h399v-1474h-301v1173h-98v301z" />
    <glyph glyph-name="q" unicode="q" horiz-adv-x="1132" 
d="M61 283v540q0 125 87.5 212t211.5 87h236v-301h-234v-518h234v-301h-254q-115 0 -198 83t-83 198zM748 1122q125 0 212 -89t87 -216v-1163h-299v1468z" />
    <glyph glyph-name="r" unicode="r" horiz-adv-x="878" 
d="M530 723v358q150 72 295 72v-301q-59 0 -142 -33t-153 -96zM80 0v1128h299v-1128h-299z" />
    <glyph glyph-name="s" unicode="s" horiz-adv-x="1142" 
d="M780 707q123 0 211 -88.5t88 -210.5v-109q0 -123 -88 -211t-211 -88h-258v303h256v103h-256v301h258zM72 821q0 125 88 213t211 88v-716q-123 0 -211 88t-88 213v114zM780 1122q123 0 211 -88t88 -213h-557v301h258zM371 0q-123 0 -211 88t-88 211h299v-299z" />
    <glyph glyph-name="t" unicode="t" horiz-adv-x="944" 
d="M864 817h-147v301h147v-301zM850 0h-195v301h195v-301zM266 1581h299v-1581q-125 0 -212 87t-87 212v518h-225v301h225v463z" />
    <glyph glyph-name="u" unicode="u" horiz-adv-x="1167" 
d="M383 1133l-2 -1131q-123 0 -211 88t-88 213v830h301zM784 1133h306v-836q0 -121 -89.5 -208t-209.5 -87h-259v301h252v830z" />
    <glyph glyph-name="v" unicode="v" horiz-adv-x="1173" 
d="M1087 590l-249 -430l-172 303l120 209v452h301v-534zM373 672l381 -672h-338l-342 590v534h299v-452z" />
    <glyph glyph-name="w" unicode="w" 
d="M1231 616l-72 -333l-229 559v284h301v-510zM295 2l-227 602v522h301v-467l247 -657h-321zM649 1120l457 -1100l-4 -18h-287l-330 748z" />
    <glyph glyph-name="x" unicode="x" horiz-adv-x="1136" 
d="M76 340l149 129l234 -199l-82 -69v-199h-301v338zM1063 786l-145 -122l-232 196l76 66v202h301v-342zM383 926l686 -586v-338h-301v199l-686 585v342h301v-202z" />
    <glyph glyph-name="y" unicode="y" horiz-adv-x="1124" 
d="M377 1124q-4 -786 -6 -825h227v-301h-227q-123 0 -209 87t-86 212v827h301zM750 -502l2 1626h301v-1327q0 -123 -88 -211t-211 -88h-4zM371 -104v-97h227v-301h-227q-125 0 -213 88t-88 211v99h301z" />
    <glyph glyph-name="z" unicode="z" horiz-adv-x="1001" 
d="M639 1120l-301 -301h-244v301h545zM854 1120h86v-336l-786 -782h-58v365zM367 2l301 301h266v-301h-567z" />
    <glyph glyph-name="braceleft" unicode="{" horiz-adv-x="903" 
d="M477 793l80 -97v-694h182v-301h-184q-125 0 -212 87t-87 212v586l-168 202l170 213v202t1 262.5t1 113.5q0 125 88 212t211 87h189v-301h-189v-682z" />
    <glyph glyph-name="bar" unicode="|" horiz-adv-x="374" 
d="M104 -197v1983h172v-1983h-172z" />
    <glyph glyph-name="braceright" unicode="}" horiz-adv-x="915" 
d="M289 692l80 96l-82 103v682h-189v301h189q123 0 211 -87t88 -212q0 4 0 -114t1 -262t1 -202l170 -213l-168 -202v-586q0 -125 -87 -212t-212 -87h-185v301h183v694z" />
    <glyph glyph-name="uni00A0" unicode="&#xa0;" horiz-adv-x="200" 
 />
    <glyph glyph-name="exclamdown" unicode="&#xa1;" horiz-adv-x="696" 
d="M487 2h-301v985l27 205h250l24 -205v-985zM487 1679v-270h-301v270h301z" />
    <glyph glyph-name="sterling" unicode="&#xa3;" horiz-adv-x="1210" 
d="M780 991v-295h-684v295h684zM791 1677q125 0 212 -87t87 -212v-116h-302v114h-317v-233h-301v235q0 125 87 212t212 87h322zM471 545v-244h584v-301h-959v301h74v244h301z" />
    <glyph glyph-name="yen" unicode="&#xa5;" horiz-adv-x="1218" 
d="M819 707h252v-172h-313v-103h313v-172h-313v-260h-301v260h-318v172h318v103h-318v172h256l-297 319v653h303v-536zM815 1679h299v-653l-192 -207l-209 217l102 107v536z" />
    <glyph glyph-name="brokenbar" unicode="&#xa6;" horiz-adv-x="374" 
d="M283 1786v-819h-172v819h172zM111 -197v828h172v-828h-172z" />
    <glyph glyph-name="copyright" unicode="&#xa9;" horiz-adv-x="841" 
d="M475 1057h-35v73h35v46h74v-46q0 -31 -21.5 -52t-52.5 -21zM362 1130h39v-73h-39q-29 0 -51 21.5t-22 51.5v209q0 127 76 127h36v-73h-36q-1 -251 -3 -263zM549 1352h-68q-4 37 -4 41h-37v73h37q29 0 50.5 -21.5t21.5 -51.5v-41zM211 995h176v-149h-176q-61 0 -104.5 44
t-43.5 105v541q0 61 44.5 105.5t105.5 44.5h174v-152h-176v-539zM633 995v19h149v-19q0 -61 -43 -105t-106 -44h-170v149h170zM637 1036l-2 498h-172v152h172q63 0 108 -44.5t45 -105.5v-236q0 -137 -29.5 -200.5t-121.5 -63.5z" />
    <glyph glyph-name="guillemotleft" unicode="&#xab;" horiz-adv-x="841" 
d="M342 1077l-254 -184l252 -184v-301l-272 198v574l274 198v-301zM725 1077l-252 -184l252 -184v-301l-272 198v574l272 198v-301z" />
    <glyph glyph-name="registered" unicode="&#xae;" horiz-adv-x="841" 
d="M516 1192l53 -129h-77l-54 129h78zM264 1473l115 -3v-407h-72v336h-43v74zM502 1231v-2h-80l-6 2v74h69v94h-69v71q55 0 80.5 -3t44 -19t18.5 -49v-66q0 -49 -11 -73.5t-46 -28.5zM211 995h176v-149h-176q-61 0 -104.5 44t-43.5 105v541q0 61 43.5 105.5t106.5 44.5h174
v-152h-176v-539zM633 995v19h149v-19q0 -61 -43 -105t-106 -44h-170v149h170zM637 1036l-2 498h-172v152h172q61 0 105 -43.5t44 -102.5l4 -4v-262q0 -119 -30.5 -178.5t-120.5 -59.5z" />
    <glyph glyph-name="uni00B2" unicode="&#xb2;" horiz-adv-x="614" 
d="M211 1690h55v-152h-53v-129h-152v131q0 61 44.5 105.5t105.5 44.5zM61 850v164l205 219v-221l-12 -11h268v-151h-461zM549 1540v-223l-207 -223v221l55 61v162h-55v152h57q61 0 105.5 -44.5t44.5 -105.5z" />
    <glyph glyph-name="uni00B3" unicode="&#xb3;" horiz-adv-x="614" 
d="M213 1008h53v-152h-55q-61 0 -105.5 44t-44.5 106v129h152v-127zM211 1698h55v-150h-53v-129h-152v129q0 63 44.5 106.5t105.5 43.5zM549 1548v-215l-62 -49l62 -49v-229q0 -61 -44 -105.5t-106 -44.5h-55v152h53v155l-55 45h-57v152h57l55 45v143h-53v150h55
q61 0 105.5 -43.5t44.5 -106.5z" />
    <glyph glyph-name="acute" unicode="&#xb4;" horiz-adv-x="503" 
d="M57 1759l95 287h301l-95 -287h-301z" />
    <glyph glyph-name="uni00B5" unicode="&#xb5;" horiz-adv-x="1255" 
d="M82 1128h389v-1288q0 -123 -87 -211t-212 -88v1286h-90v301zM1176 1128l2 -831q0 -123 -88.5 -211t-210.5 -88h-258v301h253v829h302zM-287 -61h307v-398q-123 0 -215 88t-92 211v99z" />
    <glyph glyph-name="cedilla" unicode="&#xb8;" horiz-adv-x="966" 
d="M537 0h102v-113l-43 -65h-59v178zM385 -178h-90l90 137v-137z" />
    <glyph glyph-name="uni00B9" unicode="&#xb9;" horiz-adv-x="436" 
d="M293 1001h78v-149h-312v149h82v543h-84v152h236v-695z" />
    <glyph glyph-name="guillemotright" unicode="&#xbb;" horiz-adv-x="841" 
d="M500 709l254 184l-252 184v301l272 -198v-574l-274 -198v301zM117 709l252 184l-252 184v301l272 -198v-574l-272 -198v301z" />
    <glyph glyph-name="onequarter" unicode="&#xbc;" horiz-adv-x="1435" 
d="M113 0l776 1690h188l-776 -1690h-188zM1114 0v502h152v-502h-152zM741 180v197l293 467h178l-321 -514h149v-150h-299zM293 1001h78v-149h-312v149h82v543h-84v152h236v-695z" />
    <glyph glyph-name="onehalf" unicode="&#xbd;" horiz-adv-x="1435" 
d="M115 0l774 1690h188l-776 -1690h-186zM973 840h55v-152h-53v-129h-152v131q0 61 44.5 105.5t105.5 44.5zM823 0v164l205 219v-221l-12 -10h268v-152h-461zM1311 690v-223l-207 -223v221l55 61v162h-55v152h57q61 0 105.5 -44.5t44.5 -105.5zM293 1001h78v-149h-312v149
h82v543h-84v152h236v-695z" />
    <glyph glyph-name="threequarters" unicode="&#xbe;" horiz-adv-x="1435" 
d="M182 0l774 1690h189l-776 -1690h-187zM1143 0v502h151v-502h-151zM770 180v197l293 467h178l-321 -514h149v-150h-299zM190 1008h54v-152h-56q-61 0 -105 44t-44 106v129h151v-127zM188 1698h56v-150h-54v-129h-151v129q0 63 44 106.5t105 43.5zM526 1548v-215l-61 -49
l61 -49v-229q0 -61 -44 -105.5t-105 -44.5h-55v152h53v155l-56 45h-57v152h57l56 45v143h-53v150h55q61 0 105 -43.5t44 -106.5z" />
    <glyph glyph-name="questiondown" unicode="&#xbf;" horiz-adv-x="1392" 
d="M885 301v119h301v-121q0 -123 -87 -211t-212 -88h-135v301h133zM918 1679v-270h-302v270h302zM139 299v389q0 123 87 211t212 88h178v201h302v-203q0 -123 -88.5 -212t-211.5 -89h-178v-383h162v-301h-164q-123 0 -211 88t-88 211z" />
    <glyph glyph-name="Agrave" unicode="&#xc0;" horiz-adv-x="1339" 
d="M514 1759l-94 287h301l94 -287h-301zM905 1413l320 -860v-553h-297v487l-183 492zM115 575l661 3v-306h-368v-272h-302v553zM823 1630l-334 -909h-321l358 956h250z" />
    <glyph glyph-name="Aacute" unicode="&#xc1;" horiz-adv-x="1339" 
d="M539 1759l94 287h301l-94 -287h-301zM905 1413l320 -860v-553h-297v487l-183 492zM115 575l661 3v-306h-368v-272h-302v553zM823 1630l-334 -909h-321l358 956h250z" />
    <glyph glyph-name="Acircumflex" unicode="&#xc2;" horiz-adv-x="1339" 
d="M969 2036l198 -273h-301l-184 252l-184 -252h-301l198 273h574zM905 1413l320 -860v-553h-297v487l-183 492zM115 575l661 3v-306h-368v-272h-302v553zM823 1630l-334 -909h-321l358 956h250z" />
    <glyph glyph-name="Atilde" unicode="&#xc3;" horiz-adv-x="1339" 
d="M96 2032h563v-142h568v-125h-695v142h-436v125zM905 1413l320 -860v-553h-297v487l-183 492zM115 575l661 3v-306h-368v-272h-302v553zM823 1630l-334 -909h-321l358 956h250z" />
    <glyph glyph-name="Adieresis" unicode="&#xc4;" horiz-adv-x="1339" 
d="M340 1896.5q0 45.5 27.5 81t70.5 47.5v-258q-43 10 -70.5 47t-27.5 82.5zM514 2023q41 -12 67.5 -46.5t26.5 -80t-26.5 -80t-67.5 -47.5v254zM725 1896.5q0 45.5 28.5 81t71.5 47.5v-258q-43 10 -71.5 47t-28.5 82.5zM899 2023q41 -12 67.5 -46.5t26.5 -80t-26.5 -80
t-67.5 -47.5v254zM905 1413l320 -860v-553h-297v487l-183 492zM115 575l661 3v-306h-368v-272h-302v553zM823 1630l-334 -909h-321l358 956h250z" />
    <glyph glyph-name="Aring" unicode="&#xc5;" horiz-adv-x="1339" 
d="M418 2007q0 92 55 164t141 94v-514q-86 23 -141 93.5t-55 162.5zM766 2263q82 -27 134 -97.5t52 -158.5t-52 -157.5t-134 -96.5v510zM905 1413l320 -860v-553h-297v487l-183 492zM115 575l661 3v-306h-368v-272h-302v553zM823 1630l-334 -909h-321l358 956h250z" />
    <glyph glyph-name="Ccedilla" unicode="&#xc7;" horiz-adv-x="1153" 
d="M803 301v180h301v-182q0 -123 -88 -211t-211 -88h-45v-113l-43 -65h-60v479h146zM416 -178l90 137v-137h-90zM809 1677q125 0 212 -88t87 -213v-172h-301v172h-150v301h152zM348 301h158v-301h-160q-123 0 -209 88t-86 211v1077q0 125 88 213t211 88h156v-301h-158v-1075
z" />
    <glyph glyph-name="Egrave" unicode="&#xc8;" horiz-adv-x="1337" 
d="M100 1677h459v-1677h-463v301h183v1075h-179v301zM711 301h530v-301h-530v301zM1241 1376h-530v301h530v-301zM1167 702h-456v302h456v-302zM514 1759l-94 287h301l94 -287h-301z" />
    <glyph glyph-name="Eacute" unicode="&#xc9;" horiz-adv-x="1337" 
d="M100 1677h459v-1677h-463v301h183v1075h-179v301zM711 301h530v-301h-530v301zM1241 1376h-530v301h530v-301zM1167 702h-456v302h456v-302zM500 1759l94 287h301l-94 -287h-301z" />
    <glyph glyph-name="Ecircumflex" unicode="&#xca;" horiz-adv-x="1337" 
d="M915 2036l199 -273h-301l-184 252l-185 -252h-301l199 273h573zM96 1677h459v-1677h-463v301h182v1075h-178v301zM707 301h530v-301h-530v301zM1235 1376h-528v301h528v-301zM1161 702h-454v302h454v-302z" />
    <glyph glyph-name="Edieresis" unicode="&#xcb;" horiz-adv-x="1337" 
d="M100 1677h459v-1677h-463v301h183v1075h-179v301zM711 301h530v-301h-530v301zM1241 1376h-530v301h530v-301zM1167 702h-456v302h456v-302zM340 1896.5q0 45.5 27.5 81t70.5 47.5v-258q-43 10 -70.5 47t-27.5 82.5zM514 2023q41 -12 67.5 -46.5t26.5 -80t-26.5 -80
t-67.5 -47.5v254zM725 1896.5q0 45.5 28.5 81t71.5 47.5v-258q-43 10 -71.5 47t-28.5 82.5zM899 2023q41 -12 67.5 -46.5t26.5 -80t-26.5 -80t-67.5 -47.5v254z" />
    <glyph glyph-name="Igrave" unicode="&#xcc;" horiz-adv-x="919" 
d="M793 1380h-185v-1079h185v-301h-662v301h176v1079h-176v301h662v-301zM317 1759l-94 287h301l94 -287h-301z" />
    <glyph glyph-name="Iacute" unicode="&#xcd;" horiz-adv-x="919" 
d="M793 1380h-185v-1079h185v-301h-662v301h176v1079h-176v301h662v-301zM322 1759l94 287h301l-94 -287h-301z" />
    <glyph glyph-name="Icircumflex" unicode="&#xce;" horiz-adv-x="919" 
d="M793 1380h-185v-1079h185v-301h-662v301h176v1079h-176v301h662v-301zM750 2036l198 -273h-301l-184 252l-184 -252h-302l199 273h574z" />
    <glyph glyph-name="Idieresis" unicode="&#xcf;" horiz-adv-x="919" 
d="M793 1380h-185v-1079h185v-301h-662v301h176v1079h-176v301h662v-301zM141 1896.5q0 45.5 28 81t71 47.5v-258q-43 10 -71 47t-28 82.5zM315 2023q41 -12 68 -46.5t27 -80t-27 -80t-68 -47.5v254zM526 1896.5q0 45.5 29 81t72 47.5v-258q-43 10 -72 47t-29 82.5z
M700 2023q41 -12 68 -46.5t27 -80t-27 -80t-68 -47.5v254z" />
    <glyph glyph-name="Eth" unicode="&#xd0;" horiz-adv-x="1447" 
d="M688 301h201q78 0 134 57.5t56 135.5v684q0 80 -56 136t-134 56h-201v301h201q203 0 347 -144.5t144 -348.5v-678q0 -203 -144 -352.5t-347 -149.5h-201v303zM858 985v-299h-323v-686h-457v299h155v387h-331v299h331v389h-155v297h457v-686h323z" />
    <glyph glyph-name="Ntilde" unicode="&#xd1;" horiz-adv-x="1638" 
d="M1468 0h-299v1677h299v-1677zM618 1040v-1040h-301v1389h-167v290h485l385 -764v-665zM328 2032h569v-142h567v-125h-694v142h-442v125z" />
    <glyph glyph-name="Ograve" unicode="&#xd2;" horiz-adv-x="1228" 
d="M514 1759l-94 287h301l94 -287h-301zM844 1675q123 0 209 -85t86 -206v-1085q0 -125 -88 -212t-211 -87h-305v301h307v1073h-307v301h309zM385 1675v-1675h-4q-123 0 -209 85t-86 206v1085q0 125 87 212t212 87z" />
    <glyph glyph-name="Oacute" unicode="&#xd3;" horiz-adv-x="1228" 
d="M453 1759l94 287h301l-94 -287h-301zM844 1675q123 0 209 -85t86 -206v-1085q0 -125 -88 -212t-211 -87h-305v301h307v1073h-307v301h309zM385 1675v-1675h-4q-123 0 -209 85t-86 206v1085q0 125 87 212t212 87z" />
    <glyph glyph-name="Ocircumflex" unicode="&#xd4;" horiz-adv-x="1228" 
d="M905 2036l199 -273h-301l-185 252l-184 -252h-301l199 273h573zM844 1675q123 0 209 -85t86 -206v-1085q0 -125 -88 -212t-211 -87h-305v301h307v1073h-307v301h309zM385 1675v-1675h-4q-123 0 -209 85t-86 206v1085q0 125 87 212t212 87z" />
    <glyph glyph-name="Otilde" unicode="&#xd5;" horiz-adv-x="1228" 
d="M90 2032h569v-142h486v-125h-613v142h-442v125zM844 1675q125 0 210 -87t85 -212v-1077q0 -125 -88 -212t-211 -87h-305v301h307v1073h-307v301h309zM385 1675v-1675h-4q-125 0 -210 87t-85 212v1077q0 125 87 212t212 87z" />
    <glyph glyph-name="Odieresis" unicode="&#xd6;" horiz-adv-x="1228" 
d="M297 1896.5q0 45.5 27.5 81t70.5 47.5v-258q-43 10 -70.5 47t-27.5 82.5zM471 2023q41 -12 67.5 -46.5t26.5 -80t-26.5 -80t-67.5 -47.5v254zM682 1896.5q0 45.5 28.5 81t71.5 47.5v-258q-43 10 -71.5 47t-28.5 82.5zM856 2023q41 -12 67.5 -46.5t26.5 -80t-26.5 -80
t-67.5 -47.5v254zM844 1675q125 0 210 -87t85 -212v-1077q0 -125 -88 -212t-211 -87h-305v301h307v1073h-307v301h309zM385 1675v-1675h-4q-125 0 -210 87t-85 212v1077q0 125 87 212t212 87z" />
    <glyph glyph-name="multiply" unicode="&#xd7;" horiz-adv-x="1044" 
d="M967 1016l-232 -234l230 -229l-213 -215l-232 231l-225 -225l-213 213l225 225l-227 228l215 213l225 -226l234 232z" />
    <glyph glyph-name="Oslash" unicode="&#xd8;" horiz-adv-x="1351" 
d="M1313 1733l-713 -1561v725l217 479h-215v303h356l25 54h330zM451 1677l2 -1728h-260l-21 8l61 135q-82 82 -81 209v1077q0 123 88 211t211 88zM903 301v244l301 661v-909q0 -121 -88 -209t-209 -88h-254l142 301h108z" />
    <glyph glyph-name="Ugrave" unicode="&#xd9;" 
d="M420 301h155v-301h-157q-125 0 -212 88t-87 211v1380h301v-1378zM874 1679h302v-1380q0 -123 -88.5 -211t-210.5 -88h-152v301h149v1378zM514 1759l-94 287h301l94 -287h-301z" />
    <glyph glyph-name="Uacute" unicode="&#xda;" 
d="M420 301h155v-301h-157q-125 0 -212 88t-87 211v1380h301v-1378zM874 1679h302v-1380q0 -123 -88.5 -211t-210.5 -88h-152v301h149v1378zM494 1759l94 287h301l-94 -287h-301z" />
    <glyph glyph-name="Ucircumflex" unicode="&#xdb;" 
d="M420 301h155v-301h-157q-125 0 -212 88t-87 211v1380h301v-1378zM874 1679h302v-1380q0 -123 -88.5 -211t-210.5 -88h-152v301h149v1378zM918 2036l198 -273h-301l-184 252l-185 -252h-301l199 273h574z" />
    <glyph glyph-name="Udieresis" unicode="&#xdc;" 
d="M420 301h155v-301h-157q-125 0 -212 88t-87 211v1380h301v-1378zM874 1679h302v-1380q0 -123 -88.5 -211t-210.5 -88h-152v301h149v1378zM340 1896.5q0 45.5 27.5 81t70.5 47.5v-258q-43 10 -70.5 47t-27.5 82.5zM514 2023q41 -12 67.5 -46.5t26.5 -80t-26.5 -80
t-67.5 -47.5v254zM725 1896.5q0 45.5 28.5 81t71.5 47.5v-258q-43 10 -71.5 47t-28.5 82.5zM899 2023q41 -12 67.5 -46.5t26.5 -80t-26.5 -80t-67.5 -47.5v254z" />
    <glyph glyph-name="Yacute" unicode="&#xdd;" horiz-adv-x="1218" 
d="M401 1145l418 -436l-61 -66v-643h-301v643l-359 383v653h303v-534zM815 1679h299v-653l-192 -207l-209 219l102 107v534zM453 1759l94 287h301l-94 -287h-301z" />
    <glyph glyph-name="Thorn" unicode="&#xde;" horiz-adv-x="1075" 
d="M684 1290q125 0 210 -87t85 -212v-495q0 -125 -88 -212t-211 -87h-156v301h158v491h-158v301h160zM106 1675h300v-1675h-300v1675z" />
    <glyph glyph-name="agrave" unicode="&#xe0;" horiz-adv-x="1026" 
d="M457 1313l-82 258h301l82 -258h-301zM66 299l-3 119q0 125 88.5 212t213.5 87h131v-301h-129v-115h129v-301h-131q-125 0 -210 87t-89 212zM262 823v301h234v-301h-234zM647 1124q123 0 212 -88t89 -211v-825h-301v1124z" />
    <glyph glyph-name="aacute" unicode="&#xe1;" horiz-adv-x="1026" 
d="M418 1313l82 258h301l-82 -258h-301zM66 299l-3 119q0 125 88.5 212t213.5 87h131v-301h-129v-115h129v-301h-131q-125 0 -210 87t-89 212zM262 823v301h234v-301h-234zM647 1124q123 0 212 -88t89 -211v-825h-301v1124z" />
    <glyph glyph-name="acircumflex" unicode="&#xe2;" horiz-adv-x="1026" 
d="M799 1585l198 -272h-301l-184 252l-184 -252h-301l198 272h574zM66 299l-3 119q0 125 88.5 212t213.5 87h131v-301h-129v-115h129v-301h-131q-125 0 -210 87t-89 212zM262 823v301h234v-301h-234zM647 1124q123 0 212 -88t89 -211v-825h-301v1124z" />
    <glyph glyph-name="atilde" unicode="&#xe3;" horiz-adv-x="1026" 
d="M264 1579h344v-141h342v-125h-469v141h-217v125zM66 299l-3 119q0 125 88.5 212t213.5 87h131v-301h-129v-115h129v-301h-131q-125 0 -210 87t-89 212zM262 823v301h234v-301h-234zM647 1124q123 0 212 -88t89 -211v-825h-301v1124z" />
    <glyph glyph-name="adieresis" unicode="&#xe4;" horiz-adv-x="1026" 
d="M221 1440q0 45 27.5 80.5t70.5 48.5v-258q-43 10 -70.5 47t-27.5 82zM395 1567q41 -12 67.5 -47t26.5 -80t-26.5 -80t-67.5 -47v254zM606 1440q0 45 29 80.5t72 48.5v-258q-43 10 -72 47t-29 82zM780 1567q41 -12 67.5 -47t26.5 -80t-26.5 -80t-67.5 -47v254zM66 299
l-3 119q0 125 88.5 212t213.5 87h131v-301h-129v-115h129v-301h-131q-125 0 -210 87t-89 212zM262 823v301h234v-301h-234zM647 1124q123 0 212 -88t89 -211v-825h-301v1124z" />
    <glyph glyph-name="aring" unicode="&#xe5;" horiz-adv-x="1026" 
d="M438 1440q0 45 28 80.5t71 48.5v-258q-43 10 -71 47t-28 82zM612 1567q41 -12 68 -47t27 -80t-27 -80t-68 -47v254zM66 299l-3 119q0 125 88.5 212t213.5 87h131v-301h-129v-115h129v-301h-131q-125 0 -210 87t-89 212zM262 823v301h234v-301h-234zM647 1124
q123 0 212 -88t89 -211v-825h-301v1124z" />
    <glyph glyph-name="ccedilla" unicode="&#xe7;" horiz-adv-x="966" 
d="M537 301h348v-301h-246v-113l-43 -65h-59v479zM385 -178h-90l90 137v-137zM78 281l-2 540q0 123 87 211t212 88h10v-1120h-29q-115 0 -196.5 82t-81.5 199zM537 1120h352v-301h-352v301z" />
    <glyph glyph-name="egrave" unicode="&#xe8;" horiz-adv-x="1161" 
d="M457 1313l-82 258h301l82 -258h-301zM1087 709q0 -125 -88 -212t-213 -87h-251v301h251v114h-251v301h251q125 0 213 -88t88 -211v-118zM82 827q0 123 87 211t210 88v-1124q-125 0 -211 87t-86 212v526zM535 299l552 2q0 -125 -88 -212t-213 -87h-251v297z" />
    <glyph glyph-name="eacute" unicode="&#xe9;" horiz-adv-x="1161" 
d="M428 1313l82 258h301l-82 -258h-301zM1087 709q0 -125 -88 -212t-213 -87h-251v301h251v114h-251v301h251q125 0 213 -88t88 -211v-118zM82 827q0 123 87 211t210 88v-1124q-125 0 -211 87t-86 212v526zM535 299l552 2q0 -125 -88 -212t-213 -87h-251v297z" />
    <glyph glyph-name="ecircumflex" unicode="&#xea;" horiz-adv-x="1161" 
d="M868 1585l199 -272h-301l-184 252l-185 -252h-301l199 272h573zM1087 709q0 -125 -88 -212t-213 -87h-251v301h251v114h-251v301h251q125 0 213 -88t88 -211v-118zM82 827q0 123 87 211t210 88v-1124q-125 0 -211 87t-86 212v526zM535 299l552 2q0 -125 -88 -212
t-213 -87h-251v297z" />
    <glyph glyph-name="edieresis" unicode="&#xeb;" horiz-adv-x="1161" 
d="M264 1440q0 45 27.5 80.5t70.5 48.5v-258q-43 10 -70.5 47t-27.5 82zM438 1567q41 -12 67.5 -47t26.5 -80t-26.5 -80t-67.5 -47v254zM649 1440q0 45 29 80.5t72 48.5v-258q-43 10 -72 47t-29 82zM823 1567q41 -12 68 -47t27 -80t-27 -80t-68 -47v254zM1087 709
q0 -125 -88 -212t-213 -87h-251v301h251v114h-251v301h251q125 0 213 -88t88 -211v-118zM82 827q0 123 87 211t210 88v-1124q-125 0 -211 87t-86 212v526zM535 299l552 2q0 -125 -88 -212t-213 -87h-251v297z" />
    <glyph glyph-name="igrave" unicode="&#xec;" horiz-adv-x="446" 
d="M74 0l2 1128h299v-1128h-301zM80 1313l-82 258h301l82 -258h-301z" />
    <glyph glyph-name="iacute" unicode="&#xed;" horiz-adv-x="446" 
d="M74 0l2 1128h299v-1128h-301zM80 1313l82 258h301l-82 -258h-301z" />
    <glyph glyph-name="icircumflex" unicode="&#xee;" horiz-adv-x="446" 
d="M74 0l2 1128h299v-1128h-301zM510 1585l199 -272h-301l-185 252l-184 -252h-301l199 272h573z" />
    <glyph glyph-name="idieresis" unicode="&#xef;" horiz-adv-x="446" 
d="M74 0l2 1128h299v-1128h-301zM-70 1440q0 45 28 80.5t71 48.5v-258q-43 10 -71 47t-28 82zM104 1567q41 -12 68 -47t27 -80t-27 -80t-68 -47v254zM315 1440q0 45 29 80.5t72 48.5v-258q-43 10 -72 47t-29 82zM489 1567q41 -12 68 -47t27 -80t-27 -80t-68 -47v254z" />
    <glyph glyph-name="eth" unicode="&#xf0;" horiz-adv-x="1265" 
d="M143 700q0 121 85 209t204 88h133v-299h-121v-397h121v-301h-123q-125 0 -212 88t-87 211v401zM209 1378v301h356v-391l-246 -141v231h-110zM1071 1581l-356 -207v346l284 164v-205zM1141 1454q8 -33 8 -74v-1081q0 -123 -87 -211t-212 -88h-135v301h133v397h-133v301
h133v285z" />
    <glyph glyph-name="ntilde" unicode="&#xf1;" horiz-adv-x="1183" 
d="M819 1124q115 0 198 -81.5t83 -196.5v-846h-301v823h-209v301h229zM41 823v301h399v-1124h-299v823h-100zM223 1579h344v-141h342v-125h-469v141h-217v125z" />
    <glyph glyph-name="ograve" unicode="&#xf2;" horiz-adv-x="1148" 
d="M76 301v522q0 125 87 212t212 87v-1120q-125 0 -212 88t-87 211zM782 1122q125 0 212 -87t87 -212v-522q0 -123 -87 -211t-212 -88h-256v301h254v518h-254v301h256zM465 1313l-82 258h301l82 -258h-301z" />
    <glyph glyph-name="oacute" unicode="&#xf3;" horiz-adv-x="1148" 
d="M76 301v522q0 125 87 212t212 87v-1120q-125 0 -212 88t-87 211zM782 1122q125 0 212 -87t87 -212v-522q0 -123 -87 -211t-212 -88h-256v301h254v518h-254v301h256zM391 1313l82 258h301l-82 -258h-301z" />
    <glyph glyph-name="ocircumflex" unicode="&#xf4;" horiz-adv-x="1148" 
d="M76 301v522q0 125 87 212t212 87v-1120q-125 0 -212 88t-87 211zM782 1122q125 0 212 -87t87 -212v-522q0 -123 -87 -211t-212 -88h-256v301h254v518h-254v301h256zM866 1585l199 -272h-301l-184 252l-185 -252h-301l199 272h573z" />
    <glyph glyph-name="otilde" unicode="&#xf5;" horiz-adv-x="1148" 
d="M76 301v522q0 125 87 212t212 87v-1120q-125 0 -212 88t-87 211zM782 1122q125 0 212 -87t87 -212v-522q0 -123 -87 -211t-212 -88h-256v301h254v518h-254v301h256zM264 1579h344v-141h342v-125h-469v141h-217v125z" />
    <glyph glyph-name="odieresis" unicode="&#xf6;" horiz-adv-x="1148" 
d="M76 301v522q0 125 87 212t212 87v-1120q-125 0 -212 88t-87 211zM782 1122q125 0 212 -87t87 -212v-522q0 -123 -87 -211t-212 -88h-256v301h254v518h-254v301h256zM242 1440q0 45 27.5 80.5t70.5 48.5v-258q-43 10 -70.5 47t-27.5 82zM416 1567q41 -12 67.5 -47
t26.5 -80t-26.5 -80t-67.5 -47v254zM627 1440q0 45 28.5 80.5t71.5 48.5v-258q-43 10 -71.5 47t-28.5 82zM801 1567q41 -12 67.5 -47t26.5 -80t-26.5 -80t-67.5 -47v254z" />
    <glyph glyph-name="ugrave" unicode="&#xf9;" horiz-adv-x="1167" 
d="M82 1128h299v-1130q-123 0 -211 88t-88 213v829zM786 1128h304v-831q0 -123 -88.5 -211t-210.5 -88h-259v301h254v829zM426 1313l-82 258h301l82 -258h-301z" />
    <glyph glyph-name="uacute" unicode="&#xfa;" horiz-adv-x="1167" 
d="M82 1128h301q-2 -37 -2 -1130q-123 0 -211 88t-88 213v829zM786 1128h304v-831q0 -123 -88.5 -211t-210.5 -88h-259v301h254v829zM459 1313l82 258h301l-82 -258h-301z" />
    <glyph glyph-name="ucircumflex" unicode="&#xfb;" horiz-adv-x="1167" 
d="M82 1128h299v-1130q-123 0 -211 88t-88 213v829zM786 1128h304v-831q0 -123 -88.5 -211t-210.5 -88h-259v301h254v829zM860 1585l199 -272h-301l-185 252l-184 -252h-301l199 272h573z" />
    <glyph glyph-name="udieresis" unicode="&#xfc;" horiz-adv-x="1167" 
d="M82 1128h299v-1130q-123 0 -211 88t-88 213v829zM786 1128h304v-831q0 -123 -88.5 -211t-210.5 -88h-259v301h254v829zM264 1440q0 45 27.5 80.5t70.5 48.5v-258q-43 10 -70.5 47t-27.5 82zM438 1567q41 -12 67.5 -47t26.5 -80t-26.5 -80t-67.5 -47v254zM649 1440
q0 45 29 80.5t72 48.5v-258q-43 10 -72 47t-29 82zM823 1567q41 -12 68 -47t27 -80t-27 -80t-68 -47v254z" />
    <glyph glyph-name="yacute" unicode="&#xfd;" horiz-adv-x="1124" 
d="M459 1313l82 258h301l-82 -258h-301zM377 1124q-4 -786 -6 -825h227v-301h-227q-121 0 -208 87t-87 212v827h301zM750 -502l2 1626h301v-1327q0 -123 -88 -211t-211 -88h-4zM371 -104v-97h227v-301h-227q-125 0 -213 88t-88 211v99h301z" />
    <glyph glyph-name="thorn" unicode="&#xfe;" horiz-adv-x="1075" 
d="M684 1137q125 0 210 -87t85 -212v-342q0 -125 -88 -212t-211 -87h-156v301h158v338h-158v301h160zM106 1401h300v-1401h-300v1401z" />
    <glyph glyph-name="ydieresis" unicode="&#xff;" horiz-adv-x="1124" 
d="M242 1440q0 45 27.5 80.5t70.5 48.5v-258q-43 10 -70.5 47t-27.5 82zM416 1567q41 -12 67.5 -47t26.5 -80t-26.5 -80t-67.5 -47v254zM627 1440q0 45 28.5 80.5t71.5 48.5v-258q-43 10 -71.5 47t-28.5 82zM801 1567q41 -12 67.5 -47t26.5 -80t-26.5 -80t-67.5 -47v254z
M377 1124q-4 -786 -6 -825h227v-301h-227q-123 0 -209 87t-86 212v827h301zM750 -502l2 1626h301v-1327q0 -123 -88 -211t-211 -88h-4zM371 -104v-97h227v-301h-227q-125 0 -213 88t-88 211v99h301z" />
  </font>
</defs>
</svg>
