<?xml version="1.0" standalone="no"?>
<!DOCTYPE svg PUBLIC "-//W3C//DTD SVG 1.1//EN" "http://www.w3.org/Graphics/SVG/1.1/DTD/svg11.dtd" >
<svg xmlns="http://www.w3.org/2000/svg">
<defs>
<font id="WCWunderbachRounded" horiz-adv-x="1296" >
  <font-face 
    font-family="WC Wunderbach Rounded"
    font-weight="400"
    font-stretch="normal"
    units-per-em="2048"
    panose-1="2 0 5 3 0 0 0 2 0 3"
    ascent="1638"
    descent="-410"
    x-height="1120"
    cap-height="1679"
    bbox="-289 -563 1903 2265"
    underline-thickness="40"
    underline-position="-231"
    unicode-range="U+0020-U+00FF"
  />
<missing-glyph horiz-adv-x="748" 
d="M68 0v1365h544v-1365h-544zM136 68h408v1229h-408v-1229z" />
    <glyph glyph-name=".notdef" horiz-adv-x="748" 
d="M68 0v1365h544v-1365h-544zM136 68h408v1229h-408v-1229z" />
    <glyph glyph-name=".null" horiz-adv-x="0" 
 />
    <glyph glyph-name="nonmarkingreturn" horiz-adv-x="682" 
 />
    <glyph glyph-name="space" unicode=" " horiz-adv-x="806" 
 />
    <glyph glyph-name="exclam" unicode="!" horiz-adv-x="696" 
d="M233 1688h199q20 0 35.5 -15.5t15.5 -36.5v-893q0 -59 -6 -100l-14 -104q-4 -20 -20.5 -35t-36.5 -15h-148q-20 0 -36.5 14.5t-20.5 35.5l-13 104q-6 41 -6 100v893q0 20 15.5 36t35.5 16zM182 51v170q0 20 15.5 34.5t35.5 14.5h199q20 0 35.5 -14t15.5 -35v-170
q0 -20 -15 -34.5t-36 -14.5h-199q-20 0 -35.5 14.5t-15.5 34.5z" />
    <glyph glyph-name="quotedbl" unicode="&#x22;" horiz-adv-x="841" 
d="M125 1683h201q23 0 37 -14t14 -37v-190q0 -45 -8 -103l-13 -102q-4 -23 -20.5 -37t-36.5 -14h-147q-20 0 -37 14t-21 37l-12 102q-6 43 -6 103v190q0 20 14.5 35.5t34.5 15.5zM512 1683h199q23 0 37 -14t14 -37v-190q0 -6 -2 -46t-4 -57l-15 -102q-4 -23 -20 -37t-37 -14
h-147q-20 0 -37 14t-21 37l-12 102q-6 43 -6 103v190q0 23 15.5 37t35.5 14z" />
    <glyph glyph-name="numbersign" unicode="#" horiz-adv-x="675" 
d="M587.5 961q-16.5 0 -28.5 -15.5t-12 -36.5v-137q0 -37 40 -51t40 -51v-49q0 -37 -40 -51.5t-40 -51.5v-49q0 -23 -15.5 -37t-35.5 -14h-50q-20 0 -35.5 14t-15.5 37v49q0 39 -9 53.5t-9 49.5v49q0 35 9 49t9 53v137q0 39 -9 53.5t-9 49.5v47q0 37 10 51t10 51v45
q0 23 14.5 37t37.5 14h47q20 0 35.5 -14t15.5 -37v-45q0 -37 40 -51t40 -51v-47q0 -23 -11.5 -37t-28 -14zM291 721q10 0 10 -51v-49q0 -37 -10 -51.5t-10 -51.5v-49q0 -23 -15.5 -37t-36.5 -14h-47q-23 0 -37 14t-14 37v49q0 37 -41 51.5t-41 51.5v49q0 37 41 51t41 51v137
q0 37 -41 51.5t-41 51.5v47q0 37 41 51t41 51v45q0 23 14.5 37t36.5 14h47q20 0 36 -14t16 -37v-45q0 -37 10 -51t10 -51v-47q0 -37 -10 -51.5t-10 -51.5v-137q0 -51 10 -51z" />
    <glyph glyph-name="dollar" unicode="$" horiz-adv-x="1198" 
d="M846 989q123 0 211 -88t88 -213h-66h-692q-111 0 -205 81t-94 192v4q-2 8 -2 24h35h725zM1094 539q20 0 35.5 -15.5t15.5 -36.5v-12v-16v-35q0 -125 -88 -213t-211 -88h-31q-20 0 -35.5 -14.5t-15.5 -36.5v-27q0 -20 -14.5 -35.5t-34.5 -15.5h-201q-23 0 -37 15.5
t-14 35.5v27q0 20 -10.5 35.5t-26.5 15.5h-39q-125 0 -213 88t-88 213v61q0 23 14.5 37.5t36.5 14.5h199q20 0 35.5 -14.5t15.5 -37.5v-10q0 -20 11.5 -35.5t27.5 -15.5t26.5 15.5t10.5 35.5v12q0 20 14.5 36t36.5 16h201q20 0 34.5 -15.5t14.5 -36.5v-12q0 -20 12 -35.5
t28.5 -15.5t28 15.5t11.5 35.5v12q0 20 14 36t37 16h199zM1145 1247v-33v-16v-14q0 -20 -15.5 -35.5t-35.5 -15.5h-199q-20 0 -35.5 15t-15.5 36v14q0 20 -11.5 34.5t-28 14.5t-28.5 -14t-12 -35v-14q0 -20 -14.5 -35.5t-34.5 -15.5h-201q-20 0 -35.5 15t-15.5 36v14
q0 20 -11.5 34.5t-25.5 14.5q-16 0 -27.5 -14t-11.5 -35v-12q0 -20 -15.5 -35.5t-35.5 -15.5h-199q-20 0 -35.5 15t-15.5 36v61q0 125 88 213t213 88h39q14 0 25.5 15.5t11.5 35.5v29q0 20 15.5 34.5t35.5 14.5h201q20 0 34.5 -14t14.5 -35v-29q0 -20 15.5 -35.5t35.5 -15.5
h31q123 0 211 -88t88 -213z" />
    <glyph glyph-name="percent" unicode="%" horiz-adv-x="1314" 
d="M55 1432q0 94 54.5 164.5t140.5 93.5v-516q-86 20 -140.5 93t-54.5 165zM406 1690q82 -29 134 -99.5t52 -159t-52.5 -159t-133.5 -96.5v514zM723 256q0 94 55.5 166t143.5 96v-516q-86 23 -142.5 92.5t-56.5 161.5zM1073 514q82 -27 134.5 -97.5t52.5 -160.5
q0 -86 -52.5 -155.5t-134.5 -96.5v510zM205 47l731 1598q23 45 72 45h88q33 0 32 -27q0 -12 -4 -18l-733 -1598q-8 -18 -29.5 -31.5t-42.5 -13.5h-86q-33 0 -32 29q0 4 4 16z" />
    <glyph glyph-name="ampersand" unicode="&#x26;" horiz-adv-x="1325" 
d="M563 1374q-23 0 -37 15.5t-14 35.5v199q0 23 14.5 37t36.5 14h158q20 0 35.5 -14t15.5 -37v-199q0 -20 -15.5 -35.5t-35.5 -15.5h-158zM1178 985q23 0 37 -15.5t14 -35.5v-197q0 -20 -14.5 -35.5t-36.5 -15.5h-615q-23 0 -37 15.5t-14 35.5v197q0 20 14.5 35.5t36.5 15.5
h123q23 0 37 15.5t14 35.5v99q0 20 14.5 35.5t36.5 15.5h197q23 0 37 -15.5t14 -35.5v-99q0 -20 14.5 -35.5t36.5 -15.5h91zM987 535q20 0 35.5 -15.5t15.5 -36.5v-184q0 -125 -88 -212t-211 -87h-176q-23 0 -37 14.5t-14 36.5v199q0 20 14.5 35.5t36.5 15.5h123
q23 0 37 15.5t14 35.5v131q0 20 14.5 36t36.5 16h199zM82 1376q0 119 82 205t198 94v-1675q-121 4 -204.5 91t-83.5 208l2 356v52q0 125 96 208q-57 53 -73.5 124t-16.5 192v145z" />
    <glyph glyph-name="quotesingle" unicode="'" horiz-adv-x="677" 
d="M125 1231l123 395q6 20 25.5 33.5t41.5 13.5h199q37 0 37 -33q0 -8 -2 -14l-123 -395q-14 -47 -66 -47h-200q-37 0 -37 35q0 8 2 12z" />
    <glyph glyph-name="parenleft" unicode="(" horiz-adv-x="1046" 
d="M258 242l6 1210q2 121 89 210t210 89h137q20 0 36 -15.5t16 -35.5v-201q0 -20 -15.5 -34.5t-36.5 -14.5h-84q-20 0 -35.5 -15.5t-15.5 -35.5q0 -33 -1 -228.5t-1 -326.5q0 -129 1 -324.5t1 -228.5q0 -20 14.5 -34.5t36.5 -14.5h84q20 0 36 -15.5t16 -36.5v-200
q0 -20 -15.5 -34.5t-36.5 -14.5h-8h-61h-72q-125 0 -213 88t-88 213z" />
    <glyph glyph-name="parenright" unicode=")" horiz-adv-x="999" 
d="M709 1450l-7 -1210q0 -121 -88 -210t-211 -89h-137q-20 0 -35.5 15t-15.5 36v201q0 20 15.5 34.5t35.5 14.5h84q20 0 35.5 15t15.5 36q0 33 1 228.5t1 326.5q0 129 -1 324.5t-1 228.5q0 20 -14 34.5t-37 14.5h-84q-20 0 -35.5 15.5t-15.5 35.5v201q0 20 15.5 34.5
t35.5 14.5h8h134q125 0 214 -88t87 -213z" />
    <glyph glyph-name="asterisk" unicode="*" horiz-adv-x="755" 
d="M672 1446q2 -2 2 -8q0 -29 -39 -43l-82 -29q-27 -6 -27 -33q0 -14 9 -24l49 -68q10 -14 10 -29q0 -27 -23 -43l-39 -28q-10 -8 -28 -8q-27 0 -41 20l-51 70q-10 16 -28.5 16t-33.5 -16l-51 -72q-16 -20 -41 -21q-14 0 -31 11l-39 28q-20 16 -20 41q0 14 10 29l51 70
q8 10 9 24q0 27 -27 35l-82 27q-35 14 -35 51q0 10 2 14l15 45q12 35 51 35q10 0 14 -2l82 -27q4 -2 14 -2q33 0 33 37v86q0 20 15.5 35.5t35.5 15.5h52q20 0 34.5 -15t14.5 -36v-86q0 -37 37 -37q8 0 12 2l84 27q12 4 20 4q12 0 22.5 -5t16.5 -19.5t9.5 -20.5t8.5 -27.5
t5 -23.5z" />
    <glyph glyph-name="plus" unicode="+" horiz-adv-x="1044" 
d="M993 952v-198q0 -20 -15 -36t-36 -16h-227q-23 0 -37 -15t-14 -36v-272q0 -23 -14.5 -37t-37.5 -14h-198q-20 0 -36 14t-16 37v272q0 20 -15 35.5t-36 15.5h-215q-23 0 -37 15.5t-14 36.5v198q0 23 14.5 37.5t36.5 14.5h215q20 0 35.5 14t15.5 37v268q0 20 15.5 35.5
t36.5 15.5h198q23 0 37.5 -15.5t14.5 -35.5v-268q0 -23 14 -37t37 -14h227q20 0 35.5 -14.5t15.5 -37.5z" />
    <glyph glyph-name="comma" unicode="," horiz-adv-x="677" 
d="M74 -117l123 396q6 20 25.5 33.5t39.5 13.5h201q37 0 37 -33q0 -10 -2 -14l-123 -396q-6 -20 -25.5 -33.5t-40.5 -13.5h-200q-37 0 -37 33q0 10 2 14z" />
    <glyph glyph-name="hyphen" unicode="-" horiz-adv-x="841" 
d="M795 954v-198q0 -23 -14.5 -37t-37.5 -14h-651q-23 0 -37 14t-14 37v198q0 20 14.5 36t36.5 16h651q23 0 37.5 -16t14.5 -36z" />
    <glyph glyph-name="period" unicode="." horiz-adv-x="614" 
d="M203 315h196q23 0 37.5 -14t14.5 -37v-215q0 -20 -14.5 -35.5t-37.5 -15.5h-196q-23 0 -37 15.5t-14 35.5v215q0 23 14 37t37 14z" />
    <glyph glyph-name="slash" unicode="/" horiz-adv-x="1247" 
d="M27 -152l858 1889q23 47 71 47h230q35 0 35 -29q0 -12 -4 -18l-861 -1889q-23 -47 -73 -47h-228q-33 0 -32 27q0 4 4 20z" />
    <glyph glyph-name="zero" unicode="0" horiz-adv-x="1351" 
d="M446 1329v-971q0 -20 15.5 -35.5t36.5 -15.5h45q20 0 34.5 -15.5t14.5 -35.5v-199q0 -20 -14.5 -35.5t-34.5 -15.5h-97q-123 0 -211 87t-88 212v1075q0 125 88.5 213t210.5 88h97q20 0 34.5 -15t14.5 -36v-200q0 -20 -14.5 -35t-34.5 -15h-45q-20 0 -36 -15.5t-16 -35.5z
M883 358v971q0 20 -15.5 35.5t-36.5 15.5h-43q-20 0 -35.5 14.5t-15.5 35.5v200q0 20 15.5 35.5t35.5 15.5h97q123 0 211 -88t88 -213v-1075q0 -125 -88 -212t-211 -87h-97q-23 0 -37 15.5t-14 35.5v199q0 23 14.5 37t36.5 14h43q20 0 36 14t16 37z" />
    <glyph glyph-name="one" unicode="1" horiz-adv-x="1007" 
d="M705 303h55q20 0 35.5 -15.5t15.5 -35.5v-201q0 -20 -15.5 -35.5t-35.5 -15.5h-520q-20 0 -36 15.5t-16 35.5v201q0 20 15.5 35.5t36.5 15.5h63q20 0 35.5 14.5t15.5 34.5v983q0 20 -15 35.5t-36 15.5h-67q-20 0 -35 14.5t-15 35.5v200q0 20 14.5 36t35.5 16h368
q20 0 35.5 -15.5t15.5 -36.5v-1284q0 -20 15 -34.5t35 -14.5z" />
    <glyph glyph-name="two" unicode="2" horiz-adv-x="1202" 
d="M143 1327v10v39q0 123 88 212t213 89h58q20 0 35.5 -15t15.5 -36v-201q0 -20 -15.5 -34.5t-35.5 -14.5h-6q-20 0 -35 -15t-15 -36v-156q0 -20 -15 -35.5t-36 -15.5h-200q-20 0 -35 14.5t-15 34.5zM1014 301q20 0 35.5 -14.5t15.5 -34.5v-201q0 -20 -15.5 -35.5
t-35.5 -15.5h-819q-20 0 -36 15.5t-16 35.5v49v101v78q0 53 35 88l340 362q12 12 21 12q14 0 14 -24v-365q0 -20 15.5 -35.5t35.5 -15.5h410zM1118 1075l-2 -2l2 -92q0 -49 -35 -88l-346 -369q-12 -12 -20 -12q-14 0 -15 25v342q0 53 35 88l43 45q35 39 35 88v225
q0 20 -15.5 35.5t-35.5 15.5h-10q-20 0 -36 14.5t-16 34.5v201q0 20 15.5 35.5t36.5 15.5h12q2 0 6 -1t6 -1l39 2q125 0 212 -88t87 -213z" />
    <glyph glyph-name="three" unicode="3" horiz-adv-x="1267" 
d="M504 301q20 0 35.5 -15.5t15.5 -35.5v-201q0 -20 -15.5 -34.5t-35.5 -14.5h-8h-21h-31q-125 0 -212 87t-87 212v209q0 20 15.5 35.5t36.5 15.5l198 -2q23 0 37 -14.5t14 -36.5v-156q0 -20 15.5 -34.5t36.5 -14.5h6zM504 1681q20 0 35.5 -15t15.5 -36v-198
q0 -23 -15.5 -37.5t-35.5 -14.5h-6q-20 0 -36 -15t-16 -36v-155q0 -20 -15 -35t-36 -15l-198 -2q-20 0 -36 14.5t-16 37.5v98v110q0 123 87 211t212 88h60zM1079 788q43 -39 43 -79v-74v-260q-2 -18 -2 -51l-2 -15q-2 0 -2 -10q0 -125 -87 -212t-212 -87h-59
q-20 0 -35.5 14.5t-15.5 34.5v201q0 20 15 35.5t36 15.5h6q20 0 35.5 14.5t15.5 34.5v168q0 109 -33.5 148t-117.5 39h-21q-20 0 -35.5 14t-15.5 35v200q0 20 15.5 36t35.5 16h8q59 4 92 30l33 27q39 33 39 82v184q0 20 -15.5 35.5t-35.5 15.5h-6q-20 0 -35.5 14.5
t-15.5 37.5v198q0 20 15 35.5t36 15.5h8h6h45q123 0 209 -85t90 -205l-1 -12q-1 -11 -1 -31l4 -267v-80q0 -53 -39 -81l-45 -35q-14 -12 -14 -30.5t16 -33.5z" />
    <glyph glyph-name="four" unicode="4" horiz-adv-x="1308" 
d="M154 657h489q20 0 35.5 -14t15.5 -35v-200q0 -20 -15 -36t-36 -16h-491q-20 0 -35 15.5t-15 36.5v198q0 20 14.5 35.5t37.5 15.5zM1098 999q20 0 35.5 -15t15.5 -36v-899q0 -20 -15.5 -35.5t-35.5 -15.5h-201q-20 0 -34.5 15.5t-14.5 35.5v899q0 20 14.5 35.5t34.5 15.5
h201zM987 1681q31 0 31 -22q0 -8 -6 -21l-494 -788q-27 -43 -76 -43h-254q-31 0 -30 24q0 9 6 19l493 788q25 43 78 43h252z" />
    <glyph glyph-name="five" unicode="5" horiz-adv-x="1267" 
d="M516 301q20 0 35.5 -14.5t15.5 -34.5v-201q0 -23 -15 -37t-36 -14h-22h-7h-45q-121 0 -210 88t-89 211v82q0 20 15.5 34.5t36.5 14.5h198q20 0 35.5 -14.5t15.5 -34.5v-29q0 -20 15.5 -35.5t36.5 -15.5h20zM770 1378q-20 0 -35.5 15.5t-15.5 36.5v198q0 23 15.5 37
t35.5 14h274q20 0 36 -14t16 -37v-198q0 -20 -15.5 -36t-36.5 -16h-274zM516 1679q20 0 35.5 -14t15.5 -37v-198q0 -20 -15 -36t-36 -16h-20q-20 0 -36 -15t-16 -36v-276q0 -23 15.5 -37.5t36.5 -14.5h20q20 0 35.5 -14t15.5 -37v-198q0 -20 -15 -36t-36 -16h-321
q-23 0 -37.5 15.5t-14.5 36.5v630q0 125 88 212t211 87h74zM1151 709v-9v-401q0 -121 -88 -210t-211 -89h-82q-20 0 -35.5 14.5t-15.5 36.5v201q0 20 15.5 34.5t35.5 14.5h31q20 0 34.5 15.5t14.5 35.5v295q0 20 -14.5 35.5t-34.5 15.5h-31q-20 0 -35.5 15.5t-15.5 36.5v196
q0 20 15.5 35.5t35.5 15.5h41q51 0 51 2q119 -4 203 -87.5t86 -202.5z" />
    <glyph glyph-name="six" unicode="6" horiz-adv-x="1267" 
d="M776 1380q-23 0 -37 14.5t-14 37.5v198q0 20 14.5 35.5t36.5 15.5h254q23 0 37 -15t14 -36v-198q0 -23 -14 -37.5t-37 -14.5h-254zM524 1681q20 0 35.5 -15t15.5 -36v-198q0 -23 -15 -37.5t-36 -14.5h-30q-23 0 -37.5 -14t-14.5 -37v-276q0 -20 14.5 -36t37.5 -16h30
q20 0 35.5 -15t15.5 -36v-198q0 -23 -15 -37.5t-36 -14.5h-30q-23 0 -37.5 -14t-14.5 -37v-297q0 -20 15.5 -34.5t36.5 -14.5h30q20 0 35.5 -14.5t15.5 -36.5v-201q0 -20 -15 -34.5t-36 -14.5h-18h-66q-125 0 -212 88t-87 211v1081q0 125 87 212t212 87h84zM858 999
q119 -2 204 -89t85 -208v-401q0 -123 -87 -211t-212 -88h-72q-20 0 -35.5 14.5t-15.5 34.5v201q0 23 14.5 37t36.5 14h19q20 0 35.5 14.5t15.5 34.5v297q0 23 -15.5 37t-35.5 14h-19q-23 0 -37 14.5t-14 37.5v196q0 23 14.5 37t36.5 14h82z" />
    <glyph glyph-name="seven" unicode="7" horiz-adv-x="1409" 
d="M514 657l334 527q25 43 78 43h237q29 0 29 -23q0 -8 -6 -20l-373 -600q-27 -41 -27 -95v-438q0 -23 -14 -37t-37 -14h-198q-20 0 -36 14.5t-16 36.5v512q0 55 29 94zM188 1679h1053q20 0 35.5 -14t15.5 -37v-190q0 -10 1 -24.5t0 -18.5t-1 -9.5t-10 -5.5t-15 -1t-30 -1
h-1049q-20 0 -35.5 15.5t-15.5 36.5v198q0 23 15.5 37t35.5 14z" />
    <glyph glyph-name="eight" unicode="8" horiz-adv-x="1267" 
d="M512 1679q20 0 34.5 -15t14.5 -36v-198q0 -20 -14.5 -36t-34.5 -16h-12q-20 0 -35.5 -15t-15.5 -36v-166q0 -4 -2.5 -27.5t0 -35t12.5 -30.5t30 -34l27 -22q8 -8 19.5 -15.5l17.5 -11.5l6 -4h2v-256l-2 -51q-23 -12 -43 -31l-27 -22q-41 -33 -40 -82v-189q0 -20 15 -35.5
t36 -15.5h12q20 0 34.5 -15.5t14.5 -35.5v-199q0 -20 -14.5 -35.5t-34.5 -15.5h-14h-6h-46q-121 0 -210 88t-89 211v192v103v90q0 51 39 84l39 31q16 10 17 30q0 23 -17 33l-39 31q-18 16 -27 34.5t-10.5 31t-1.5 40.5l-2 11l2 -2v38v140v196q0 125 88.5 212t210.5 87h66z
M1128 1112v-51v-88q0 -49 -38 -82l-39 -31q-20 -16 -21 -35q0 -14 12 -22l2 -2q18 -14 30.5 -25.5t23 -18.5t15.5 -19.5t9 -17.5t5 -21.5t1 -22.5v-29.5v-36.5v-4v-309q0 -123 -88 -211t-213 -88h-65q-20 0 -34.5 15.5t-14.5 35.5v199q0 20 14 35.5t35 15.5h14
q20 0 32.5 11.5t16.5 36t5 43t-1 52t-2 43.5v7q0 12 1 33.5t1 29.5t-4 20.5t-12 22.5t-25 23l-28 22q-37 31 -43 31h-4v51v256h4l43 31l28 22q10 8 17.5 17.5t12.5 17.5t7 24.5t4 30t1 42t-1 53t-1 71.5t-1 88h-65q-20 0 -34.5 15.5t-14.5 36.5v198q0 20 14 35.5t35 15.5h16
h15h34q123 0 212 -88t89 -211v-268z" />
    <glyph glyph-name="nine" unicode="9" horiz-adv-x="1267" 
d="M510 301q20 0 35.5 -14.5t15.5 -34.5v-201q0 -20 -15.5 -35.5t-35.5 -15.5h-215q-20 0 -34.5 15.5t-14.5 35.5v201q0 20 14 34.5t35 14.5h215zM1139 1389v-7v-350v-100v-633q0 -121 -86 -210t-211 -89h-82q-20 0 -35.5 15.5t-15.5 35.5v201q0 20 15 34.5t36 14.5h28
q20 0 35 15.5t15 35.5v281q0 20 -14.5 34.5t-35.5 14.5h-28q-20 0 -35.5 15.5t-15.5 35.5v201q0 20 15 34.5t36 14.5h28q20 0 35 15.5t15 35.5v295q0 20 -14.5 35.5t-35.5 15.5h-28q-20 0 -35.5 14.5t-15.5 35.5v200q0 20 15 34.5t36 14.5h31h4h47q121 0 207 -84.5
t90 -205.5zM510 1679q20 0 35.5 -14t15.5 -35v-200q0 -20 -15.5 -35t-35.5 -15h-25q-20 0 -35.5 -15t-15.5 -36v-295q0 -20 15.5 -35.5t35.5 -15.5h25q20 0 35.5 -14.5t15.5 -34.5v-201q0 -20 -15.5 -35.5t-35.5 -15.5h-25h-51q-123 0 -212 88t-89 211v401q0 123 88 210
t213 87h76z" />
    <glyph glyph-name="colon" unicode=":" horiz-adv-x="655" 
d="M158 723v217q0 20 15 34.5t36 14.5h199q20 0 35.5 -14t15.5 -35v-217q0 -20 -15.5 -35.5t-35.5 -15.5h-201q-20 0 -34.5 15.5t-14.5 35.5zM160 51v217q0 20 14 35.5t35 15.5h199q20 0 35.5 -15t15.5 -36v-217q0 -20 -15.5 -34.5t-35.5 -14.5h-199q-20 0 -34.5 14.5
t-14.5 34.5z" />
    <glyph glyph-name="semicolon" unicode=";" horiz-adv-x="722" 
d="M217 649l2 215q0 20 15.5 35.5t35.5 15.5h197q20 0 35.5 -15t15.5 -36v-215q0 -23 -15.5 -37t-35.5 -14h-199q-23 0 -37 14t-14 37zM80 -115l123 396q6 20 26.5 33.5t40.5 13.5h199q39 0 39 -31q0 -4 -4 -16l-123 -396q-6 -20 -25.5 -34.5t-40.5 -14.5h-198q-39 0 -39 35
q0 10 2 14z" />
    <glyph glyph-name="less" unicode="&#x3c;" horiz-adv-x="1210" 
d="M131 723v192q0 51 41 78l879 600q10 8 22 9q20 0 21 -29v-264q0 -51 -43 -80l-559 -383q-16 -10 -17 -27q0 -18 17 -31l559 -380q47 -31 43 -78v-264q0 -29 -23 -29q-8 0 -20 6l-879 600q-41 31 -41 80z" />
    <glyph glyph-name="equal" unicode="=" horiz-adv-x="1157" 
d="M100 872v199q0 20 14.5 35.5t35.5 15.5h854q20 0 35.5 -15t15.5 -36v-199q0 -20 -15.5 -35.5t-35.5 -15.5h-854q-20 0 -35 15.5t-15 35.5zM100 362v199q0 20 14.5 35.5t35.5 15.5h854q20 0 35.5 -15t15.5 -36v-199q0 -20 -15.5 -35.5t-35.5 -15.5h-854q-20 0 -35 15.5
t-15 35.5z" />
    <glyph glyph-name="greater" unicode="&#x3e;" horiz-adv-x="1210" 
d="M1094 920v-191q0 -49 -43 -80l-879 -600q-8 -6 -20 -6q-23 0 -23 29v262q0 53 43 80l559 383q16 10 16.5 28.5t-16.5 28.5l-559 381q-43 31 -43 80v264q0 29 23 29q12 0 20 -9l879 -600q43 -26 43 -79z" />
    <glyph glyph-name="question" unicode="?" horiz-adv-x="1392" 
d="M449 1313q0 -23 -15.5 -37t-36.5 -14l-198 -2q-23 0 -37.5 15t-14.5 36v14v55q0 125 87.5 212t211.5 87h84q23 0 37.5 -14t14.5 -37v-198q0 -20 -14.5 -36t-37.5 -16h-30q-20 0 -35.5 -15t-15.5 -36v-14zM715 995l127 -2q23 0 37 15.5t14 35.5v283q0 20 -14.5 35.5
t-36.5 15.5h-60q-20 0 -35.5 15.5t-15.5 36.5v198q0 23 15.5 37t35.5 14h52h61q123 0 211 -88t88 -211v-217v-102v-70q0 -123 -87 -211t-212 -88h-127q-23 0 -37 -14t-14 -37v-98q0 -23 -14.5 -37t-36.5 -14h-199q-20 0 -35.5 14t-15.5 37v61v90q0 123 88 213t211 88z
M666 270q23 0 37 -14t14 -37v-168q0 -23 -14.5 -37t-36.5 -14h-199q-20 0 -35.5 14.5t-15.5 36.5v168q0 23 15 37t36 14h199z" />
    <glyph glyph-name="at" unicode="@" horiz-adv-x="1779" 
d="M801 856q20 0 20 -20v-37v-412q-115 10 -192.5 96t-77.5 201v152q0 20 20 20h230zM801 1307q20 0 20 -21v-260q0 -20 -20 -20h-230q-20 0 -20 20v8v33q0 100 70.5 170t169.5 70h10zM991 772q-20 0 -20 21v104v410h14q115 0 177.5 -68t62.5 -172v-274q0 -20 -21 -21h-213z
M801 1378h-307q-20 0 -21 -20q0 -86 -2 -566.5t-2 -488.5h332q20 0 20 -20v-260q0 -20 -20 -21h-334q-125 0 -212 88t-87 213l4 1077q0 123 88 211t211 88h330q20 0 20 -20v-260q0 -21 -20 -21zM991 303h297q16 0 21.5 18.5t19.5 18.5h260q20 0 21 -29v-10q0 -123 -87 -211
t-212 -88h-320q-20 0 -20 21v260q0 20 20 20zM991 1679h326q123 0 211 -88t88 -211v-696q0 -123 -88 -211t-211 -88h-326q-20 0 -20 21v260q0 20 20 20h303q20 0 21 21v651q0 20 -21 20h-303q-20 0 -20 21v260q0 20 20 20z" />
    <glyph glyph-name="A" unicode="A" horiz-adv-x="1320" 
d="M219 719q-35 0 -35 33q0 10 2 16l322 860q8 20 28.5 34.5t41.5 14.5h180q59 0 59 -37q0 -29 -12 -59l-283 -774l-10 -31.5t-9 -26t-11.5 -15.5t-20.5 -12t-33 -3h-219zM1198 625l9 -22.5t7.5 -17.5t4.5 -11.5t3 -11.5l2 -10t1 -13.5v-15.5v-21v-453q0 -20 -15.5 -34.5
t-35.5 -14.5h-195q-20 0 -35.5 14.5t-15.5 34.5v438l-19 50l-147 393q-6 22 -6 49q0 29 6 47l125 338q8 20 18 20t17 -20zM158 571l567 -2q20 0 35.5 -14t15.5 -37v-196q0 -20 -15.5 -35t-35.5 -15h-266q-20 0 -35.5 -15t-15.5 -36v-172q0 -20 -15.5 -34.5t-36.5 -14.5h-198
q-20 0 -36 14.5t-16 34.5v471q0 20 14.5 35.5t37.5 15.5z" />
    <glyph glyph-name="B" unicode="B" horiz-adv-x="1366" 
d="M504 1679q20 0 35.5 -15t15.5 -36l4 -1579q0 -20 -14.5 -34.5t-34.5 -14.5h-383q-20 0 -35.5 14.5t-15.5 34.5v201q0 20 15 35.5t36 15.5h72q20 0 34.5 14.5t14.5 34.5v973q0 20 -14.5 34.5t-34.5 14.5h-70q-20 0 -35.5 15.5t-15.5 35.5v205q0 20 15.5 35.5t35.5 15.5
h375zM1194 848q-2 -12 -2 -35q80 -104 80 -301q0 -31 -3 -102.5t-3 -112.5q0 -123 -87 -210t-212 -87h-232q-20 0 -34.5 14.5t-14.5 34.5v201q0 20 14.5 35.5t34.5 15.5h180q20 0 35 14.5t15 34.5v285q0 16 -5.5 26.5t-11.5 15.5t-19.5 7t-22.5 2t-29.5 -1t-30.5 -1h-111
q-20 0 -34.5 15.5t-14.5 35.5v201q0 20 14.5 34.5t34.5 14.5h21l75 2h38t37.5 1t27.5 5t22.5 14.5t8.5 26.5v289q0 20 -14.5 34.5t-35.5 14.5h-55h-110q-20 0 -35 15.5t-15 35.5v201q0 20 14.5 34.5t35.5 14.5h65h170q119 0 208 -85t89 -206q0 -6 2 -95t2 -124
q0 -204 -92 -315z" />
    <glyph glyph-name="C" unicode="C" horiz-adv-x="1153" 
d="M1051 483q20 0 34.5 -15t14.5 -36v-59v-72q0 -123 -88 -211t-211 -88h-96q-20 0 -36 15.5t-16 35.5v201q0 20 15.5 34.5t36.5 14.5h45q20 0 34.5 15.5t14.5 35.5v78q0 23 14 37t37 14h201zM1104 1386v-8v-121q0 -20 -15.5 -35.5t-35.5 -15.5h-199q-23 0 -37 15.5
t-14 35.5v72q0 20 -15.5 34.5t-35.5 14.5h-47q-20 0 -36 15.5t-16 36.5v200q0 20 15.5 34.5t36.5 14.5h43h59q121 0 207 -86t90 -207zM451 1679q20 0 35.5 -14t15.5 -35v-200q0 -20 -15.5 -36t-35.5 -16h-50q-20 0 -35.5 -14t-15.5 -35v-973q0 -20 15.5 -34.5t35.5 -14.5h50
q20 0 35.5 -14t15.5 -37v-201q0 -20 -15.5 -34.5t-35.5 -14.5h-103q-125 0 -212 88t-87 211v1075q0 125 87 212t212 87h103z" />
    <glyph glyph-name="D" unicode="D" horiz-adv-x="1447" 
d="M481 1673q23 0 37 -15.5t14 -35.5l-2 -199v-102v-1270q0 -23 -15 -37t-36 -14h-354q-23 0 -37 14.5t-14 36.5v199q0 20 15 34.5t36 14.5h53q23 0 37 14.5t14 36.5v975q0 20 -15 34.5t-36 14.5h-53q-23 0 -37 15.5t-14 35.5l2 201q0 20 15 34.5t36 14.5zM885 1671
q203 0 347 -144.5t144 -348.5v-678q0 -203 -144.5 -352.5t-346.5 -149.5h-150q-23 0 -37 15.5t-14 35.5v201q0 20 14.5 35.5t36.5 15.5l90 2q250 8 250 191v684q0 80 -56 136t-134 56h-150q-23 0 -37 15.5t-14 35.5v199q0 23 14.5 37t36.5 14h150z" />
    <glyph glyph-name="E" unicode="E" horiz-adv-x="1337" 
d="M147 1677h357q20 0 35.5 -15t15.5 -36v-1577q0 -20 -15.5 -34.5t-35.5 -14.5h-363q-20 0 -34.5 14.5t-14.5 34.5v201q0 20 14.5 35.5t34.5 15.5h82q20 0 35.5 14.5t15.5 34.5v975q0 20 -15 35.5t-36 15.5h-76q-20 0 -35.5 14.5t-15.5 34.5v201q0 20 15.5 35.5t35.5 15.5z
M758 301h428q20 0 35.5 -15.5t15.5 -35.5v-201q0 -20 -15.5 -34.5t-35.5 -14.5h-428q-20 0 -35.5 14.5t-15.5 34.5v201q0 20 15.5 35.5t35.5 15.5zM1186 1376h-428q-20 0 -35.5 14.5t-15.5 34.5v201q0 20 15 35.5t36 15.5h428q20 0 35.5 -15t15.5 -36v-201
q0 -20 -15.5 -34.5t-35.5 -14.5zM1112 702h-354q-20 0 -35.5 14.5t-15.5 35.5v200q0 20 15 34.5t36 14.5h354q20 0 35.5 -14t15.5 -35v-200q0 -20 -15.5 -35t-35.5 -15z" />
    <glyph glyph-name="F" unicode="F" 
d="M121 1677h358q20 0 35.5 -15t15.5 -36v-1577q0 -20 -15 -34.5t-36 -14.5h-178q-20 0 -35.5 14.5t-15.5 34.5v1276q0 20 -15.5 35.5t-35.5 15.5h-78q-20 0 -35.5 14.5t-15.5 34.5v201q0 20 15.5 35.5t35.5 15.5zM1159 1376h-428q-20 0 -35.5 14.5t-15.5 34.5v201
q0 20 15.5 35.5t35.5 15.5h428q20 0 35.5 -15t15.5 -36v-201q0 -20 -15.5 -34.5t-35.5 -14.5zM1085 702h-354q-20 0 -35.5 14.5t-15.5 35.5v200q0 20 15.5 34.5t35.5 14.5h354q20 0 36 -14t16 -35v-200q0 -20 -16 -35t-36 -15z" />
    <glyph glyph-name="G" unicode="G" horiz-adv-x="1208" 
d="M475 1675q20 0 34.5 -14t14.5 -35v-201q0 -20 -14 -35.5t-35 -15.5h-57q-20 0 -35.5 -14t-15.5 -35l-2 -975q0 -20 14 -35.5t35 -15.5h61q20 0 34.5 -14.5t14.5 -34.5v-201q0 -20 -14 -35.5t-35 -15.5h-37h-78q-123 0 -210 88t-87 213l3 1077q0 125 88 212t213 87h108z
M1069 571q20 0 34.5 -14t14.5 -35v-100v-125q0 -123 -88 -211t-211 -88h-94q-20 0 -35.5 15.5t-15.5 35.5v201q0 20 15.5 34.5t35.5 14.5h43q20 0 34.5 15.5t14.5 35.5v172q0 20 15.5 34.5t35.5 14.5h201zM1069 995q20 0 34.5 -15t14.5 -36v-196q0 -20 -14 -36t-35 -16h-422
q-20 0 -35.5 15.5t-15.5 36.5v196q0 20 15.5 35.5t35.5 15.5h422zM1122 1382q2 -2 2 -8l-4 -121q0 -20 -15 -35.5t-36 -15.5h-197q-20 0 -34.5 15.5t-14.5 35.5v72q0 20 -15 34.5t-36 14.5h-47q-20 0 -35.5 15.5t-15.5 35.5v201q0 20 15.5 34.5t35.5 14.5h39h61
q121 0 207 -86t90 -207z" />
    <glyph glyph-name="H" unicode="H" horiz-adv-x="1359" 
d="M983 1679h199q20 0 34.5 -15t14.5 -38v-1577q0 -20 -14.5 -35.5t-34.5 -15.5h-199q-20 0 -34.5 15.5t-14.5 35.5v592q0 20 -15.5 34.5t-35.5 14.5h-205q-20 0 -35.5 15.5t-15.5 35.5v201q0 20 15 34.5t36 14.5h205q20 0 35.5 15.5t15.5 35.5v584q0 23 14.5 38t34.5 15z
M111 1679h295q33 0 51 -15t18 -38v-1579q0 -20 -15.5 -34.5t-35.5 -14.5h-197q-20 0 -35.5 14.5t-15.5 34.5v1278q0 20 -15.5 35.5t-35.5 15.5h4q-20 0 -35.5 15.5t-15.5 33.5v201q0 18 12.5 35.5t20.5 17.5z" />
    <glyph glyph-name="I" unicode="I" horiz-adv-x="919" 
d="M743 1378h-84q-20 0 -35.5 -14t-15.5 -35v-979q0 -20 15.5 -34.5t35.5 -14.5h84q20 0 35 -15.5t15 -35.5v-201q0 -20 -14.5 -34.5t-35.5 -14.5h-561q-20 0 -35.5 14.5t-15.5 34.5v201q0 20 15.5 35.5t35.5 15.5h74q20 0 35.5 14.5t15.5 34.5v979q0 20 -15.5 34.5
t-35.5 14.5h-74q-20 0 -35.5 15.5t-15.5 36.5v200q0 20 15.5 34.5t35.5 14.5h561q20 0 35 -14t15 -35v-200q0 -20 -15 -36t-35 -16z" />
    <glyph glyph-name="J" unicode="J" horiz-adv-x="1310" 
d="M483 301q20 0 36 -14.5t16 -34.5v-201q0 -23 -15.5 -37t-36.5 -14h-20h-78q-123 0 -214 88t-89 211l2 246q0 20 15.5 35.5t35.5 15.5h199q23 0 37 -15.5t14 -35.5l2 -193q0 -20 15.5 -35.5t35.5 -15.5h45zM1092 1675q23 0 37 -14t14 -37v-225v-1100q0 -121 -88 -210
t-211 -89h-109q-23 0 -37 14.5t-14 36.5v201q0 20 15.5 34.5t35.5 14.5h56q20 0 35.5 15.5t15.5 35.5v975q0 20 -15.5 34.5t-35.5 14.5h-259q-20 0 -35.5 14.5t-15.5 36.5v197q0 23 15.5 37t35.5 14h560z" />
    <glyph glyph-name="K" unicode="K" horiz-adv-x="1427" 
d="M1262 1636l-179 -438q-18 -49 -69 -49h-223q-35 0 -35 31q0 12 2 18l180 438q8 20 28.5 35t41.5 15h223q35 0 35 -31q0 -7 -4 -19zM1098 862l276 -811q2 -6 2 -14q0 -35 -37 -35h-215q-23 0 -42 14.5t-25 34.5l-209 617q-6 20 -26.5 34.5t-41.5 14.5h-75q-20 0 -36 14
t-16 35v182q0 20 14.5 34.5t37.5 14.5h296q25 0 42.5 -14t23.5 -28.5t16.5 -47.5zM55 1442v194q0 20 15.5 35t35.5 15h343q20 0 35.5 -14.5t15.5 -35.5v-1583q0 -18 -15.5 -32.5t-35.5 -14.5h-197q-20 0 -35.5 14.5t-15.5 32.5v1288q0 20 -16.5 36t-39.5 16h-34
q-23 0 -39.5 14.5t-16.5 34.5z" />
    <glyph glyph-name="L" unicode="L" horiz-adv-x="1208" 
d="M659 301h447q20 0 35.5 -15.5t15.5 -35.5v-197q0 -20 -15.5 -35.5t-35.5 -15.5h-447q-20 0 -35.5 15.5t-15.5 35.5v197q0 20 15.5 35.5t35.5 15.5zM92 1679h295q33 0 51.5 -15t18.5 -38v-1579q0 -20 -15.5 -34.5t-35.5 -14.5h-197q-20 0 -35.5 14.5t-15.5 34.5v1278
q0 20 -15.5 35.5t-36.5 15.5h5q-20 0 -36 15.5t-16 33.5v201q0 18 12.5 35.5t20.5 17.5z" />
    <glyph glyph-name="M" unicode="M" horiz-adv-x="1732" 
d="M868 254l-372 735q-8 20 -15 21q-8 0 -8 -23v-942q0 -18 -15.5 -32.5t-35.5 -14.5h-199q-20 0 -35.5 14.5t-15.5 32.5v1288q0 18 -15.5 34.5t-35.5 16.5h-66q-23 0 -37 14.5t-14 35.5v188q0 20 15.5 36.5t35.5 16.5h377q51 0 74 -47l532 -1038q10 -16 10.5 -45t-10.5 -45
l-123 -246q-10 -18 -22 -18q-11 0 -25 18zM1561 -2h-199q-20 0 -35.5 14.5t-15.5 32.5v942q0 39 -4 39l-1 1q-1 3 -6 -5q-6 -10 -20 -39l-113 -223q-8 -20 -22 -21q-12 0 -25 21l-121 235q-8 18 -8 45q0 31 8 47l273 541q25 47 74 47h215q20 0 35.5 -16.5t15.5 -36.5v-1577
q0 -18 -15.5 -32.5t-35.5 -14.5z" />
    <glyph glyph-name="N" unicode="N" horiz-adv-x="1570" 
d="M1354 0h-197q-20 0 -35.5 14.5t-15.5 34.5v1577q0 20 15.5 35.5t35.5 15.5h197q20 0 35.5 -15t15.5 -36v-1577q0 -20 -15.5 -34.5t-35.5 -14.5zM555 989v-940q0 -20 -15.5 -34.5t-35.5 -14.5h-199q-20 0 -35.5 14.5t-15.5 34.5v1288q0 20 -15.5 34.5t-35.5 14.5h-68
q-20 0 -34.5 15.5t-14.5 36.5v190q0 20 14.5 35.5t34.5 15.5h385q51 0 74 -47l340 -671q23 -41 22 -97v-565q0 -23 -8 -23q-6 0 -14 19l-356 698q-8 18 -15 19q-8 0 -8 -23z" />
    <glyph glyph-name="O" unicode="O" horiz-adv-x="1228" 
d="M76 299l4 1083q4 123 90 208t209 85v-1675h-4q-125 0 -212 87t-87 212zM838 1675q145 0 222 -99t77 -251q-4 -825 -4 -997q0 -139 -82 -233.5t-217 -94.5h-254q-20 0 -36 14.5t-16 34.5v201q0 20 15.5 35.5t36.5 15.5h200q20 0 35.5 14.5t15.5 34.5l5 973
q0 20 -15.5 35.5t-36.5 15.5h-204q-20 0 -36 14.5t-16 34.5v201q0 20 15.5 35.5t36.5 15.5h88h170z" />
    <glyph glyph-name="P" unicode="P" horiz-adv-x="1413" 
d="M514 1673q23 0 37 -15.5t14 -35.5v-1571q0 -23 -14 -37t-37 -14h-199q-20 0 -35.5 14.5t-15.5 36.5v1270q0 23 -15.5 37t-35.5 14h-70q-20 0 -35.5 14.5t-15.5 36.5v201q0 23 15.5 37t35.5 14zM1298 1382v-8v-411q0 -104 -67.5 -180t-169.5 -93h-295q-20 0 -34.5 15.5
t-14.5 35.5v195q0 20 14 35.5t35 15.5h180q20 0 35.5 14.5t15.5 36.5v283q0 23 -15 37t-36 14h-180q-20 0 -34.5 15.5t-14.5 35.5v199q0 20 14 35.5t35 15.5h94h139q123 0 209 -85t90 -206z" />
    <glyph glyph-name="Q" unicode="Q" horiz-adv-x="1474" 
d="M1270 299q20 0 35.5 -14.5t15.5 -36.5v-199q0 -20 -15.5 -35.5t-35.5 -15.5h-473q-23 0 -37.5 15.5t-14.5 35.5v199q0 23 14.5 37t37.5 14h473zM797 1374q-23 0 -37.5 15.5t-14.5 35.5v199q0 23 14.5 37t37.5 14h37h86q125 0 212 -88t87 -213v-872q0 -20 -15.5 -35.5
t-36.5 -15.5h-200q-20 0 -34.5 15t-14.5 36v825q-2 20 -16.5 33.5t-35.5 13.5h-69zM543 1675q23 0 37 -14t14 -37v-199q0 -20 -14.5 -35.5t-36.5 -15.5h-82q-20 0 -34.5 -15.5t-14.5 -35.5v-975q0 -20 14 -34.5t35 -14.5h82q23 0 37 -14.5t14 -36.5v-199q0 -20 -14.5 -35.5
t-36.5 -15.5h-133q-123 0 -211 88t-88 211v1079q0 121 88 210t211 89h133z" />
    <glyph glyph-name="R" unicode="R" horiz-adv-x="1501" 
d="M1346 49q4 -12 4 -16q0 -31 -35 -31h-225q-51 0 -70 47l-178 440q-4 12 -4 19q0 29 34 29h224q20 0 41.5 -14.5t29.5 -33.5zM537 1681q20 0 35.5 -15t15.5 -36v-1577q0 -20 -15.5 -35.5t-35.5 -15.5h-199q-23 0 -37 15.5t-14 35.5v1276q0 23 -14.5 37t-36.5 14h-70
q-23 0 -37 14.5t-14 37.5v196q0 23 14 37t37 14zM1036 690h-121h-124q-20 0 -36 15.5t-16 35.5v203q0 23 15.5 37t36.5 14h180q20 0 34.5 14.5t14.5 34.5v285q0 20 -14.5 35.5t-34.5 15.5h-180q-20 0 -36 14.5t-16 37.5v198q0 20 15.5 35.5t36.5 15.5h149h82q125 0 212 -88
t87 -211v-413q0 -96 -70.5 -186.5t-167.5 -90.5l2 -2h-49z" />
    <glyph glyph-name="S" unicode="S" horiz-adv-x="1198" 
d="M477 307q23 0 37 -14t14 -37v-199q0 -20 -14 -35.5t-37 -15.5h-41h-59q-123 0 -212 88t-89 211v78q0 23 15 37t36 14h199q23 0 37 -14t14 -37v-25q0 -23 14.5 -37t36.5 -14h49zM379 1333v-278q0 -51 49 -51h49q23 0 37 -14.5t14 -37.5v-198q0 -20 -14 -36t-37 -16h-102
q-123 0 -211 87.5t-88 211.5v52v333q0 125 88 212.5t211 87.5h102q23 0 37 -15.5t14 -36.5v-198q0 -23 -14 -37.5t-37 -14.5h-49q-49 0 -49 -51zM1133 1395v-9v-67q0 -20 -15.5 -35.5t-36.5 -15.5h-198q-23 0 -37.5 15t-14.5 36v14q0 23 -14 37t-37 14h-51q-20 0 -35.5 14.5
t-15.5 37.5v198q0 20 15.5 36t35.5 16h53h52q123 0 209 -85t90 -206zM834 1004q125 0 212 -87.5t87 -211.5v-400q0 -123 -87.5 -211t-211.5 -88h-105q-20 0 -35.5 15.5t-15.5 35.5v199q0 23 15.5 37t35.5 14h51q23 0 37 14.5t14 36.5v293q0 20 -14 35.5t-37 15.5h-51
q-20 0 -35.5 15.5t-15.5 36.5v198q0 23 15.5 37.5t35.5 14.5h25h80z" />
    <glyph glyph-name="T" unicode="T" horiz-adv-x="1026" 
d="M356 51l2 1127q0 20 14.5 35.5t35.5 15.5h198q20 0 34.5 -15.5t14.5 -35.5v-1127q0 -20 -14 -35.5t-35 -15.5h-200q-20 0 -35 14t-15 37zM80 1679h856q20 0 34.5 -15t14.5 -36v-196q0 -20 -14.5 -36t-34.5 -16h-856q-20 0 -34.5 15.5t-14.5 36.5v196q0 20 14.5 35.5
t34.5 15.5z" />
    <glyph glyph-name="U" unicode="U" 
d="M522 301q23 0 37 -15.5t14 -35.5v-199q0 -23 -14 -37t-37 -14h-8h-98q-123 0 -211 88t-88 211v1329q0 23 15 37t36 14h201q20 0 34.5 -15t14.5 -36v-1276q0 -20 14 -35.5t37 -15.5h53zM1122 1679q20 0 36 -14t16 -37v-274v-1055q0 -121 -88.5 -210t-211.5 -89h-100
q-20 0 -35.5 14.5t-15.5 36.5v199q0 20 15.5 35.5t35.5 15.5h47q23 0 37 15.5t14 35.5v1276q0 23 14.5 37t37.5 14h198z" />
    <glyph glyph-name="V" unicode="V" horiz-adv-x="1290" 
d="M1153 1112l-258 -774q-6 -18 -16.5 -18.5t-16.5 20.5l-125 377q-8 29 -8 49q0 25 8 49l117 346q16 53 16 101v364q0 20 15.5 35.5t36.5 15.5h196q20 0 35.5 -15t15.5 -36v-414q0 -47 -16 -100zM109 1212v414q0 20 15 35.5t36 15.5h198q23 0 37.5 -15t14.5 -36v-364
q0 -57 16 -101l348 -1061q10 -31 10 -53q0 -45 -63 -45h-174q-20 0 -41 14.5t-27 34.5l-354 1061q-16 53 -16 100z" />
    <glyph glyph-name="W" unicode="W" horiz-adv-x="1781" 
d="M651 602l183 -553q2 -4 2 -12q0 -35 -39 -35h-217q-51 0 -66 47l-145 453l-31 96l-166 510q-16 53 -16 100v418q0 20 14 35.5t37 15.5h199q20 0 35.5 -15t15.5 -36v-371q0 -47 16 -100l148 -457zM1372 1677h199q23 0 37 -15t14 -36v-414q0 -61 -12 -100l-176 -745
q-2 -20 -13 -21q-8 0 -16 19l-148 446q-8 33 -8 61q0 16 4 37l56 240q14 63 12 100v377q0 20 15.5 35.5t35.5 15.5zM1350 20q-4 -18 -56 -18h-200q-51 0 -66 47l-293 891q-2 6 -2 14q0 35 37 35h215q20 0 41 -14t27 -35l104 -319q8 -27 12.5 -33t20.5 -56l147 -444
q12 -35 13 -61v-7z" />
    <glyph glyph-name="X" unicode="X" 
d="M203 645l67 64q14 14 37 14t37 -14l148 -138q16 -12 16 -32.5t-16 -36.5l-35 -33q-37 -33 -37 -84v-336q0 -20 -15.5 -34.5t-35.5 -14.5h-199q-20 0 -35.5 14.5t-15.5 34.5v467q0 20 4 34.5t13 28t16.5 21.5t25 22.5t25.5 22.5zM1069 1042l-59 -57q-18 -14 -35 -14
q-23 0 -39 16l-145 135q-14 14 -14.5 35t14.5 35l26 25q37 33 37 86v325q0 20 15.5 34.5t35.5 14.5h199q20 0 35.5 -14t15.5 -35v-457q0 -29 -12.5 -52t-24.5 -35.5t-49 -41.5zM680 1020l145 -137l72 -70l227 -213q37 -33 37 -84v-467q0 -20 -15.5 -34.5t-35.5 -14.5h-199
q-20 0 -35.5 14.5t-15.5 34.5v336q0 51 -37 84l-147 137l-74 68l-147 139l-74 68l-221 206q-37 33 -37 84v457q0 20 15.5 34.5t35.5 14.5h199q20 0 35.5 -14t15.5 -35v-325q0 -51 37 -84l141 -134q23 -20 36 -28t42 -37z" />
    <glyph glyph-name="Y" unicode="Y" horiz-adv-x="1218" 
d="M438 1110l348 -362q16 -16 17 -37q0 -12 -21.5 -50t-21.5 -65v-543q0 -20 -14.5 -35.5t-34.5 -15.5h-201q-23 0 -37 15.5t-14 35.5v543q0 51 -35 86l-289 309q-35 39 -35 88v551q0 20 15.5 35.5t36.5 15.5h200q20 0 35.5 -15t15.5 -36v-432q0 -49 35 -88zM868 1681h197
q20 0 35.5 -15t15.5 -36v-551q0 -49 -35 -88l-123 -133q-12 -14 -34 -14q-20 0 -35 14l-139 146q-14 18 -14.5 36.5t14.5 36.5l32 33q35 35 35 88v432q0 20 15.5 35.5t35.5 15.5z" />
    <glyph glyph-name="Z" unicode="Z" horiz-adv-x="1177" 
d="M1024 1376l-866 2q-23 0 -37.5 15.5t-14.5 36.5v198q0 23 14.5 37t37.5 14h866q20 0 34.5 -15t14.5 -36v-196q0 -10 1 -19.5t1 -13.5t1 -9.5t-1 -7.5t-2 -4t-6 -2h-9h-14.5h-19.5zM1012 2h-551q-31 0 -31 23q0 8 8 20l137 215q29 43 78 43h359q20 0 35.5 -14.5
t15.5 -36.5v-199q0 -20 -15.5 -35.5t-35.5 -15.5zM975 1182l-717 -1137q-25 -39 -80 -43h-16q-23 0 -37 15.5t-14 35.5v271q0 53 26 94l481 764q29 43 78 43h256q29 0 29 -23q0 -8 -6 -20z" />
    <glyph glyph-name="bracketleft" unicode="[" horiz-adv-x="1046" 
d="M258 242l6 1210q2 121 89 210t210 89h137q20 0 36 -15.5t16 -35.5v-201q0 -20 -15.5 -34.5t-36.5 -14.5h-84q-20 0 -35.5 -15.5t-15.5 -35.5q0 -33 -1 -228.5t-1 -326.5q0 -129 1 -324.5t1 -228.5q0 -20 14.5 -34.5t36.5 -14.5h84q20 0 36 -15.5t16 -36.5v-200
q0 -20 -15.5 -34.5t-36.5 -14.5h-8h-61h-72q-125 0 -213 88t-88 213z" />
    <glyph glyph-name="backslash" unicode="\" horiz-adv-x="1247" 
d="M885 -154l-858 1891q-4 12 -4 18q0 29 32 29h230q49 0 71 -47l861 -1891q4 -6 4 -18q0 -27 -33 -27h-232q-48 0 -71 45z" />
    <glyph glyph-name="bracketright" unicode="]" horiz-adv-x="999" 
d="M709 1450l-7 -1210q0 -121 -88 -210t-211 -89h-137q-20 0 -35.5 15t-15.5 36v201q0 20 15.5 34.5t35.5 14.5h84q20 0 35.5 15t15.5 36q0 33 1 228.5t1 326.5q0 129 -1 324.5t-1 228.5q0 20 -14 34.5t-37 14.5h-84q-20 0 -35.5 15.5t-15.5 35.5v201q0 20 15.5 34.5
t35.5 14.5h8h134q125 0 214 -88t87 -213z" />
    <glyph glyph-name="asciicircum" unicode="^" horiz-adv-x="1056" 
d="M63 1264l140 190q29 39 80 39h471q51 0 80 -39l139 -190q8 -8 8 -21q0 -23 -29 -22h-200q-47 0 -80 41l-125 172q-10 16 -29 16q-20 0 -31 -16l-125 -172q-10 -16 -34.5 -28.5t-44.5 -12.5h-199q-29 0 -29 22q0 13 8 21z" />
    <glyph glyph-name="underscore" unicode="_" horiz-adv-x="1167" 
d="M1124 -313v-199q0 -20 -15 -35.5t-36 -15.5h-981q-23 0 -37 15.5t-14 35.5v199q0 23 14.5 37t36.5 14h981q20 0 35.5 -14t15.5 -37z" />
    <glyph glyph-name="grave" unicode="`" horiz-adv-x="503" 
d="M133 1806l-63 191q-2 4 -2 14q0 35 38 35h199q20 0 40 -14.5t26 -34.5l63 -191q2 -4 2 -14q0 -33 -37 -33h-198q-23 0 -42.5 13.5t-25.5 33.5z" />
    <glyph glyph-name="a" unicode="a" horiz-adv-x="1026" 
d="M418 301h26q23 0 37.5 -15.5t14.5 -35.5v-199q0 -23 -14.5 -37t-37.5 -14h-82q-123 0 -208.5 85t-90.5 206v127q0 125 88.5 212t213.5 87h79q23 0 37.5 -14.5t14.5 -36.5v-199q0 -20 -14.5 -35.5t-37.5 -15.5h-26q-20 0 -35.5 -15.5t-15.5 -35.5v-13q0 -20 15.5 -35.5
t35.5 -15.5zM444 1124q23 0 37.5 -15t14.5 -36v-199q0 -23 -14.5 -37t-37.5 -14h-131q-23 0 -37 14.5t-14 36.5v199q0 20 14.5 35.5t36.5 15.5h131zM940 897q8 -33 8 -53v-19v-774q0 -23 -15 -37t-36 -14h-199q-23 0 -37 14.5t-14 36.5v301v740q0 35 31 34q88 0 165 -70.5
t97 -158.5z" />
    <glyph glyph-name="b" unicode="b" horiz-adv-x="1214" 
d="M1122 848v-6v-547q0 -123 -87 -210t-212 -87h-182q-20 0 -35.5 14.5t-15.5 34.5v201q0 20 15.5 35.5t35.5 15.5h129q20 0 35.5 14.5t15.5 34.5v420q0 20 -15 34.5t-36 14.5h-129q-20 0 -35.5 15.5t-15.5 35.5v201q0 20 15.5 34.5t35.5 14.5h107h94q113 0 194.5 -78.5
t85.5 -191.5zM387 1597q20 0 35.5 -15t15.5 -36v-1499v-43l-2 -6q-45 0 -87 13.5t-94 53t-85 133t-33 230.5v817q0 25 -15.5 37t-33.5 14t-33.5 14.5t-15.5 35.5v200q0 20 15.5 35.5t35.5 15.5h297z" />
    <glyph glyph-name="c" unicode="c" horiz-adv-x="966" 
d="M383 1122v-1120h-29q-117 0 -197.5 82t-80.5 199q-4 539 -4 540q0 123 88 211t211 88h12zM831 303q20 0 35 -15.5t15 -35.5v-199q0 -20 -14.5 -35.5t-35.5 -15.5h-247q-20 0 -34.5 15.5t-14.5 35.5v199q0 20 14 35.5t35 15.5h247zM836 1122q20 0 35.5 -15t15.5 -36v-199
q0 -20 -15.5 -35.5t-35.5 -15.5h-252q-20 0 -34.5 15.5t-14.5 35.5v199q0 20 14 35.5t35 15.5h252z" />
    <glyph glyph-name="d" unicode="d" horiz-adv-x="1136" 
d="M547 1128q23 0 37 -15t14 -36v-198q0 -23 -14.5 -37.5t-36.5 -14.5h-133q-20 0 -36 -14t-16 -37v-422q0 -20 15.5 -34.5t36.5 -14.5h133q23 0 37 -15.5t14 -35.5v-201q0 -20 -15.5 -34.5t-35.5 -14.5h-121h-66q-125 0 -212 87t-87 212v545q0 117 82 198.5t199 81.5h205z
M1047 1554v-1060v-5v-47q0 -111 -23 -193.5t-55.5 -127.5t-76.5 -71.5t-77 -34t-65 -7.5v1247q0 35 -45.5 49.5t-45.5 51.5v198q0 23 14.5 37.5t37.5 14.5h284q20 0 36 -14.5t16 -37.5z" />
    <glyph glyph-name="e" unicode="e" horiz-adv-x="1161" 
d="M1053 303q33 0 32 -29q2 -111 -91 -191.5t-206 -80.5h-202q-20 0 -35.5 15.5t-15.5 35.5v201q0 20 15 35.5t36 15.5h151h37l14 2v-4h265zM1087 836v-9v-116q0 -125 -87 -213t-212 -88h-202q-20 0 -35.5 15t-15.5 36v201q0 20 15 34.5t36 14.5h149q20 0 35.5 15t15.5 36
v14q0 20 -15 34.5t-36 14.5h-149q-20 0 -35.5 15.5t-15.5 36.5v200q0 20 15 34.5t36 14.5h106h96q123 0 209 -84.5t90 -205.5zM82 827q0 123 87 211t212 88h2l-2 -1073v-51q-125 0 -212 88t-87 213v524z" />
    <glyph glyph-name="f" unicode="f" horiz-adv-x="874" 
d="M129 1364q0 123 88 211t211 88h317q20 0 35 -14.5t15 -34.5v-201q0 -20 -14.5 -35.5t-35.5 -15.5h-264q-20 0 -35.5 -14.5t-15.5 -34.5v-1260q0 -20 -14.5 -35.5t-34.5 -15.5h-201q-20 0 -35.5 15.5t-15.5 35.5v721q0 35 -41 49.5t-41 50.5v201q0 35 41 49.5t41 51.5v188
zM582 874v201q0 20 15 34.5t36 14.5h108q20 0 36 -14t16 -35v-201q0 -20 -15.5 -35.5t-36.5 -15.5h-108q-20 0 -35.5 15.5t-15.5 35.5z" />
    <glyph glyph-name="g" unicode="g" horiz-adv-x="1120" 
d="M530 -207q23 0 37.5 -15.5t14.5 -35.5v-199q0 -23 -14.5 -37t-37.5 -14h-180q-117 0 -203 79t-96 193h2q-2 6 -2 19v-19v72q0 20 15.5 35.5t35.5 15.5h199q37 0 51.5 -47t50.5 -47h127zM735 -508v1632q125 0 212 -89t87 -218v-1026q0 -125 -88 -212t-211 -87zM530 1124
q23 0 37.5 -15t14.5 -36v-199q0 -23 -14.5 -37t-37.5 -14h-129q-20 0 -35.5 -14t-15.5 -37v-418q0 -23 15.5 -37t35.5 -14h129q23 0 37.5 -14.5t14.5 -36.5v-199q0 -20 -14.5 -35.5t-37.5 -15.5h-200q-115 0 -198 82t-83 197v544q0 123 87 211t212 88h182z" />
    <glyph glyph-name="h" unicode="h" horiz-adv-x="1208" 
d="M1130 854v-8v-795q0 -23 -14 -37t-37 -14h-198q-20 0 -36 14.5t-16 36.5v721q0 23 -15 37t-36 14h-127q-20 0 -35.5 14.5t-15.5 36.5v199q0 20 15.5 35.5t35.5 15.5h199q117 0 197.5 -78.5t82.5 -191.5zM102 1604h295q20 0 36 -15.5t16 -36.5v-1501q0 -23 -15.5 -37
t-36.5 -14h-198q-23 0 -37.5 14.5t-14.5 36.5v1200q0 25 -15 37t-32.5 14.5t-33 14.5t-15.5 37v198q0 20 15.5 36t35.5 16z" />
    <glyph glyph-name="i" unicode="i" horiz-adv-x="446" 
d="M74 47l2 1030q0 18 15 34.5t36 16.5h197q20 0 35.5 -16t15.5 -35v-1030q0 -18 -15.5 -32.5t-35.5 -14.5h-201q-20 0 -34.5 14.5t-14.5 32.5zM74 1307v114q0 20 14 36t35 16h201q20 0 35.5 -15.5t15.5 -36.5v-114q0 -20 -14.5 -35t-36.5 -15h-201q-20 0 -34.5 15t-14.5 35
z" />
    <glyph glyph-name="j" unicode="j" horiz-adv-x="643" 
d="M68 -162v-12l-2 -330q-123 0 -215.5 88t-92.5 211v47q0 23 14.5 37.5t37.5 14.5l206 -3q20 0 36 -16.5t16 -36.5zM465 1124q23 0 37 -15t14 -36v-1278q0 -123 -88 -211t-211 -88v1276q0 37 -46 51.5t-46 50.5v199q0 20 15.5 35.5t35.5 15.5h289zM465 1479
q20 0 35.5 -14.5t15.5 -34.5v-121q0 -23 -14.5 -37.5t-36.5 -14.5h-285q-20 0 -35.5 14.5t-15.5 37.5v121q0 20 15.5 34.5t35.5 14.5h285z" />
    <glyph glyph-name="k" unicode="k" horiz-adv-x="1177" 
d="M442 1554v-655v-102v-152v-100v-488q0 -20 -14 -35.5t-35 -15.5h-200q-20 0 -36 15.5t-16 35.5v1196q0 25 -15 37.5t-33.5 14.5t-34 14t-15.5 37v198q0 23 15.5 37.5t35.5 14.5h299q20 0 34.5 -16t14.5 -36zM772 1133h320q27 0 26 -17q0 -10 -10 -20l-346 -353
q-18 -18 -19 -47q0 -23 9 -32l360 -615q6 -9 6 -18q0 -25 -31 -25h-247q-49 0 -76 43l-143 246q-27 49 -27 94v563q0 51 37 88l55 56q41 41 86 37z" />
    <glyph glyph-name="l" unicode="l" horiz-adv-x="516" 
d="M96 1604h295q23 0 37 -15.5t14 -36.5v-1501q0 -23 -14 -37t-37 -14h-198q-20 0 -36 14.5t-16 36.5v1200q0 25 -15 37t-32.5 14.5t-33 14.5t-15.5 37v198q0 20 14 36t37 16z" />
    <glyph glyph-name="m" unicode="m" horiz-adv-x="1689" 
d="M389 1124q20 0 35.5 -15t15.5 -38v-1022q0 -20 -15 -34.5t-36 -14.5h-196q-20 0 -36 14.5t-16 34.5v723q0 25 -15 36t-33.5 14t-34 14.5t-15.5 35.5v199q0 23 15.5 38t35.5 15h295zM1315 1124q113 0 195.5 -80.5t84.5 -191.5v-803q0 -20 -15 -34.5t-36 -14.5h-198
q-20 0 -36 14.5t-16 34.5v723q0 23 -14 37t-37 14h-219v-774q0 -20 -15.5 -34.5t-35.5 -14.5h-199q-20 0 -35.5 14.5t-15.5 34.5q-2 645 -2 774h-76q-20 0 -35.5 14.5t-15.5 34.5v199q0 23 15.5 38t35.5 15h670z" />
    <glyph glyph-name="n" unicode="n" horiz-adv-x="1183" 
d="M817 1122q117 0 199 -80.5t82 -197.5v-795q0 -20 -15.5 -34.5t-35.5 -14.5h-199q-20 0 -35.5 14.5t-15.5 34.5v723q0 20 -15.5 34.5t-36.5 14.5h-108q-20 0 -34.5 15.5t-14.5 35.5v201q0 20 14 34.5t35 14.5h180zM39 872v201q0 20 15.5 34.5t35.5 14.5h297q20 0 35.5 -14
t15.5 -35v-1024q0 -20 -15 -34.5t-36 -14.5h-199q-20 0 -35.5 14.5t-15.5 34.5l2 723q0 35 -50 49t-50 51z" />
    <glyph glyph-name="o" unicode="o" horiz-adv-x="1148" 
d="M1081 829v-8v-520q0 -123 -87 -211t-212 -88h-204q-20 0 -36 14.5t-16 34.5v201q0 20 15.5 35.5t36.5 15.5h151q20 0 35.5 14.5t15.5 34.5v418q0 20 -15 34.5t-36 14.5h-151q-20 0 -36 15.5t-16 35.5v201q0 20 15.5 34.5t36.5 14.5h135h69q123 0 210 -84t89 -207zM76 821
q0 125 87 212t212 87v-1118q-123 0 -211 87t-88 212v520z" />
    <glyph glyph-name="p" unicode="p" horiz-adv-x="1177" 
d="M373 1122q20 0 35.5 -14t15.5 -37v-1372q0 -23 -15.5 -37t-35.5 -14h-199q-23 0 -37 14t-14 37v1071q0 25 -15.5 37t-34 14t-33.5 14.5t-15 36.5v199q0 23 14 37t37 14h297zM809 1122q125 0 212 -87t87 -212v-540q0 -117 -82 -199t-199 -82h-200q-20 0 -36 15.5t-16 35.5
v199q0 23 15.5 37t36.5 14h129q23 0 37 14.5t14 36.5v416q0 20 -14.5 35.5t-36.5 15.5h-129q-20 0 -36 15.5t-16 35.5v199q0 23 15.5 37t36.5 14h182z" />
    <glyph glyph-name="q" unicode="q" horiz-adv-x="1132" 
d="M543 1120q20 0 35.5 -14t15.5 -35v-201q0 -20 -15.5 -35.5t-35.5 -15.5h-131q-20 0 -36 -14t-16 -35v-418q0 -20 15.5 -34.5t36.5 -14.5h131q20 0 35.5 -15.5t15.5 -35.5v-201q0 -20 -15.5 -34.5t-35.5 -14.5h-107h-96q-115 0 -198 83t-83 198v538q0 125 87 212t212 87
h185zM745 -297v1417q125 0 212 -88t87 -215v-1114q0 -20 -15 -35.5t-36 -15.5h-198q-20 0 -35 15.5t-15 35.5z" />
    <glyph glyph-name="r" unicode="r" horiz-adv-x="878" 
d="M532 723v309q0 20 14.5 40t35.5 28q156 53 247 53v-250q0 -20 -15 -37.5t-36 -21.5q-142 -27 -246 -121zM84 51v1028q0 20 14.5 35.5t34.5 15.5h199q20 0 34.5 -15t14.5 -36v-1028q0 -20 -14.5 -34.5t-34.5 -14.5h-199q-20 0 -34.5 14.5t-14.5 34.5z" />
    <glyph glyph-name="s" unicode="s" horiz-adv-x="1142" 
d="M317 297q20 0 36 -14.5t16 -34.5v-248q-123 0 -210 87t-87 210h182h63zM373 297l-2 2zM573 819q-20 0 -35.5 14.5t-15.5 34.5v201q0 20 15.5 35.5t35.5 15.5h113h92q123 0 211 -88t88 -213h-51h-453zM72 819q0 125 87 213t210 88v-51v-666q-123 0 -210 88.5t-87 213.5
v114zM254 299q6 0 6 -2l-63 2h57zM778 705q125 0 212 -87.5t87 -211.5v-109q0 -121 -88 -209t-211 -88h-205q-20 0 -35.5 14.5t-15.5 34.5v201q0 20 15.5 34.5t35.5 14.5h152q20 0 35.5 15.5t15.5 35.5v4q0 20 -15.5 34.5t-35.5 14.5h-152q-20 0 -35.5 15.5t-15.5 36.5v200
q0 20 15.5 35t35.5 15h99h106z" />
    <glyph glyph-name="t" unicode="t" horiz-adv-x="944" 
d="M799 305q20 0 35.5 -15.5t15.5 -35.5v-201q0 -20 -15.5 -34.5t-35.5 -14.5h-33q-20 0 -35.5 14.5t-15.5 34.5v201q0 20 15 35.5t36 15.5h33zM264 1176v360q0 20 15.5 35.5t35.5 15.5h201q20 0 34.5 -15.5t14.5 -35.5l-2 -1532q-121 0 -210 88t-89 211v469q0 20 -14 35.5
t-35 15.5h-125q-20 0 -34.5 15.5t-14.5 35.5v199q0 20 14.5 35.5t34.5 15.5h125q20 0 34.5 16t14.5 36zM813 1124q20 0 35.5 -15t15.5 -36v-199q0 -20 -15 -35.5t-36 -15.5h-47q-20 0 -35.5 15.5t-15.5 35.5v199q0 20 15 35.5t36 15.5h47z" />
    <glyph glyph-name="u" unicode="u" horiz-adv-x="1167" 
d="M383 1079l-2 -1079q-123 0 -211 88t-88 213v778q0 23 14.5 37t36.5 14h199q20 0 35.5 -14t15.5 -37zM1087 1079l3 -780q0 -123 -88.5 -211t-210.5 -88h-209q-20 0 -35 15.5t-15 35.5v199q0 20 14.5 35.5t35.5 15.5h153q23 0 37 15.5t14 35.5v727q0 23 14.5 37t37.5 14
h198q20 0 35.5 -14t15.5 -37z" />
    <glyph glyph-name="v" unicode="v" horiz-adv-x="1173" 
d="M1040 510l-178 -307q-10 -18 -24 -19q-15 0 -25 19l-123 215q-10 20 -10 45q0 23 10 43l70 121q27 45 26 96v350q0 20 14.5 35.5t37.5 15.5h198q20 0 35.5 -15t15.5 -36v-432q0 -20 -1 -33.5t-6 -26t-7 -18.5t-14.5 -23.5t-18.5 -29.5zM399 627l330 -584q6 -12 6 -20
q0 -23 -30 -23h-236q-53 0 -78 43l-291 502q-25 43 -24 96v432q0 20 15 35.5t36 15.5h197q20 0 35.5 -15t15.5 -36v-350q-1 -53 24 -96z" />
    <glyph glyph-name="w" unicode="w" 
d="M932 891v182q0 20 15.5 35.5t35.5 15.5h201q20 0 35.5 -15t15.5 -36v-407q0 -55 -14 -117l-47 -219q-2 -20 -15 -21q-8 0 -16 19l-191 465q-20 49 -20 98zM371 1073v-364q0 -53 18 -101l213 -561q4 -12 4 -14q0 -33 -37 -33h-221q-49 0 -67 47l-185 483q-4 16 -10 30.5
t-8 21t-4 16.5t-3 21.5t-1 31.5v422q0 20 15 35.5t36 15.5h201q20 0 34.5 -15.5t14.5 -35.5zM672 1071l28 -61q4 -6 39 -92l351 -852q18 -47 18 -58q-4 -8 -53 -8h-187q-18 0 -40.5 13.5t-30.5 31.5l-129 295l-21.5 49t-19.5 45l-119 266q-8 29 -8 48q0 20 8 45l125 278
q10 18 20 19q13 -1 19 -19z" />
    <glyph glyph-name="x" unicode="x" horiz-adv-x="1136" 
d="M115 371l73 63q14 14 39 15q23 0 37 -15l156 -133q16 -12 16 -33q0 -16 -16 -32l-4 -5q-39 -31 -39 -81v-99q0 -20 -14.5 -35.5t-34.5 -15.5h-201q-20 0 -35.5 15.5t-15.5 35.5v236q0 49 39 84zM1026 752l-70 -58q-18 -14 -36.5 -14t-40.5 14l-154 131q-14 14 -14 33
q0 10 25.5 49t25.5 68v100q0 20 15.5 35.5t35.5 15.5h201q20 0 34.5 -15t14.5 -36v-239q0 -51 -37 -84zM420 891l610 -520q39 -35 39 -84v-236q0 -20 -15.5 -35.5t-35.5 -15.5h-201q-20 0 -34.5 15.5t-14.5 35.5v99q0 51 -39 81l-610 521q-37 33 -37 84v239q0 20 14.5 35.5
t34.5 15.5h201q20 0 35.5 -15t15.5 -36v-100q0 -51 37 -84z" />
    <glyph glyph-name="y" unicode="y" horiz-adv-x="1124" 
d="M553 -203q20 0 35.5 -15t15.5 -36v-199q0 -23 -15.5 -37t-35.5 -14h-176q-125 0 -213 88t-88 211v47q0 23 15 37.5t36 14.5h199q25 0 37 -15.5t14 -33t14 -33t37 -15.5h125zM756 -504l2 1581q0 20 14 35.5t37 15.5h199q20 0 35.5 -15t15.5 -36v-1282q0 -125 -88 -212
t-211 -87h-4zM76 293v784q0 20 15 35.5t36 15.5h199q23 0 37 -15t14 -36v-774h176q20 0 35.5 -14.5t15.5 -36.5v-199q0 -20 -15.5 -35.5t-35.5 -15.5h-176q-121 0 -210 85t-91 206z" />
    <glyph glyph-name="z" unicode="z" horiz-adv-x="1001" 
d="M596 1085l-229 -229q-33 -37 -86 -37h-140q-23 0 -37 14.5t-14 36.5v201q0 20 15.5 34.5t35.5 14.5h441q27 0 26 -14q0 -9 -12 -21zM877 1120h16t14 1t10.5 -1t8.5 -4t4 -8t3 -14.5t1 -22.5v-235q0 -49 -37 -86l-713 -711q-37 -37 -63 -37q-29 0 -29 51v262q0 53 35 88
l684 682q35 35 66 35zM90 369h2l-2 -2v2zM397 39l230 229q35 35 88 35h164q20 0 35.5 -14.5t15.5 -34.5v-201q0 -20 -14.5 -35.5t-36.5 -15.5h-465q-27 0 -27 16q0 7 10 21z" />
    <glyph glyph-name="braceleft" unicode="{" horiz-adv-x="903" 
d="M539 922q-43 -49 -43 -70t16 -43l16 -21l33 -40v-27q0 -6 -1 -34t-1 -42v-536q0 -20 15.5 -35t35.5 -15h80q20 0 35.5 -15t15.5 -36v-201q0 -20 -15 -34.5t-36 -14.5h-133q-123 0 -211 86t-88 211v537q0 49 -33 90l-102 123q-14 23 -14 41q0 20 14 39l106 133
q31 39 31 88l2 530q0 123 88 210t211 87h137q20 0 36 -14t16 -35v-201q0 -20 -15.5 -34.5t-36.5 -14.5h-86q-20 0 -35.5 -15t-15.5 -36v-633z" />
    <glyph glyph-name="bar" unicode="|" horiz-adv-x="374" 
d="M106 -145v1880q0 23 14.5 37t37.5 14h69q23 0 37.5 -14.5t14.5 -36.5v-1880q0 -23 -14.5 -37.5t-37.5 -14.5h-69q-23 0 -37.5 14.5t-14.5 37.5z" />
    <glyph glyph-name="braceright" unicode="}" horiz-adv-x="915" 
d="M322 922l-23 28v633q0 20 -15.5 35.5t-35.5 15.5h-86q-20 0 -35.5 14.5t-15.5 34.5v201q0 20 15 34.5t36 14.5h137q123 0 211 -87t88 -210q2 -365 2 -530q0 -49 31 -88l106 -133q14 -18 15 -39q0 -18 -15 -41l-102 -123q-33 -41 -33 -90v-537q0 -125 -88 -211t-211 -86
h-133q-20 0 -35.5 14.5t-15.5 34.5v201q0 20 15.5 35.5t35.5 15.5h80q20 0 35.5 14.5t15.5 35.5v536q0 14 -1 42t-1 34v27l33 40l16 21q16 23 16.5 43.5t-42.5 69.5z" />
    <glyph glyph-name="uni00A0" unicode="&#xa0;" horiz-adv-x="200" 
 />
    <glyph glyph-name="exclamdown" unicode="&#xa1;" horiz-adv-x="696" 
d="M244 -2h198q20 0 36 15.5t16 35.5v883q0 16 -7 102l-12 103q-4 23 -20.5 37t-36.5 14h-148q-49 0 -57 -51l-14 -103q-6 -43 -6 -102v-883q0 -20 14 -35.5t37 -15.5zM494 1624v-168q0 -23 -15.5 -37t-36.5 -14h-198q-23 0 -37 14.5t-14 36.5v168q0 23 14 37t37 14h198
q20 0 36 -14t16 -37z" />
    <glyph glyph-name="sterling" unicode="&#xa3;" horiz-adv-x="1210" 
d="M999 301q20 0 36 -15.5t16 -35.5v-199q0 -23 -15.5 -37t-36.5 -14h-221h-635q-20 0 -35.5 14.5t-15.5 36.5v199q0 37 37 51t37 51v142q0 23 15.5 37t35.5 14h201q20 0 34.5 -15.5t14.5 -35.5v-142q0 -20 14.5 -35.5t36.5 -15.5h481zM143 696q-20 0 -35.5 14.5t-15.5 37.5
v192q0 23 15.5 37t35.5 14h144h438q20 0 35.5 -14t15.5 -37v-192q0 -23 -15.5 -37.5t-35.5 -14.5h-164h-418zM786 1677q125 0 212 -87t87 -212v-65q0 -23 -14 -37t-37 -14h-198q-20 0 -36 14t-16 37v12q0 23 -15 37t-36 14h-215q-23 0 -37 -14t-14 -37v-45q0 -6 2 -27.5
t1 -37t-5 -34t-15.5 -28.5t-31.5 -10h-201q-20 0 -35.5 14t-15.5 37v43v141q0 125 87 212t212 87h321z" />
    <glyph glyph-name="yen" unicode="&#xa5;" horiz-adv-x="1218" 
d="M819 707h49h154q20 0 35.5 -15.5t15.5 -36.5v-69q0 -20 -15.5 -35.5t-35.5 -15.5h-213q-20 0 -35.5 -15.5t-15.5 -36t15 -36t36 -15.5h213q20 0 35.5 -15.5t15.5 -35.5v-70q0 -20 -15.5 -35.5t-35.5 -15.5h-213q-20 0 -35.5 -15.5t-15.5 -35.5v-158q0 -20 -14.5 -35.5
t-34.5 -15.5h-201q-20 0 -35.5 15.5t-15.5 35.5v158q0 20 -14.5 35.5t-34.5 15.5h-218q-20 0 -34.5 15.5t-14.5 35.5v70q0 20 14.5 35.5t34.5 15.5h218q20 0 34.5 15.5t14.5 36t-14.5 36t-34.5 15.5h-218q-20 0 -34.5 15t-14.5 36v69q0 20 14.5 36t34.5 16h156q27 0 27 16
q0 6 -11 20l-229 246q-35 39 -35 88v551q0 20 15.5 35.5t36.5 15.5h202q20 0 34.5 -15t14.5 -36v-434q0 -51 37 -88l346 -363zM866 1679h199q20 0 35.5 -15t15.5 -36v-551q0 -49 -35 -88l-125 -133q-12 -14 -32 -14q-23 0 -37 14l-137 143q-14 14 -14.5 37t14.5 37l30 33
q35 35 35 88v434q0 20 15.5 35.5t35.5 15.5z" />
    <glyph glyph-name="brokenbar" unicode="&#xa6;" horiz-adv-x="374" 
d="M283 1741v-719q0 -20 -15.5 -35.5t-36.5 -15.5h-69q-20 0 -35.5 15t-15.5 36v719q0 20 15 35.5t36 15.5h69q20 0 36 -15.5t16 -35.5zM111 -141v727q0 20 15 35.5t36 15.5h69q20 0 36 -15.5t16 -35.5v-727q0 -20 -15.5 -36t-36.5 -16h-69q-20 0 -35.5 16t-15.5 36z" />
    <glyph glyph-name="copyright" unicode="&#xa9;" horiz-adv-x="841" 
d="M764 584q20 0 20 -11q0 -4 -2 -4l2 -6q0 -59 -44 -103t-105 -44h-150q-20 0 -20 18v111q0 18 20 18h129q14 0 20.5 10.5t20.5 10.5h109zM369 563q20 0 20 -18v-111q0 -18 -20 -18h-64h-92q-61 0 -105.5 44t-44.5 103l3 522v21q0 59 44 104t105 45h154q20 0 20 -20v-113
q0 -18 -20 -18h-133q-20 0 -21 -21l-2 -499q0 -20 20 -21h136zM463 963q-20 0 -21 18v35q0 18 33 18h4q29 0 50.5 -20.5t21.5 -50.5v-23q0 -20 -21 -20h-26q-25 0 -25 43h-16zM293 698l-2 246q6 90 76 90h16q20 0 20 -18v-35q0 -12 -18 -18.5t-18 -20.5l-2 -244h18
q20 0 20 -18v-35q0 -18 -26 -18h-12q-29 0 -50.5 20t-21.5 51zM788 1098l3 -264q0 -113 -31 -171.5t-121 -58.5l-2 133v19v327q0 20 -21 21h-131q-20 0 -20 18v113q0 20 20 20h66h86q68 0 109.5 -45.5t41.5 -111.5zM477 627h-10h-4q-20 0 -21 18v35q0 12 17.5 18.5
t17.5 20.5v6q0 18 21 18h32q20 0 21 -18v-6v-4v-17q0 -31 -21.5 -51t-52.5 -20z" />
    <glyph glyph-name="guillemotleft" unicode="&#xab;" horiz-adv-x="841" 
d="M102 1206l191 137q10 8 20 9q20 0 21 -29v-199q0 -51 -41 -82l-170 -122q-16 -10 -16.5 -31t16.5 -31l170 -123q41 -31 41 -82v-198q0 -29 -21 -29q-10 0 -20 8l-191 137q-41 31 -41 82v471q0 51 41 82zM502 1206l190 137q10 8 21 9q20 0 20 -29v-199q0 -51 -41 -82
l-170 -122q-16 -10 -16 -31t16 -31l170 -123q41 -31 41 -82v-198q0 -29 -20 -29q-10 0 -21 8l-190 137q-41 31 -41 82v471q0 51 41 82z" />
    <glyph glyph-name="registered" unicode="&#xae;" horiz-adv-x="841" 
d="M324 631q-20 0 -21 20v295q0 20 -20 21h-2q-20 0 -21 20v33q0 20 21 20h51q43 0 43 -18v-4v-31v-41v-53v-41v-33v-41v-127q0 -20 -21 -20h-30zM784 1083q6 -55 7 -131q0 -205 -26 -266q-34 -82 -132 -82l-2 131v21v325q0 20 -21 21h-131q-20 0 -20 20v111q0 20 20 20h94
h58q70 0 111.5 -50t41.5 -120zM362 1253q20 0 21 -20v-111q0 -20 -21 -20h-133q-20 0 -20 -21l-2 -497q0 -20 20 -21h135q20 0 21 -20v-109q0 -20 -21 -20h-83h-72q-63 0 -106.5 44t-43.5 105l2 520v21q0 61 43 105t107 44h153zM508 631q-20 0 -29 18l-37 92l-1 4l-1 5
q0 10 15 10h37q18 0 28 -19l37 -92q2 -2 2 -6q0 -12 -14 -12h-37zM758 582q20 0 20 -11l-1 -3q-1 -3 -1 -5h2q0 -61 -43 -105t-106 -44h-150q-20 0 -20 20v109q0 20 20 20h129q16 0 21.5 9.5t19.5 9.5h109zM477 797h-22h-17q-23 0 -24.5 1t-1.5 21v33q0 20 20 20h29
q20 0 20 21v53q0 20 -20 21h-29q-20 0 -20 20v31q0 20 20 20q10 0 27 -2v2q61 0 79.5 -21.5t18.5 -115.5q0 -96 -59 -102z" />
    <glyph glyph-name="uni00B2" unicode="&#xb2;" horiz-adv-x="614" 
d="M547 1337q0 -23 -12 -34l-181 -193q-4 -4 -8 -4q-6 0 -6 8v180q0 23 14 37l29 31q12 16 12 35v123q0 18 -18 18h-17q-20 0 -20 21v112q0 20 20 21h19h2h16q61 0 105.5 -44t44.5 -106v-205zM229 1692h17q20 0 20 -21v-112q0 -20 -20 -21h-15q-18 0 -18 -18v-88
q0 -20 -20 -21h-113q-20 0 -21 19v112q0 59 45.5 104.5t104.5 45.5h20zM502 1004q20 0 20 -21v-113q0 -20 -20 -20h-422q-20 0 -21 20v123q0 18 15 37l178 189q2 6 8 6t6 -11v-190q0 -20 19 -20h217z" />
    <glyph glyph-name="uni00B3" unicode="&#xb3;" horiz-adv-x="614" 
d="M80 1415q-20 0 -21 21v108q0 63 44 106.5t106 43.5h35q20 0 20 -21v-108q0 -20 -20 -21h-13q-20 0 -20 -20v-88q0 -20 -21 -21h-110zM549 1212v-204v-7q0 -61 -44 -105t-106 -44h-37q-20 0 -20 20v111q0 20 20 21h13q20 0 20 20v92q0 2 1 10.5t1 12.5q0 23 -18 32l-23 21
q-20 12 -37 12h-16q-20 0 -20 21v110q0 20 20 21h16q16 0 37 12l23 21q16 10 16 32v103q0 20 -20 20h-13q-20 0 -20 21v108q0 20 20 21h35q61 0 105.5 -43t44.5 -107v-194q0 -20 -17 -33l-28 -25q-6 -2 -6 -12q0 -6 6 -12l28 -25q19 -13 19 -31zM236 852h-7h-20
q-61 0 -105.5 44t-44.5 105v111q0 20 21 21l110 -3q20 0 21 -20v-86q0 -20 20 -20h13q20 0 20 -21v-111q0 -20 -20 -20h-8z" />
    <glyph glyph-name="acute" unicode="&#xb4;" horiz-adv-x="503" 
d="M68 1784l77 246q14 47 66 47h201q37 0 37 -33q0 -10 -3 -14l-77 -246q-6 -20 -26.5 -34.5t-41.5 -14.5h-199q-37 0 -36 34q0 11 2 15z" />
    <glyph glyph-name="uni00B5" unicode="&#xb5;" horiz-adv-x="1255" 
d="M1171 1079l3 -780q0 -123 -88.5 -211t-211.5 -88h-208q-20 0 -35 15.5t-15 35.5v199q0 20 14.5 35.5t35.5 15.5h153q20 0 35.5 15.5t15.5 35.5v727q0 23 15.5 37t36.5 14h198q23 0 37 -14t14 -37zM-31 -55q20 0 35.5 -17.5t15.5 -38.5l-2 -342q-123 0 -215 88.5
t-92 210.5v50q0 20 14.5 34.5t36.5 14.5h207zM446 1120q23 -12 23 -43v-1231q0 -121 -88 -210t-211 -89v1229q0 25 -14.5 37t-32 15t-31.5 15.5t-14 37.5v196q0 23 15.5 38t35.5 15h76h12h199q16 0 30 -10z" />
    <glyph glyph-name="cedilla" unicode="&#xb8;" horiz-adv-x="966" 
d="M369 -72q8 0 8 -20v-37q0 -20 -12.5 -34.5t-30.5 -14.5q-27 0 -27 18q0 6 8 23l35 51q7 14 19 14zM528 -178v176h142q-37 -10 -37 -49v-64l-43 -63h-62z" />
    <glyph glyph-name="uni00B9" unicode="&#xb9;" horiz-adv-x="436" 
d="M313 997h37q20 0 21 -20v-109q0 -20 -21 -20h-270q-20 0 -21 20v109q0 20 21 20h41q20 0 20 21v502q0 20 -20 20h-43q-20 0 -21 21v110q0 20 21 21h194q20 0 21 -21v-653q0 -21 20 -21z" />
    <glyph glyph-name="guillemotright" unicode="&#xbb;" horiz-adv-x="841" 
d="M549 1343l190 -137q41 -31 41 -82v-471q0 -51 -41 -82l-190 -137q-10 -8 -21 -8q-20 0 -20 29v198q0 51 41 82l170 123q16 10 16 30.5t-16 31.5l-170 122q-41 31 -41 82v199q0 29 20 29q11 -1 21 -9zM150 1343l190 -137q41 -31 41 -82v-471q0 -51 -41 -82l-190 -137
q-10 -8 -21 -8q-20 0 -20 29v198q0 51 41 82l169 123q16 10 16.5 30.5t-16.5 31.5l-169 122q-41 31 -41 82v199q0 29 20 29q11 -1 21 -9z" />
    <glyph glyph-name="onequarter" unicode="&#xbc;" horiz-adv-x="1435" 
d="M143 45l731 1597q23 45 72 46h88q33 0 33 -27q0 -12 -4 -19l-733 -1597q-23 -47 -72 -47h-86q-33 0 -33 29q0 6 4 18zM1122 18v461q0 20 21 21h110q20 0 21 -21v-461q0 -20 -21 -20h-110q-21 0 -21 20zM1208 825l-297 -475l-12 -20q10 -2 21 -2h108q20 0 21 -21v-108
q0 -20 -21 -21h-258q-20 0 -20 21v34v41v80q0 18 12 39l268 432q10 16 31 17h139q12 0 12 -8z" />
    <glyph glyph-name="onehalf" unicode="&#xbd;" horiz-adv-x="1435" 
d="M1028 1690q33 0 33 -27q0 -12 -4 -18l-733 -1598q-8 -18 -30 -32.5t-42 -14.5h-86q-33 0 -33 31q0 4 4 16l731 1598q23 45 72 45h88zM1311 487q0 -23 -13 -34l-180 -193q-4 -4 -8 -4q-6 0 -6 8v180q0 23 14 37l29 31q12 16 12 35v123q0 18 -18 18h-17q-20 0 -20 21v112
q0 20 20 21h19h2h16q61 0 105.5 -44t44.5 -106v-205zM993 842h17q20 0 20 -21v-112q0 -20 -20 -21h-15q-18 0 -18 -18v-88q0 -20 -21 -21h-112q-20 0 -21 19v112q0 59 45 104.5t105 45.5h20zM1266 154q20 0 20 -21v-113q0 -20 -20 -20h-422q-20 0 -21 20v123q0 18 15 37
l178 189q4 6 8 6q6 0 6 -10v-191q0 -20 19 -20h217z" />
    <glyph glyph-name="threequarters" unicode="&#xbe;" horiz-adv-x="1435" 
d="M63 1415q-20 0 -20 21v37v71q0 63 44 106.5t106 43.5h34q20 0 21 -21v-108q0 -20 -21 -21h-12q-20 0 -20 -20v-88q0 -20 -21 -21h-111zM532 1212v-204v-7q0 -61 -44 -105t-105 -44h-37q-20 0 -20 20v111q0 20 20 21h12q20 0 21 20v92q0 2 1 11.5t1 15.5t-4 15t-15 13
l-22 21q-20 12 -37 12h-16q-20 0 -21 21v110q0 20 21 21h16q16 0 37 12l22 21q16 10 17 32v103q0 20 -21 20h-12q-20 0 -20 21v108q0 20 20 21h12h23q61 0 105 -43t44 -107v-194q0 -20 -16 -33l-29 -25q-6 -2 -6 -12q0 -6 6 -12l29 -25q18 -13 18 -31zM1278 500q20 0 20 -21
v-461q0 -20 -20 -20h-111q-20 0 -20 20v461q0 20 20 21h111zM1051 328q20 0 20 -21v-108q0 -20 -20 -21h-256q-20 0 -21 21v34v41v80q0 23 10 39l271 432q12 16 30 17h138q12 0 12 -11q0 -4 -2 -6l-299 -477q-10 -14 -10 -18q8 -2 20 -2h107zM1096 1688q35 0 34 -29
q0 -4 -4 -17l-735 -1597q-23 -47 -72 -47h-83q-35 0 -35 31q0 4 4 16l733 1595q23 47 72 48h86zM219 852h-6h-20q-61 0 -105.5 44t-44.5 105v111q0 20 20 21l111 -3q20 0 21 -20v-86q0 -20 20 -20h12q20 0 21 -21v-111q0 -20 -21 -20h-8z" />
    <glyph glyph-name="questiondown" unicode="&#xbf;" horiz-adv-x="1392" 
d="M922 985q0 -125 -88.5 -213t-210.5 -88q1 1 -6 0q-13 -1 -13 2h-108q-20 0 -36 -15.5t-16 -35.5v-283q0 -20 15.5 -35.5t36.5 -15.5h59q23 0 37 -15.5t14 -35.5v-199q0 -23 -14 -37t-37 -14h-51h-62q-123 0 -211 88t-88 211v217v102v70q0 125 87 212t212 87h127
q20 0 36 14.5t16 36.5v99q0 23 15 37t36 14h198q23 0 37.5 -14.5t14.5 -36.5v-88v-64zM672 1409q-20 0 -35.5 14.5t-15.5 36.5v168q0 23 15 37t36 14h198q23 0 37.5 -14t14.5 -37v-168q0 -23 -14.5 -37t-37.5 -14h-198zM1139 420q20 0 35.5 -15.5t15.5 -35.5v-70
q0 -123 -87 -211t-212 -88h-84q-20 0 -35.5 14.5t-15.5 36.5v199q0 20 15 35.5t36 15.5h31q23 0 37 15.5t14 35.5v15q0 23 14.5 37t36.5 14z" />
    <glyph glyph-name="Agrave" unicode="&#xc0;" horiz-adv-x="1339" 
d="M219 719q-35 0 -35 33q0 10 2 16l322 860q8 20 28.5 34.5t41.5 14.5h180q59 0 59 -37q0 -29 -12 -59l-283 -774l-10 -31.5t-9 -26t-11.5 -15.5t-20.5 -12t-33 -3h-219zM1198 625l9 -22.5t7.5 -17.5t4.5 -11.5t3 -11.5l2 -10t1 -13.5v-15.5v-21v-453q0 -20 -15.5 -34.5
t-35.5 -14.5h-195q-20 0 -35.5 14.5t-15.5 34.5v438l-19 50l-147 393q-6 22 -6 49q0 29 6 47l125 338q8 20 18 20t17 -20zM158 571l567 -2q20 0 35.5 -14t15.5 -37v-196q0 -20 -15.5 -35t-35.5 -15h-266q-20 0 -35.5 -15t-15.5 -36v-172q0 -20 -15.5 -34.5t-36.5 -14.5h-198
q-20 0 -36 14.5t-16 34.5v471q0 20 14.5 35.5t37.5 15.5zM500 1806l-64 191q-2 4 -2 14q0 35 39 35h199q20 0 39.5 -14.5t25.5 -34.5l64 -191q2 -4 2 -14q0 -33 -37 -33h-199q-23 0 -42 13.5t-25 33.5z" />
    <glyph glyph-name="Aacute" unicode="&#xc1;" horiz-adv-x="1339" 
d="M219 719q-35 0 -35 33q0 10 2 16l322 860q8 20 28.5 34.5t41.5 14.5h180q59 0 59 -37q0 -29 -12 -59l-283 -774l-10 -31.5t-9 -26t-11.5 -15.5t-20.5 -12t-33 -3h-219zM1198 625l9 -22.5t7.5 -17.5t4.5 -11.5t3 -11.5l2 -10t1 -13.5v-15.5v-21v-453q0 -20 -15.5 -34.5
t-35.5 -14.5h-195q-20 0 -35.5 14.5t-15.5 34.5v438l-19 50l-147 393q-6 22 -6 49q0 29 6 47l125 338q8 20 18 20t17 -20zM158 571l567 -2q20 0 35.5 -14t15.5 -37v-196q0 -20 -15.5 -35t-35.5 -15h-266q-20 0 -35.5 -15t-15.5 -36v-172q0 -20 -15.5 -34.5t-36.5 -14.5h-198
q-20 0 -36 14.5t-16 34.5v471q0 20 14.5 35.5t37.5 15.5zM918 1997l-64 -191q-6 -20 -25.5 -33.5t-42.5 -13.5h-198q-37 0 -37 33q0 10 2 14l63 191q6 20 26 34.5t40 14.5h199q39 0 39 -35q0 -10 -2 -14z" />
    <glyph glyph-name="Acircumflex" unicode="&#xc2;" horiz-adv-x="1339" 
d="M219 719q-35 0 -35 33q0 10 2 16l322 860q8 20 28.5 34.5t41.5 14.5h180q59 0 59 -37q0 -29 -12 -59l-283 -774l-10 -31.5t-9 -26t-11.5 -15.5t-20.5 -12t-33 -3h-219zM1198 625l9 -22.5t7.5 -17.5t4.5 -11.5t3 -11.5l2 -10t1 -13.5v-15.5v-21v-453q0 -20 -15.5 -34.5
t-35.5 -14.5h-195q-20 0 -35.5 14.5t-15.5 34.5v438l-19 50l-147 393q-6 22 -6 49q0 29 6 47l125 338q8 20 18 20t17 -20zM158 571l567 -2q20 0 35.5 -14t15.5 -37v-196q0 -20 -15.5 -35t-35.5 -15h-266q-20 0 -35.5 -15t-15.5 -36v-172q0 -20 -15.5 -34.5t-36.5 -14.5h-198
q-20 0 -36 14.5t-16 34.5v471q0 20 14.5 35.5t37.5 15.5zM1004 1997l137 -191q8 -10 8 -20q0 -20 -29 -21h-198q-51 0 -82 41l-123 170q-10 16 -30.5 16.5t-31.5 -16.5l-123 -170q-31 -41 -81 -41h-199q-29 0 -29 21q0 10 8 20l138 191q31 41 82 41h471q51 0 82 -41z" />
    <glyph glyph-name="Atilde" unicode="&#xc3;" horiz-adv-x="1339" 
d="M219 719q-35 0 -35 33q0 10 2 16l322 860q8 20 28.5 34.5t41.5 14.5h180q59 0 59 -37q0 -29 -12 -59l-283 -774l-10 -31.5t-9 -26t-11.5 -15.5t-20.5 -12t-33 -3h-219zM1198 625l9 -22.5t7.5 -17.5t4.5 -11.5t3 -11.5l2 -10t1 -13.5v-15.5v-21v-453q0 -20 -15.5 -34.5
t-35.5 -14.5h-195q-20 0 -35.5 14.5t-15.5 34.5v438l-19 50l-147 393q-6 22 -6 49q0 29 6 47l125 338q8 20 18 20t17 -20zM158 571l567 -2q20 0 35.5 -14t15.5 -37v-196q0 -20 -15.5 -35t-35.5 -15h-266q-20 0 -35.5 -15t-15.5 -36v-172q0 -20 -15.5 -34.5t-36.5 -14.5h-198
q-20 0 -36 14.5t-16 34.5v471q0 20 14.5 35.5t37.5 15.5zM150 2032h462q23 0 37.5 -14.5t14.5 -37.5v-38q0 -20 14 -36t37 -16h465q20 0 35.5 -15t15.5 -36v-24q0 -20 -15.5 -35t-35.5 -15h-592q-20 0 -35.5 14.5t-15.5 35.5v40q0 20 -14.5 36t-37.5 16h-335q-20 0 -35 15
t-15 36v22q0 20 15 36t35 16z" />
    <glyph glyph-name="Adieresis" unicode="&#xc4;" horiz-adv-x="1339" 
d="M340 1896.5q0 45.5 27.5 81t70.5 47.5v-258q-43 10 -70.5 47t-27.5 82.5zM514 2023q41 -12 67.5 -46.5t26.5 -80t-26.5 -80t-67.5 -47.5v254zM725 1896.5q0 45.5 28.5 81t71.5 47.5v-258q-43 10 -71.5 47t-28.5 82.5zM899 2023q41 -12 67.5 -46.5t26.5 -80t-26.5 -80
t-67.5 -47.5v254zM219 719q-35 0 -35 33q0 10 2 16l322 860q8 20 28.5 34.5t41.5 14.5h180q59 0 59 -37q0 -29 -12 -59l-283 -774l-10 -31.5t-9 -26t-11.5 -15.5t-20.5 -12t-33 -3h-219zM1198 625l9 -22.5t7.5 -17.5t4.5 -11.5t3 -11.5l2 -10t1 -13.5v-15.5v-21v-453
q0 -20 -15.5 -34.5t-35.5 -14.5h-195q-20 0 -35.5 14.5t-15.5 34.5v438l-19 50l-147 393q-6 22 -6 49q0 29 6 47l125 338q8 20 18 20t17 -20zM158 571l567 -2q20 0 35.5 -14t15.5 -37v-196q0 -20 -15.5 -35t-35.5 -15h-266q-20 0 -35.5 -15t-15.5 -36v-172
q0 -20 -15.5 -34.5t-36.5 -14.5h-198q-20 0 -36 14.5t-16 34.5v471q0 20 14.5 35.5t37.5 15.5z" />
    <glyph glyph-name="Aring" unicode="&#xc5;" horiz-adv-x="1339" 
d="M418 2007q0 92 55 164t141 94v-514q-86 23 -141 93.5t-55 162.5zM766 2263q82 -27 134 -97.5t52 -158.5t-52 -157.5t-134 -96.5v510zM219 719q-35 0 -35 33q0 10 2 16l322 860q8 20 28.5 34.5t41.5 14.5h180q59 0 59 -37q0 -29 -12 -59l-283 -774l-10 -31.5t-9 -26
t-11.5 -15.5t-20.5 -12t-33 -3h-219zM1198 625l9 -22.5t7.5 -17.5t4.5 -11.5t3 -11.5l2 -10t1 -13.5v-15.5v-21v-453q0 -20 -15.5 -34.5t-35.5 -14.5h-195q-20 0 -35.5 14.5t-15.5 34.5v438l-19 50l-147 393q-6 22 -6 49q0 29 6 47l125 338q8 20 18 20t17 -20zM158 571
l567 -2q20 0 35.5 -14t15.5 -37v-196q0 -20 -15.5 -35t-35.5 -15h-266q-20 0 -35.5 -15t-15.5 -36v-172q0 -20 -15.5 -34.5t-36.5 -14.5h-198q-20 0 -36 14.5t-16 34.5v471q0 20 14.5 35.5t37.5 15.5z" />
    <glyph glyph-name="AE" unicode="&#xc6;" horiz-adv-x="2013" 
d="M219 719q-35 0 -35 33q0 10 2 16l322 860q8 20 28.5 34.5t41.5 14.5h180q59 0 59 -37q0 -29 -12 -59l-283 -774l-10 -31.5t-9 -26t-11.5 -15.5t-20.5 -12t-33 -3h-219zM1198 625l9 -22.5t7.5 -17.5t4.5 -11.5t3 -11.5l2 -10t1 -13.5v-15.5v-21v-453q0 -20 -15.5 -34.5
t-35.5 -14.5h-195q-20 0 -35.5 14.5t-15.5 34.5v438l-19 50l-147 393q-6 22 -6 49q0 29 6 47l125 338q8 20 18 20t17 -20zM158 571l567 -2q20 0 35.5 -14t15.5 -37v-196q0 -20 -15.5 -35t-35.5 -15h-266q-20 0 -35.5 -15t-15.5 -36v-172q0 -20 -15.5 -34.5t-36.5 -14.5h-198
q-20 0 -36 14.5t-16 34.5v471q0 20 14.5 35.5t37.5 15.5zM1423 303h428q20 0 36 -14.5t16 -36.5v-199q0 -20 -15.5 -35.5t-36.5 -15.5h-428q-23 0 -37 15.5t-14 35.5v199q0 23 14 37t37 14zM1778 705h-410q-20 0 -40.5 14t-27.5 33l-71 204q-2 6 -2 17q0 31 35 31h516
q20 0 35.5 -14.5t15.5 -37.5v-196q0 -23 -15.5 -37t-35.5 -14zM1335 1679h428q23 0 37.5 -14t14.5 -37v-196q0 -23 -14.5 -37.5t-37.5 -14.5h-428q-20 0 -35.5 14.5t-15.5 37.5v196q0 23 15.5 37t35.5 14z" />
    <glyph glyph-name="Ccedilla" unicode="&#xc7;" horiz-adv-x="1153" 
d="M477 -82q8 14 19 14q8 0 8 -22v-35q0 -23 -12.5 -37t-30.5 -14q-27 0 -27 18q0 6 8 23zM1053 483q20 0 35.5 -15t15.5 -36v-67v-64q0 -119 -86 -209t-207 -90q-51 0 -51 -51v-62l-23 -32v0l-20 -33h-62v344q0 6 -1 31.5t0 38t5.5 31t16.5 26.5t31 8h45q20 0 35.5 15.5
t15.5 35.5v78q0 20 14 35.5t35 15.5h201zM807 1679q125 0 212 -88t87 -213v-123q0 -20 -14.5 -35.5t-34.5 -15.5l-201 2q-20 0 -35.5 15.5t-15.5 35.5v70q0 20 -14.5 35.5t-34.5 15.5h-49q-20 0 -36 15.5t-16 36.5v198q0 20 15.5 35.5t36.5 15.5h100zM455 1679
q20 0 34.5 -15t14.5 -36v-198q0 -20 -14.5 -36t-34.5 -16h-54q-20 0 -35.5 -15t-15.5 -36v-412l-2 -561q0 -20 14.5 -35.5t34.5 -15.5h58q20 0 34.5 -15.5t14.5 -35.5v-199q0 -20 -14.5 -35.5t-34.5 -15.5h-31h-78q-125 0 -213 88t-88 211q2 18 2 51l1 205q1 205 2 460
t1 324q0 143 80 240.5t217 97.5h107z" />
    <glyph glyph-name="Egrave" unicode="&#xc8;" horiz-adv-x="1337" 
d="M147 1677h357q20 0 35.5 -15t15.5 -36v-1577q0 -20 -15.5 -34.5t-35.5 -14.5h-363q-20 0 -34.5 14.5t-14.5 34.5v201q0 20 14.5 35.5t34.5 15.5h82q20 0 35.5 14.5t15.5 34.5v975q0 20 -15 35.5t-36 15.5h-76q-20 0 -35.5 14.5t-15.5 34.5v201q0 20 15.5 35.5t35.5 15.5z
M758 301h428q20 0 35.5 -15.5t15.5 -35.5v-201q0 -20 -15.5 -34.5t-35.5 -14.5h-428q-20 0 -35.5 14.5t-15.5 34.5v201q0 20 15.5 35.5t35.5 15.5zM1186 1376h-428q-20 0 -35.5 14.5t-15.5 34.5v201q0 20 15 35.5t36 15.5h428q20 0 35.5 -15t15.5 -36v-201
q0 -20 -15.5 -34.5t-35.5 -14.5zM1112 702h-354q-20 0 -35.5 14.5t-15.5 35.5v200q0 20 15 34.5t36 14.5h354q20 0 35.5 -14t15.5 -35v-200q0 -20 -15.5 -35t-35.5 -15zM500 1806l-64 191q-2 4 -2 14q0 35 39 35h199q20 0 39.5 -14.5t25.5 -34.5l64 -191q2 -4 2 -14
q0 -33 -37 -33h-199q-23 0 -42 13.5t-25 33.5z" />
    <glyph glyph-name="Eacute" unicode="&#xc9;" horiz-adv-x="1337" 
d="M147 1677h357q20 0 35.5 -15t15.5 -36v-1577q0 -20 -15.5 -34.5t-35.5 -14.5h-363q-20 0 -34.5 14.5t-14.5 34.5v201q0 20 14.5 35.5t34.5 15.5h82q20 0 35.5 14.5t15.5 34.5v975q0 20 -15 35.5t-36 15.5h-76q-20 0 -35.5 14.5t-15.5 34.5v201q0 20 15.5 35.5t35.5 15.5z
M758 301h428q20 0 35.5 -15.5t15.5 -35.5v-201q0 -20 -15.5 -34.5t-35.5 -14.5h-428q-20 0 -35.5 14.5t-15.5 34.5v201q0 20 15.5 35.5t35.5 15.5zM1186 1376h-428q-20 0 -35.5 14.5t-15.5 34.5v201q0 20 15 35.5t36 15.5h428q20 0 35.5 -15t15.5 -36v-201
q0 -20 -15.5 -34.5t-35.5 -14.5zM1112 702h-354q-20 0 -35.5 14.5t-15.5 35.5v200q0 20 15 34.5t36 14.5h354q20 0 35.5 -14t15.5 -35v-200q0 -20 -15.5 -35t-35.5 -15zM877 1997l-64 -191q-6 -20 -25.5 -33.5t-42.5 -13.5h-198q-37 0 -37 33q0 10 2 14l63 191q6 20 26 34.5
t40 14.5h199q39 0 39 -35q0 -10 -2 -14z" />
    <glyph glyph-name="Ecircumflex" unicode="&#xca;" horiz-adv-x="1337" 
d="M147 1677h357q20 0 35.5 -15t15.5 -36v-1577q0 -20 -15.5 -34.5t-35.5 -14.5h-363q-20 0 -34.5 14.5t-14.5 34.5v201q0 20 14.5 35.5t34.5 15.5h82q20 0 35.5 14.5t15.5 34.5v975q0 20 -15 35.5t-36 15.5h-76q-20 0 -35.5 14.5t-15.5 34.5v201q0 20 15.5 35.5t35.5 15.5z
M758 301h428q20 0 35.5 -15.5t15.5 -35.5v-201q0 -20 -15.5 -34.5t-35.5 -14.5h-428q-20 0 -35.5 14.5t-15.5 34.5v201q0 20 15.5 35.5t35.5 15.5zM1186 1376h-428q-20 0 -35.5 14.5t-15.5 34.5v201q0 20 15 35.5t36 15.5h428q20 0 35.5 -15t15.5 -36v-201
q0 -20 -15.5 -34.5t-35.5 -14.5zM1112 702h-354q-20 0 -35.5 14.5t-15.5 35.5v200q0 20 15 34.5t36 14.5h354q20 0 35.5 -14t15.5 -35v-200q0 -20 -15.5 -35t-35.5 -15zM944 1997l137 -191q8 -10 9 -20q0 -20 -29 -21h-199q-51 0 -82 41l-123 170q-10 16 -30.5 16.5
t-30.5 -16.5l-123 -170q-31 -41 -82 -41h-198q-29 0 -29 21q0 10 8 20l137 191q31 41 82 41h471q51 0 82 -41z" />
    <glyph glyph-name="Edieresis" unicode="&#xcb;" horiz-adv-x="1337" 
d="M340 1896.5q0 45.5 27.5 81t70.5 47.5v-258q-43 10 -70.5 47t-27.5 82.5zM514 2023q41 -12 67.5 -46.5t26.5 -80t-26.5 -80t-67.5 -47.5v254zM725 1896.5q0 45.5 28.5 81t71.5 47.5v-258q-43 10 -71.5 47t-28.5 82.5zM899 2023q41 -12 67.5 -46.5t26.5 -80t-26.5 -80
t-67.5 -47.5v254zM147 1677h357q20 0 35.5 -15t15.5 -36v-1577q0 -20 -15.5 -34.5t-35.5 -14.5h-363q-20 0 -34.5 14.5t-14.5 34.5v201q0 20 14.5 35.5t34.5 15.5h82q20 0 35.5 14.5t15.5 34.5v975q0 20 -15 35.5t-36 15.5h-76q-20 0 -35.5 14.5t-15.5 34.5v201
q0 20 15.5 35.5t35.5 15.5zM758 301h428q20 0 35.5 -15.5t15.5 -35.5v-201q0 -20 -15.5 -34.5t-35.5 -14.5h-428q-20 0 -35.5 14.5t-15.5 34.5v201q0 20 15.5 35.5t35.5 15.5zM1186 1376h-428q-20 0 -35.5 14.5t-15.5 34.5v201q0 20 15 35.5t36 15.5h428q20 0 35.5 -15
t15.5 -36v-201q0 -20 -15.5 -34.5t-35.5 -14.5zM1112 702h-354q-20 0 -35.5 14.5t-15.5 35.5v200q0 20 15 34.5t36 14.5h354q20 0 35.5 -14t15.5 -35v-200q0 -20 -15.5 -35t-35.5 -15z" />
    <glyph glyph-name="Igrave" unicode="&#xcc;" horiz-adv-x="919" 
d="M743 1378h-84q-20 0 -35.5 -14t-15.5 -35v-979q0 -20 15.5 -34.5t35.5 -14.5h84q20 0 35 -15.5t15 -35.5v-201q0 -20 -14.5 -34.5t-35.5 -14.5h-561q-20 0 -35.5 14.5t-15.5 34.5v201q0 20 15.5 35.5t35.5 15.5h74q20 0 35.5 14.5t15.5 34.5v979q0 20 -15.5 34.5
t-35.5 14.5h-74q-20 0 -35.5 15.5t-15.5 36.5v200q0 20 15.5 34.5t35.5 14.5h561q20 0 35 -14t15 -35v-200q0 -20 -15 -36t-35 -16zM301 1806l-63 191q-2 4 -2 14q0 35 38 35h199q20 0 39.5 -14.5t26.5 -34.5l63 -191q2 -4 2 -14q0 -33 -37 -33h-198q-23 0 -42.5 13.5
t-25.5 33.5z" />
    <glyph glyph-name="Iacute" unicode="&#xcd;" horiz-adv-x="919" 
d="M743 1378h-84q-20 0 -35.5 -14t-15.5 -35v-979q0 -20 15.5 -34.5t35.5 -14.5h84q20 0 35 -15.5t15 -35.5v-201q0 -20 -14.5 -34.5t-35.5 -14.5h-561q-20 0 -35.5 14.5t-15.5 34.5v201q0 20 15.5 35.5t35.5 15.5h74q20 0 35.5 14.5t15.5 34.5v979q0 20 -15.5 34.5
t-35.5 14.5h-74q-20 0 -35.5 15.5t-15.5 36.5v200q0 20 15.5 34.5t35.5 14.5h561q20 0 35 -14t15 -35v-200q0 -20 -15 -36t-35 -16zM700 1997l-63 -191q-6 -20 -25.5 -33.5t-42.5 -13.5h-198q-37 0 -37 33q0 10 2 14l63 191q6 20 25.5 34.5t40.5 14.5h199q39 0 38 -35
q0 -10 -2 -14z" />
    <glyph glyph-name="Icircumflex" unicode="&#xce;" horiz-adv-x="919" 
d="M780 1997l138 -191q8 -10 8 -20q0 -20 -29 -21h-199q-51 0 -82 41l-122 170q-10 16 -31 16.5t-31 -16.5l-123 -170q-31 -41 -82 -41h-198q-29 0 -29 21q0 10 8 20l137 191q31 41 82 41h471q51 0 82 -41zM743 1378h-84q-20 0 -35.5 -14t-15.5 -35v-979q0 -20 15.5 -34.5
t35.5 -14.5h84q20 0 35 -15.5t15 -35.5v-201q0 -20 -14.5 -34.5t-35.5 -14.5h-561q-20 0 -35.5 14.5t-15.5 34.5v201q0 20 15.5 35.5t35.5 15.5h74q20 0 35.5 14.5t15.5 34.5v979q0 20 -15.5 34.5t-35.5 14.5h-74q-20 0 -35.5 15.5t-15.5 36.5v200q0 20 15.5 34.5t35.5 14.5
h561q20 0 35 -14t15 -35v-200q0 -20 -15 -36t-35 -16z" />
    <glyph glyph-name="Idieresis" unicode="&#xcf;" horiz-adv-x="919" 
d="M141 1896.5q0 45.5 28 81t71 47.5v-258q-43 10 -71 47t-28 82.5zM315 2023q41 -12 68 -46.5t27 -80t-27 -80t-68 -47.5v254zM526 1896.5q0 45.5 29 81t72 47.5v-258q-43 10 -72 47t-29 82.5zM700 2023q41 -12 68 -46.5t27 -80t-27 -80t-68 -47.5v254zM743 1378h-84
q-20 0 -35.5 -14t-15.5 -35v-979q0 -20 15.5 -34.5t35.5 -14.5h84q20 0 35 -15.5t15 -35.5v-201q0 -20 -14.5 -34.5t-35.5 -14.5h-561q-20 0 -35.5 14.5t-15.5 34.5v201q0 20 15.5 35.5t35.5 15.5h74q20 0 35.5 14.5t15.5 34.5v979q0 20 -15.5 34.5t-35.5 14.5h-74
q-20 0 -35.5 15.5t-15.5 36.5v200q0 20 15.5 34.5t35.5 14.5h561q20 0 35 -14t15 -35v-200q0 -20 -15 -36t-35 -16z" />
    <glyph glyph-name="Eth" unicode="&#xd0;" horiz-adv-x="1447" 
d="M856 936v-197q0 -20 -15.5 -35.5t-35.5 -15.5h-223q-20 0 -35 -15.5t-15 -35.5v-586q0 -20 -15 -34.5t-36 -14.5h-356q-20 0 -34.5 14.5t-14.5 34.5v199q0 20 14 35.5t35 15.5h55q20 0 34.5 15.5t14.5 35.5v285q0 20 -14 35.5t-35 15.5h-231q-20 0 -35.5 15.5t-15.5 35.5
v197q0 20 15 35.5t36 15.5h231q20 0 34.5 15.5t14.5 35.5v287q0 20 -14 35.5t-35 15.5h-55q-20 0 -34.5 14.5t-16.5 36.5v197q0 23 14 37t37 14h410l-3 -637q0 -20 14.5 -35.5t35.5 -15.5h223q20 0 35.5 -15.5t15.5 -35.5zM1081 537v602q0 119 -57 176t-137 57h-152
q-20 0 -34.5 15.5t-14.5 35.5v199q0 20 14.5 35.5t34.5 15.5h152q203 0 347 -144.5t144 -348.5v-684q0 -205 -144 -349.5t-347 -144.5h-152q-20 0 -34.5 15.5t-14.5 35.5v199q0 20 14.5 35.5t34.5 15.5h152q80 0 137 57.5t57 176.5z" />
    <glyph glyph-name="Ntilde" unicode="&#xd1;" horiz-adv-x="1638" 
d="M1354 0h-197q-20 0 -35.5 14.5t-15.5 34.5v1577q0 20 15.5 35.5t35.5 15.5h197q20 0 35.5 -15t15.5 -36v-1577q0 -20 -15.5 -34.5t-35.5 -14.5zM555 989v-940q0 -20 -15.5 -34.5t-35.5 -14.5h-199q-20 0 -35.5 14.5t-15.5 34.5v1288q0 20 -15.5 34.5t-35.5 14.5h-68
q-20 0 -34.5 15.5t-14.5 36.5v190q0 20 14.5 35.5t34.5 15.5h385q51 0 74 -47l340 -671q23 -41 22 -97v-565q0 -23 -8 -23q-6 0 -14 19l-356 698q-8 18 -15 19q-8 0 -8 -23zM272 2032h463q23 0 37 -14.5t14 -37.5v-38q0 -20 14.5 -36t37.5 -16h465q20 0 35.5 -15t15.5 -36
v-24q0 -20 -15.5 -35t-35.5 -15h-592q-20 0 -36 14.5t-16 35.5v40q0 20 -14 36t-37 16h-336q-20 0 -34.5 15t-14.5 36v22q0 20 14.5 36t34.5 16z" />
    <glyph glyph-name="Ograve" unicode="&#xd2;" horiz-adv-x="1228" 
d="M76 299l4 1083q4 123 90 208t209 85v-1675h-4q-125 0 -212 87t-87 212zM838 1675q145 0 222 -99t77 -251q-4 -825 -4 -997q0 -139 -82 -233.5t-217 -94.5h-254q-20 0 -36 14.5t-16 34.5v201q0 20 15.5 35.5t36.5 15.5h200q20 0 35.5 14.5t15.5 34.5l5 973
q0 20 -15.5 35.5t-36.5 15.5h-204q-20 0 -36 14.5t-16 34.5v201q0 20 15.5 35.5t36.5 15.5h88h170zM498 1806l-64 191q-2 4 -2 14q0 35 39 35h199q20 0 39.5 -14.5t25.5 -34.5l64 -191q2 -4 2 -14q0 -33 -37 -33h-199q-23 0 -42 13.5t-25 33.5z" />
    <glyph glyph-name="Oacute" unicode="&#xd3;" horiz-adv-x="1228" 
d="M76 299l4 1083q4 123 90 208t209 85v-1675h-4q-125 0 -212 87t-87 212zM838 1675q145 0 222 -99t77 -251q-4 -825 -4 -997q0 -139 -82 -233.5t-217 -94.5h-254q-20 0 -36 14.5t-16 34.5v201q0 20 15.5 35.5t36.5 15.5h200q20 0 35.5 14.5t15.5 34.5l5 973
q0 20 -15.5 35.5t-36.5 15.5h-204q-20 0 -36 14.5t-16 34.5v201q0 20 15.5 35.5t36.5 15.5h88h170zM831 1997l-63 -191q-6 -20 -25.5 -33.5t-42.5 -13.5h-198q-37 0 -37 33q0 10 2 14l63 191q6 20 25.5 34.5t40.5 14.5h199q39 0 39 -35q-1 -10 -3 -14z" />
    <glyph glyph-name="Ocircumflex" unicode="&#xd4;" horiz-adv-x="1228" 
d="M76 299l4 1083q4 123 90 208t209 85v-1675h-4q-125 0 -212 87t-87 212zM838 1675q145 0 222 -99t77 -251q-4 -825 -4 -997q0 -139 -82 -233.5t-217 -94.5h-254q-20 0 -36 14.5t-16 34.5v201q0 20 15.5 35.5t36.5 15.5h200q20 0 35.5 14.5t15.5 34.5l5 973
q0 20 -15.5 35.5t-36.5 15.5h-204q-20 0 -36 14.5t-16 34.5v201q0 20 15.5 35.5t36.5 15.5h88h170zM932 1997l137 -191q8 -10 8 -20q0 -20 -28 -21h-199q-51 0 -82 41l-123 170q-10 16 -30.5 16.5t-30.5 -16.5l-123 -170q-31 -41 -82 -41h-199q-29 0 -28 21q0 10 8 20
l137 191q31 41 82 41h471q51 0 82 -41z" />
    <glyph glyph-name="Otilde" unicode="&#xd5;" horiz-adv-x="1228" 
d="M76 299l4 1083q4 123 90 208t209 85v-1675h-4q-125 0 -212 87t-87 212zM838 1675q145 0 222 -99t77 -251q-4 -825 -4 -997q0 -139 -82 -233.5t-217 -94.5h-254q-20 0 -36 14.5t-16 34.5v201q0 20 15.5 35.5t36.5 15.5h200q20 0 35.5 14.5t15.5 34.5l5 973
q0 20 -15.5 35.5t-36.5 15.5h-204q-20 0 -36 14.5t-16 34.5v201q0 20 15.5 35.5t36.5 15.5h88h170zM150 2032h462q23 0 37.5 -14.5t14.5 -37.5v-38q0 -20 14 -36t37 -16h375q20 0 35.5 -15t15.5 -36v-24q0 -20 -15.5 -35t-35.5 -15h-502q-20 0 -35.5 14.5t-15.5 35.5v40
q0 20 -14.5 36t-37.5 16h-335q-20 0 -35 15t-15 36v22q0 20 15 36t35 16z" />
    <glyph glyph-name="Odieresis" unicode="&#xd6;" horiz-adv-x="1228" 
d="M297 1896.5q0 45.5 27.5 81t70.5 47.5v-258q-43 10 -70.5 47t-27.5 82.5zM471 2023q41 -12 67.5 -46.5t26.5 -80t-26.5 -80t-67.5 -47.5v254zM682 1896.5q0 45.5 28.5 81t71.5 47.5v-258q-43 10 -71.5 47t-28.5 82.5zM856 2023q41 -12 67.5 -46.5t26.5 -80t-26.5 -80
t-67.5 -47.5v254zM76 299l4 1083q4 123 90 208t209 85v-1675h-4q-125 0 -212 87t-87 212zM838 1675q145 0 222 -99t77 -251q-4 -825 -4 -997q0 -139 -82 -233.5t-217 -94.5h-254q-20 0 -36 14.5t-16 34.5v201q0 20 15.5 35.5t36.5 15.5h200q20 0 35.5 14.5t15.5 34.5l5 973
q0 20 -15.5 35.5t-36.5 15.5h-204q-20 0 -36 14.5t-16 34.5v201q0 20 15.5 35.5t36.5 15.5h88h170z" />
    <glyph glyph-name="multiply" unicode="&#xd7;" horiz-adv-x="1044" 
d="M932 985l-160 -162q-14 -14 -14 -37q0 -20 14 -34l158 -158q14 -14 14 -37q0 -20 -14 -35l-142 -143q-14 -14 -36 -14q-20 0 -35 14l-160 160q-14 14 -37 14q-20 0 -35 -14l-153 -154q-14 -14 -37 -14q-20 0 -35 14l-141 141q-14 14 -15 35q0 23 15 37l153 154
q14 14 15 34q0 23 -15 37l-155 156q-14 14 -15 35q0 23 15 37l143 141q14 14 35 14q23 0 37 -14l153 -154q14 -14 35 -14q23 0 37 14l162 160q14 14 35 14q23 0 37 -14l141 -141q14 -14 14 -37q0 -21 -14 -35z" />
    <glyph glyph-name="Oslash" unicode="&#xd8;" horiz-adv-x="1351" 
d="M451 1679l2 -1679v-51h-52h-206l-21 10l21 47l18 41q8 14 8 37q0 10 -4 31q-66 82 -65 188v1077q0 125 87 212t212 87zM1188 1163q6 16 14 17q6 0 6 -23l-4 -858q0 -123 -88 -211t-211 -88h-200q-35 0 -35 31q0 4 4 16l98 209q23 45 72 45h8q20 0 35.5 15.5t15.5 35.5
v144q0 49 21 98zM1262 1733q43 0 43 -19q-4 -4 -35 -72l-652 -1423q-6 -18 -12 -18q-8 0 -8 22v623q0 45 20 98l179 389q4 12 4 17q0 29 -35 28h-115q-20 0 -35.5 15.5t-15.5 36.5v200q0 20 15.5 34.5t35.5 14.5h207q74 0 94 -4l6 13q27 45 76 45h228z" />
    <glyph glyph-name="Ugrave" unicode="&#xd9;" 
d="M522 301q23 0 37 -15.5t14 -35.5v-199q0 -23 -14 -37t-37 -14h-8h-98q-123 0 -211 88t-88 211v1329q0 23 15 37t36 14h201q20 0 34.5 -15t14.5 -36v-1276q0 -20 14 -35.5t37 -15.5h53zM1122 1679q20 0 36 -14t16 -37v-274v-1055q0 -121 -88.5 -210t-211.5 -89h-100
q-20 0 -35.5 14.5t-15.5 36.5v199q0 20 15.5 35.5t35.5 15.5h47q23 0 37 15.5t14 35.5v1276q0 23 14.5 37t37.5 14h198zM498 1806l-64 191q-2 4 -2 14q0 35 39 35h199q20 0 39.5 -14.5t25.5 -34.5l64 -191q2 -4 2 -14q0 -33 -37 -33h-199q-23 0 -42 13.5t-25 33.5z" />
    <glyph glyph-name="Uacute" unicode="&#xda;" 
d="M522 301q23 0 37 -15.5t14 -35.5v-199q0 -23 -14 -37t-37 -14h-8h-98q-123 0 -211 88t-88 211v1329q0 23 15 37t36 14h201q20 0 34.5 -15t14.5 -36v-1276q0 -20 14 -35.5t37 -15.5h53zM1122 1679q20 0 36 -14t16 -37v-274v-1055q0 -121 -88.5 -210t-211.5 -89h-100
q-20 0 -35.5 14.5t-15.5 36.5v199q0 20 15.5 35.5t35.5 15.5h47q23 0 37 15.5t14 35.5v1276q0 23 14.5 37t37.5 14h198zM877 1997l-64 -191q-6 -20 -25.5 -33.5t-42.5 -13.5h-198q-37 0 -37 33q0 10 2 14l63 191q6 20 26 34.5t40 14.5h199q39 0 39 -35q0 -10 -2 -14z" />
    <glyph glyph-name="Ucircumflex" unicode="&#xdb;" 
d="M522 301q23 0 37 -15.5t14 -35.5v-199q0 -23 -14 -37t-37 -14h-8h-98q-123 0 -211 88t-88 211v1329q0 23 15 37t36 14h201q20 0 34.5 -15t14.5 -36v-1276q0 -20 14 -35.5t37 -15.5h53zM1122 1679q20 0 36 -14t16 -37v-274v-1055q0 -121 -88.5 -210t-211.5 -89h-100
q-20 0 -35.5 14.5t-15.5 36.5v199q0 20 15.5 35.5t35.5 15.5h47q23 0 37 15.5t14 35.5v1276q0 23 14.5 37t37.5 14h198zM946 1997l137 -191q8 -10 9 -20q0 -20 -29 -21h-199q-51 0 -82 41l-123 170q-10 16 -30.5 16.5t-30.5 -16.5l-123 -170q-31 -41 -82 -41h-198
q-29 0 -29 21q0 10 8 20l137 191q31 41 82 41h471q51 0 82 -41z" />
    <glyph glyph-name="Udieresis" unicode="&#xdc;" 
d="M340 1896.5q0 45.5 27.5 81t70.5 47.5v-258q-43 10 -70.5 47t-27.5 82.5zM514 2023q41 -12 67.5 -46.5t26.5 -80t-26.5 -80t-67.5 -47.5v254zM725 1896.5q0 45.5 28.5 81t71.5 47.5v-258q-43 10 -71.5 47t-28.5 82.5zM899 2023q41 -12 67.5 -46.5t26.5 -80t-26.5 -80
t-67.5 -47.5v254zM522 301q23 0 37 -15.5t14 -35.5v-199q0 -23 -14 -37t-37 -14h-8h-98q-123 0 -211 88t-88 211v1329q0 23 15 37t36 14h201q20 0 34.5 -15t14.5 -36v-1276q0 -20 14 -35.5t37 -15.5h53zM1122 1679q20 0 36 -14t16 -37v-274v-1055q0 -121 -88.5 -210
t-211.5 -89h-100q-20 0 -35.5 14.5t-15.5 36.5v199q0 20 15.5 35.5t35.5 15.5h47q23 0 37 15.5t14 35.5v1276q0 23 14.5 37t37.5 14h198z" />
    <glyph glyph-name="Yacute" unicode="&#xdd;" horiz-adv-x="1218" 
d="M434 1108l348 -363q16 -16 17 -36q0 -12 -21.5 -50t-21.5 -67v-541q0 -20 -14.5 -35.5t-34.5 -15.5h-201q-23 0 -37 14.5t-14 36.5v541q0 53 -35 88l-289 309q-35 39 -35 88v551q0 23 15.5 37t35.5 14h201q20 0 35.5 -14t15.5 -37v-432q0 -49 35 -88zM864 1679h197
q20 0 35.5 -14t15.5 -37v-551q0 -49 -35 -88l-123 -133q-12 -14 -34 -14q-20 0 -35 14l-140 145q-14 18 -14 37t14 37l33 33q35 35 35 88v432q0 23 15.5 37t35.5 14zM467 1808l61 189q6 20 26.5 34.5t41.5 14.5h199q39 0 39 -33q0 -4 -5 -16l-61 -189q-6 -20 -26.5 -34.5
t-41.5 -14.5h-198q-37 0 -37 35q0 10 2 14z" />
    <glyph glyph-name="Thorn" unicode="&#xde;" horiz-adv-x="1075" 
d="M680 195h-105q-23 0 -37 15t-14 36v198q0 23 14.5 37.5t36.5 14.5h52q20 0 35.5 14t15.5 37q-2 391 -2 440h-107q-20 0 -35.5 15.5t-15.5 35.5v199q0 20 15.5 35.5t35.5 15.5h109q125 0 212 -87t87 -212q2 -463 2 -493q0 -125 -87 -213t-212 -88zM406 1624v-1575
q0 -20 -14.5 -35.5t-37.5 -15.5h-196q-23 0 -37.5 15.5t-14.5 35.5v1575q0 20 15.5 34.5t36.5 14.5h196q20 0 36 -14.5t16 -34.5z" />
    <glyph glyph-name="germandbls" unicode="&#xdf;" horiz-adv-x="1204" 
d="M141 1380q0 123 88 211t211 88l2 -1628q0 -20 -14 -35.5t-35 -15.5h-200q-20 0 -36 15.5t-16 35.5v721q0 35 -41 49.5t-41 50.5v201q0 35 41 49.5t41 51.5v206zM807 727q123 0 209 -86t90 -207v-155q0 -104 -68.5 -183.5t-169.5 -95.5h-258q-20 0 -34.5 15.5t-14.5 35.5
v201q0 20 14.5 35.5t34.5 15.5h144q20 0 35.5 14.5t15.5 36.5v21q0 23 -15.5 37t-35.5 14h-144q-20 0 -34.5 15.5t-14.5 35.5v199q0 20 14.5 35.5t34.5 15.5h197zM807 1679q123 0 209 -86t90 -207v-286q0 -104 -68.5 -183t-169.5 -96h-258q-20 0 -34.5 15.5t-14.5 35.5v201
q0 20 14.5 35.5t34.5 15.5h144q20 0 35.5 15.5t15.5 36.5v151q0 20 -15.5 35.5t-35.5 15.5h-144q-20 0 -34.5 15.5t-14.5 36.5v198q0 20 14.5 35.5t34.5 15.5h197z" />
    <glyph glyph-name="agrave" unicode="&#xe0;" horiz-adv-x="1026" 
d="M418 301h26q23 0 37.5 -15.5t14.5 -35.5v-199q0 -23 -14.5 -37t-37.5 -14h-82q-123 0 -208.5 85t-90.5 206v127q0 125 88.5 212t213.5 87h79q23 0 37.5 -14.5t14.5 -36.5v-199q0 -20 -14.5 -35.5t-37.5 -15.5h-26q-20 0 -35.5 -15.5t-15.5 -35.5v-13q0 -20 15.5 -35.5
t35.5 -15.5zM444 1124q23 0 37.5 -15t14.5 -36v-199q0 -23 -14.5 -37t-37.5 -14h-131q-23 0 -37 14.5t-14 36.5v199q0 20 14.5 35.5t36.5 15.5h131zM940 897q8 -33 8 -53v-19v-774q0 -23 -15 -37t-36 -14h-199q-23 0 -37 14.5t-14 36.5v301v740q0 35 31 34q88 0 165 -70.5
t97 -158.5zM451 1358l-64 190q-2 4 -2 15q0 35 39 34h199q20 0 39.5 -14t25.5 -35l64 -190q2 -4 2 -15q0 -33 -37 -32h-199q-23 0 -42 13.5t-25 33.5z" />
    <glyph glyph-name="aacute" unicode="&#xe1;" horiz-adv-x="1026" 
d="M418 301h26q23 0 37.5 -15.5t14.5 -35.5v-199q0 -23 -14.5 -37t-37.5 -14h-82q-123 0 -208.5 85t-90.5 206v127q0 125 88.5 212t213.5 87h79q23 0 37.5 -14.5t14.5 -36.5v-199q0 -20 -14.5 -35.5t-37.5 -15.5h-26q-20 0 -35.5 -15.5t-15.5 -35.5v-13q0 -20 15.5 -35.5
t35.5 -15.5zM444 1124q23 0 37.5 -15t14.5 -36v-199q0 -23 -14.5 -37t-37.5 -14h-131q-23 0 -37 14.5t-14 36.5v199q0 20 14.5 35.5t36.5 15.5h131zM940 897q8 -33 8 -53v-19v-774q0 -23 -15 -37t-36 -14h-199q-23 0 -37 14.5t-14 36.5v301v740q0 35 31 34q88 0 165 -70.5
t97 -158.5zM793 1550l-64 -190q-6 -20 -25.5 -33.5t-41.5 -13.5h-199q-37 0 -37 33q0 10 2 14l64 190q6 20 25.5 34.5t39.5 14.5h199q39 0 39 -34q0 -11 -2 -15z" />
    <glyph glyph-name="acircumflex" unicode="&#xe2;" horiz-adv-x="1026" 
d="M418 301h26q23 0 37.5 -15.5t14.5 -35.5v-199q0 -23 -14.5 -37t-37.5 -14h-82q-123 0 -208.5 85t-90.5 206v127q0 125 88.5 212t213.5 87h79q23 0 37.5 -14.5t14.5 -36.5v-199q0 -20 -14.5 -35.5t-37.5 -15.5h-26q-20 0 -35.5 -15.5t-15.5 -35.5v-13q0 -20 15.5 -35.5
t35.5 -15.5zM444 1124q23 0 37.5 -15t14.5 -36v-199q0 -23 -14.5 -37t-37.5 -14h-131q-23 0 -37 14.5t-14 36.5v199q0 20 14.5 35.5t36.5 15.5h131zM940 897q8 -33 8 -53v-19v-774q0 -23 -15 -37t-36 -14h-199q-23 0 -37 14.5t-14 36.5v301v740q0 35 31 34q88 0 165 -70.5
t97 -158.5zM63 1356l140 190q29 39 80 39h471q51 0 80 -39l139 -190q8 -8 8 -21q0 -23 -29 -22h-200q-47 0 -80 41l-125 172q-10 16 -29 16q-20 0 -31 -16l-125 -172q-10 -16 -34.5 -28.5t-44.5 -12.5h-199q-29 0 -29 22q0 13 8 21z" />
    <glyph glyph-name="atilde" unicode="&#xe3;" horiz-adv-x="1026" 
d="M418 301h26q23 0 37.5 -15.5t14.5 -35.5v-199q0 -23 -14.5 -37t-37.5 -14h-82q-123 0 -208.5 85t-90.5 206v127q0 125 88.5 212t213.5 87h79q23 0 37.5 -14.5t14.5 -36.5v-199q0 -20 -14.5 -35.5t-37.5 -15.5h-26q-20 0 -35.5 -15.5t-15.5 -35.5v-13q0 -20 15.5 -35.5
t35.5 -15.5zM444 1124q23 0 37.5 -15t14.5 -36v-199q0 -23 -14.5 -37t-37.5 -14h-131q-23 0 -37 14.5t-14 36.5v199q0 20 14.5 35.5t36.5 15.5h131zM940 897q8 -33 8 -53v-19v-774q0 -23 -15 -37t-36 -14h-199q-23 0 -37 14.5t-14 36.5v301v740q0 35 31 34q88 0 165 -70.5
t97 -158.5zM264 1579h262q23 0 37.5 -15.5t14.5 -35.5v-39q0 -23 14 -37t37 -14h270q23 0 37 -14.5t14 -37.5v-24q0 -20 -15 -34.5t-36 -14.5h-397q-20 0 -35.5 14t-15.5 35v41q0 23 -14.5 37t-37.5 14h-135q-20 0 -34.5 15.5t-14.5 35.5v23q0 20 14.5 35.5t34.5 15.5z" />
    <glyph glyph-name="adieresis" unicode="&#xe4;" horiz-adv-x="1026" 
d="M221 1440q0 45 27.5 80.5t70.5 48.5v-258q-43 10 -70.5 47t-27.5 82zM395 1567q41 -12 67.5 -47t26.5 -80t-26.5 -80t-67.5 -47v254zM606 1440q0 45 29 80.5t72 48.5v-258q-43 10 -72 47t-29 82zM780 1567q41 -12 67.5 -47t26.5 -80t-26.5 -80t-67.5 -47v254zM418 301h26
q23 0 37.5 -15.5t14.5 -35.5v-199q0 -23 -14.5 -37t-37.5 -14h-82q-123 0 -208.5 85t-90.5 206v127q0 125 88.5 212t213.5 87h79q23 0 37.5 -14.5t14.5 -36.5v-199q0 -20 -14.5 -35.5t-37.5 -15.5h-26q-20 0 -35.5 -15.5t-15.5 -35.5v-13q0 -20 15.5 -35.5t35.5 -15.5z
M444 1124q23 0 37.5 -15t14.5 -36v-199q0 -23 -14.5 -37t-37.5 -14h-131q-23 0 -37 14.5t-14 36.5v199q0 20 14.5 35.5t36.5 15.5h131zM940 897q8 -33 8 -53v-19v-774q0 -23 -15 -37t-36 -14h-199q-23 0 -37 14.5t-14 36.5v301v740q0 35 31 34q88 0 165 -70.5t97 -158.5z
" />
    <glyph glyph-name="aring" unicode="&#xe5;" horiz-adv-x="1026" 
d="M438 1440q0 45 28 80.5t71 48.5v-258q-43 10 -71 47t-28 82zM612 1567q41 -12 68 -47t27 -80t-27 -80t-68 -47v254zM418 301h26q23 0 37.5 -15.5t14.5 -35.5v-199q0 -23 -14.5 -37t-37.5 -14h-82q-123 0 -208.5 85t-90.5 206v127q0 125 88.5 212t213.5 87h79
q23 0 37.5 -14.5t14.5 -36.5v-199q0 -20 -14.5 -35.5t-37.5 -15.5h-26q-20 0 -35.5 -15.5t-15.5 -35.5v-13q0 -20 15.5 -35.5t35.5 -15.5zM444 1124q23 0 37.5 -15t14.5 -36v-199q0 -23 -14.5 -37t-37.5 -14h-131q-23 0 -37 14.5t-14 36.5v199q0 20 14.5 35.5t36.5 15.5h131
zM940 897q8 -33 8 -53v-19v-774q0 -23 -15 -37t-36 -14h-199q-23 0 -37 14.5t-14 36.5v301v740q0 35 31 34q88 0 165 -70.5t97 -158.5z" />
    <glyph glyph-name="ae" unicode="&#xe6;" horiz-adv-x="1734" 
d="M805 1087q68 39 143 39l2 -1073q0 -6 -2 -10v-41q-27 0 -39 2q-4 -2 -10 -2h-199q-20 0 -35.5 15.5t-15.5 35.5v1041q0 35 31 34q66 0 125 -41zM1356 1126q123 0 209 -85t90 -207v-123q0 -125 -87 -213t-212 -88h-203q-23 0 -37 14t-14 37v201q0 20 15.5 34.5t35.5 14.5
h150q20 0 35.5 15t15.5 36v14q0 20 -15.5 34.5t-35.5 14.5h-150q-23 0 -37 15.5t-14 36.5v200q0 18 15.5 33.5t35.5 15.5h203zM1620 303q33 0 33 -29q0 -111 -91.5 -191.5t-205.5 -80.5h-203q-23 0 -37 15.5t-14 35.5v201q0 20 15.5 34.5t35.5 14.5h467zM446 719
q20 0 36 -15.5t16 -35.5v-199q0 -23 -15.5 -37t-36.5 -14h-26q-23 0 -37 -14.5t-14 -36.5v-13q0 -23 14 -37t37 -14h26q20 0 36 -14.5t16 -36.5v-199q0 -20 -15.5 -35.5t-36.5 -15.5h-81q-123 0 -209 85t-90 206v127q0 125 88 212t213 87h79zM446 1126q20 0 36 -14t16 -37
v-198q0 -20 -15.5 -36t-36.5 -16h-131q-20 0 -35.5 15.5t-15.5 36.5v198q0 23 15.5 37t35.5 14h131z" />
    <glyph glyph-name="ccedilla" unicode="&#xe7;" horiz-adv-x="966" 
d="M354 -86q12 16 19 16q10 0 10 -24v-35q0 -20 -13.5 -35.5t-31.5 -15.5q-25 0 -25 20q0 12 9 23zM383 1118v-1071v-2q-2 -20 -16.5 -33.5t-34.5 -13.5l-6 2q-106 10 -178 89t-72 190q-4 539 -4 540q0 123 88 211t211 88h12zM836 1118q20 0 35.5 -15.5t15.5 -35.5v-199
q0 -20 -15.5 -35.5t-35.5 -15.5h-252q-20 0 -34.5 15.5t-14.5 35.5v199q0 20 14 35.5t35 15.5h252zM831 299q20 0 35 -15.5t15 -35.5v-199q0 -20 -14.5 -35.5t-35.5 -15.5h-155q-39 -6 -39 -51v-62l-23 -32v0l-20 -33h-59v225v4v199q0 20 14 35.5t35 15.5h247z" />
    <glyph glyph-name="egrave" unicode="&#xe8;" horiz-adv-x="1161" 
d="M1053 303q33 0 32 -29v-2v-8q-14 -111 -98 -186.5t-199 -75.5h-73h-129q-20 0 -35.5 15.5t-15.5 35.5v201q0 20 15 35.5t36 15.5h151h37l14 2v-2v-2h224h41zM1087 836v-9v-116q0 -125 -87 -213t-212 -88h-124h-78q-20 0 -35.5 15t-15.5 36v201q0 20 15 34.5t36 14.5h78
h71q20 0 35.5 15t15.5 36v14q0 20 -15 34.5t-36 14.5h-43h-106q-20 0 -35.5 15.5t-15.5 36.5v200q0 20 15 34.5t36 14.5h106h45h51q123 0 209 -84.5t90 -205.5zM82 827q0 123 87 211t212 88h2v-559l-2 -514v-51q-123 0 -209 85t-90 208v8v524zM451 1358l-64 190q-2 4 -2 15
q0 35 39 34h199q20 0 39.5 -14t25.5 -35l64 -190q2 -4 2 -15q0 -33 -37 -32h-199q-23 0 -42 13.5t-25 33.5z" />
    <glyph glyph-name="eacute" unicode="&#xe9;" horiz-adv-x="1161" 
d="M1053 303q33 0 32 -29v-2v-8q-14 -111 -98 -186.5t-199 -75.5h-73h-129q-20 0 -35.5 15.5t-15.5 35.5v201q0 20 15 35.5t36 15.5h151h37l14 2v-2v-2h224h41zM1087 836v-9v-116q0 -125 -87 -213t-212 -88h-124h-78q-20 0 -35.5 15t-15.5 36v201q0 20 15 34.5t36 14.5h78
h71q20 0 35.5 15t15.5 36v14q0 20 -15 34.5t-36 14.5h-43h-106q-20 0 -35.5 15.5t-15.5 36.5v200q0 20 15 34.5t36 14.5h106h45h51q123 0 209 -84.5t90 -205.5zM82 827q0 123 87 211t212 88h2v-559l-2 -514v-51q-123 0 -209 85t-90 208v8v524zM799 1550l-64 -190
q-6 -20 -25.5 -33.5t-41.5 -13.5h-199q-37 0 -37 33q0 10 2 14l64 190q6 20 25.5 34.5t39.5 14.5h199q39 0 39 -34q0 -11 -2 -15z" />
    <glyph glyph-name="ecircumflex" unicode="&#xea;" horiz-adv-x="1161" 
d="M1053 303q33 0 32 -29v-2v-8q-14 -111 -98 -186.5t-199 -75.5h-73h-129q-20 0 -35.5 15.5t-15.5 35.5v201q0 20 15 35.5t36 15.5h151h37l14 2v-2v-2h224h41zM1087 836v-9v-116q0 -125 -87 -213t-212 -88h-124h-78q-20 0 -35.5 15t-15.5 36v201q0 20 15 34.5t36 14.5h78
h71q20 0 35.5 15t15.5 36v14q0 20 -15 34.5t-36 14.5h-43h-106q-20 0 -35.5 15.5t-15.5 36.5v200q0 20 15 34.5t36 14.5h106h45h51q123 0 209 -84.5t90 -205.5zM82 827q0 123 87 211t212 88h2v-559l-2 -514v-51q-123 0 -209 85t-90 208v8v524zM133 1356l139 190q29 39 80 39
h471q51 0 80 -39l139 -190q8 -8 9 -21q0 -23 -29 -22h-201q-47 0 -80 41l-125 172q-10 16 -28 16q-20 0 -31 -16l-125 -172q-10 -16 -34.5 -28.5t-45.5 -12.5h-198q-29 0 -29 22q0 13 8 21z" />
    <glyph glyph-name="edieresis" unicode="&#xeb;" horiz-adv-x="1161" 
d="M264 1440q0 45 27.5 80.5t70.5 48.5v-258q-43 10 -70.5 47t-27.5 82zM438 1567q41 -12 67.5 -47t26.5 -80t-26.5 -80t-67.5 -47v254zM649 1440q0 45 29 80.5t72 48.5v-258q-43 10 -72 47t-29 82zM823 1567q41 -12 68 -47t27 -80t-27 -80t-68 -47v254zM1053 303
q33 0 32 -29v-2v-8q-14 -111 -98 -186.5t-199 -75.5h-73h-129q-20 0 -35.5 15.5t-15.5 35.5v201q0 20 15 35.5t36 15.5h151h37l14 2v-2v-2h224h41zM1087 836v-9v-116q0 -125 -87 -213t-212 -88h-124h-78q-20 0 -35.5 15t-15.5 36v201q0 20 15 34.5t36 14.5h78h71
q20 0 35.5 15t15.5 36v14q0 20 -15 34.5t-36 14.5h-43h-106q-20 0 -35.5 15.5t-15.5 36.5v200q0 20 15 34.5t36 14.5h106h45h51q123 0 209 -84.5t90 -205.5zM82 827q0 123 87 211t212 88h2v-559l-2 -514v-51q-123 0 -209 85t-90 208v8v524z" />
    <glyph glyph-name="igrave" unicode="&#xec;" horiz-adv-x="446" 
d="M76 49l2 1028q0 20 15.5 35.5t35.5 15.5h197q20 0 35.5 -15t15.5 -36v-1028q0 -20 -15.5 -34.5t-35.5 -14.5h-201q-20 0 -34.5 14.5t-14.5 34.5zM72 1358l-64 190q-2 4 -2 15q0 35 39 34h199q20 0 39.5 -14t25.5 -35l64 -190q2 -4 2 -15q0 -33 -37 -32h-199
q-23 0 -42 13.5t-25 33.5z" />
    <glyph glyph-name="iacute" unicode="&#xed;" horiz-adv-x="446" 
d="M76 49l2 1028q0 20 15.5 35.5t35.5 15.5h197q20 0 35.5 -15t15.5 -36v-1028q0 -20 -15.5 -34.5t-35.5 -14.5h-201q-20 0 -34.5 14.5t-14.5 34.5zM461 1550l-64 -190q-6 -20 -25.5 -33.5t-41.5 -13.5h-199q-37 0 -37 33q0 10 2 14l64 190q6 20 25.5 34.5t39.5 14.5h199
q39 0 39 -34q0 -11 -2 -15z" />
    <glyph glyph-name="icircumflex" unicode="&#xee;" horiz-adv-x="446" 
d="M510 1585l199 -272h-301l-185 252l-184 -252h-301l199 272h573zM76 49l2 1028q0 20 15.5 35.5t35.5 15.5h197q20 0 35.5 -15t15.5 -36v-1028q0 -20 -15.5 -34.5t-35.5 -14.5h-201q-20 0 -34.5 14.5t-14.5 34.5z" />
    <glyph glyph-name="idieresis" unicode="&#xef;" horiz-adv-x="446" 
d="M-70 1440q0 45 28 80.5t71 48.5v-258q-43 10 -71 47t-28 82zM104 1567q41 -12 68 -47t27 -80t-27 -80t-68 -47v254zM315 1440q0 45 29 80.5t72 48.5v-258q-43 10 -72 47t-29 82zM489 1567q41 -12 68 -47t27 -80t-27 -80t-68 -47v254zM76 49l2 1028q0 20 15.5 35.5
t35.5 15.5h197q20 0 35.5 -15t15.5 -36v-1028q0 -20 -15.5 -34.5t-35.5 -14.5h-201q-20 0 -34.5 14.5t-14.5 34.5z" />
    <glyph glyph-name="eth" unicode="&#xf0;" horiz-adv-x="1267" 
d="M514 999q23 0 37 -14t14 -37v-194q0 -20 -14 -36t-37 -16h-18q-20 0 -36 -15t-16 -36v-297q0 -23 15.5 -37t36.5 -14h18q23 0 37 -14.5t14 -36.5v-199q0 -20 -14 -35.5t-37 -15.5h-37q-158 0 -246 87t-88 245v371q0 119 85 206.5t204 87.5h82zM766 1407q-8 -6 -21.5 -12
t-20.5 -10.5t-7 -6.5q-2 20 -2 49v244q0 51 45 78l194 115q2 0 7 2q8 4 12 4q25 0 24 -33l2 -143q0 -20 6.5 -34.5t13.5 -23t24.5 -25l27.5 -26.5zM514 1683q20 0 35.5 -15t15.5 -38v-289q0 -20 -13 -42.5t-30 -30.5l-157 -92q-6 -6 -19 -7q-27 0 -27 31v129q0 23 -15 38
t-36 15h-8q-23 0 -37 15.5t-14 36.5v196q0 23 15.5 38t35.5 15h254zM1116 1440q33 0 33 -56v-1050q0 -158 -88 -245t-246 -87h-37q-20 0 -35.5 15.5t-15.5 35.5v199q0 23 15.5 37t35.5 14h19q23 0 37 14.5t14 36.5v297q0 20 -15.5 35.5t-35.5 15.5h-31q-20 0 -35.5 15.5
t-15.5 36.5v198q0 23 15 37.5t36 14.5h31q23 0 37 14t14 37v180q0 20 13 44t30 34l207 121q2 0 6 2q8 4 12 4z" />
    <glyph glyph-name="ntilde" unicode="&#xf1;" horiz-adv-x="1183" 
d="M817 1122q117 0 199 -80.5t82 -197.5v-795q0 -20 -15.5 -34.5t-35.5 -14.5h-199q-20 0 -35.5 14.5t-15.5 34.5v723q0 20 -15.5 34.5t-36.5 14.5h-108q-20 0 -34.5 15.5t-14.5 35.5v201q0 20 14 34.5t35 14.5h180zM39 872v201q0 20 15.5 34.5t35.5 14.5h297q20 0 35.5 -14
t15.5 -35v-1024q0 -20 -15 -34.5t-36 -14.5h-199q-20 0 -35.5 14.5t-15.5 34.5l2 723q0 35 -50 49t-50 51zM264 1579h262q23 0 37.5 -15.5t14.5 -35.5v-39q0 -23 14 -37t37 -14h270q23 0 37 -14.5t14 -37.5v-24q0 -20 -15 -34.5t-36 -14.5h-397q-20 0 -35.5 14t-15.5 35v41
q0 23 -14.5 37t-37.5 14h-135q-20 0 -34.5 15.5t-14.5 35.5v23q0 20 14.5 35.5t34.5 15.5z" />
    <glyph glyph-name="ograve" unicode="&#xf2;" horiz-adv-x="1148" 
d="M1081 829v-8v-520q0 -123 -87 -211t-212 -88h-204q-20 0 -36 14.5t-16 34.5v201q0 20 15.5 35.5t36.5 15.5h151q20 0 35.5 14.5t15.5 34.5v418q0 20 -15 34.5t-36 14.5h-151q-20 0 -36 15.5t-16 35.5v201q0 20 15.5 34.5t36.5 14.5h135h69q123 0 210 -84t89 -207zM76 821
q0 125 87 212t212 87v-1118q-123 0 -211 87t-88 212v520zM449 1358l-64 190q-2 4 -2 15q0 35 39 34h199q20 0 39.5 -14t25.5 -35l64 -190q2 -4 2 -15q0 -33 -37 -32h-199q-23 0 -42 13.5t-25 33.5z" />
    <glyph glyph-name="oacute" unicode="&#xf3;" horiz-adv-x="1148" 
d="M1081 829v-8v-520q0 -123 -87 -211t-212 -88h-204q-20 0 -36 14.5t-16 34.5v201q0 20 15.5 35.5t36.5 15.5h151q20 0 35.5 14.5t15.5 34.5v418q0 20 -15 34.5t-36 14.5h-151q-20 0 -36 15.5t-16 35.5v201q0 20 15.5 34.5t36.5 14.5h135h69q123 0 210 -84t89 -207zM76 821
q0 125 87 212t212 87v-1118q-123 0 -211 87t-88 212v520zM770 1550l-63 -190q-6 -20 -25.5 -33.5t-42.5 -13.5h-199q-37 0 -37 33q0 10 3 14l63 190q6 20 25.5 34.5t40.5 14.5h198q39 0 39 -34q0 -11 -2 -15z" />
    <glyph glyph-name="ocircumflex" unicode="&#xf4;" horiz-adv-x="1148" 
d="M1081 829v-8v-520q0 -123 -87 -211t-212 -88h-204q-20 0 -36 14.5t-16 34.5v201q0 20 15.5 35.5t36.5 15.5h151q20 0 35.5 14.5t15.5 34.5v418q0 20 -15 34.5t-36 14.5h-151q-20 0 -36 15.5t-16 35.5v201q0 20 15.5 34.5t36.5 14.5h135h69q123 0 210 -84t89 -207zM76 821
q0 125 87 212t212 87v-1118q-123 0 -211 87t-88 212v520zM133 1356l139 190q29 39 80 39h471q51 0 80 -39l139 -190q8 -8 9 -21q0 -23 -29 -22h-201q-47 0 -80 41l-125 172q-10 16 -28 16q-20 0 -31 -16l-125 -172q-10 -16 -34.5 -28.5t-45.5 -12.5h-198q-29 0 -29 22
q0 13 8 21z" />
    <glyph glyph-name="otilde" unicode="&#xf5;" horiz-adv-x="1148" 
d="M1081 829v-8v-520q0 -123 -87 -211t-212 -88h-204q-20 0 -36 14.5t-16 34.5v201q0 20 15.5 35.5t36.5 15.5h151q20 0 35.5 14.5t15.5 34.5v418q0 20 -15 34.5t-36 14.5h-151q-20 0 -36 15.5t-16 35.5v201q0 20 15.5 34.5t36.5 14.5h135h69q123 0 210 -84t89 -207zM76 821
q0 125 87 212t212 87v-1118q-123 0 -211 87t-88 212v520zM264 1579h262q23 0 37.5 -15.5t14.5 -35.5v-39q0 -23 14 -37t37 -14h270q23 0 37 -14.5t14 -37.5v-24q0 -20 -15 -34.5t-36 -14.5h-397q-20 0 -35.5 14t-15.5 35v41q0 23 -14.5 37t-37.5 14h-135q-20 0 -34.5 15.5
t-14.5 35.5v23q0 20 14.5 35.5t34.5 15.5z" />
    <glyph glyph-name="odieresis" unicode="&#xf6;" horiz-adv-x="1148" 
d="M242 1440q0 45 27.5 80.5t70.5 48.5v-258q-43 10 -70.5 47t-27.5 82zM416 1567q41 -12 67.5 -47t26.5 -80t-26.5 -80t-67.5 -47v254zM627 1440q0 45 28.5 80.5t71.5 48.5v-258q-43 10 -71.5 47t-28.5 82zM801 1567q41 -12 67.5 -47t26.5 -80t-26.5 -80t-67.5 -47v254z
M1081 829v-8v-520q0 -123 -87 -211t-212 -88h-204q-20 0 -36 14.5t-16 34.5v201q0 20 15.5 35.5t36.5 15.5h151q20 0 35.5 14.5t15.5 34.5v418q0 20 -15 34.5t-36 14.5h-151q-20 0 -36 15.5t-16 35.5v201q0 20 15.5 34.5t36.5 14.5h135h69q123 0 210 -84t89 -207zM76 821
q0 125 87 212t212 87v-1118q-123 0 -211 87t-88 212v520z" />
    <glyph glyph-name="ugrave" unicode="&#xf9;" horiz-adv-x="1167" 
d="M383 1079l-2 -1079q-123 0 -211 88t-88 213v778q0 23 14.5 37t36.5 14h199q20 0 35.5 -14t15.5 -37zM1087 1079l3 -780q0 -123 -88.5 -211t-210.5 -88h-209q-20 0 -35 15.5t-15 35.5v199q0 20 14.5 35.5t35.5 15.5h153q23 0 37 15.5t14 35.5v727q0 23 14.5 37t37.5 14
h198q20 0 35.5 -14t15.5 -37zM414 1358l-64 190q-2 4 -2 15q0 35 39 34h199q20 0 39.5 -14t25.5 -35l64 -190q2 -4 2 -15q0 -33 -37 -32h-199q-23 0 -42 13.5t-25 33.5z" />
    <glyph glyph-name="uacute" unicode="&#xfa;" horiz-adv-x="1167" 
d="M383 1079l-2 -1079q-123 0 -211 88t-88 213v778q0 23 14.5 37t36.5 14h199q20 0 35.5 -14t15.5 -37zM1087 1079l3 -780q0 -123 -88.5 -211t-210.5 -88h-209q-20 0 -35 15.5t-15 35.5v199q0 20 14.5 35.5t35.5 15.5h153q23 0 37 15.5t14 35.5v727q0 23 14.5 37t37.5 14
h198q20 0 35.5 -14t15.5 -37zM836 1550l-64 -190q-6 -20 -25.5 -33.5t-41.5 -13.5h-199q-37 0 -37 33q0 10 2 14l64 190q6 20 25.5 34.5t39.5 14.5h199q39 0 39 -34q0 -11 -2 -15z" />
    <glyph glyph-name="ucircumflex" unicode="&#xfb;" horiz-adv-x="1167" 
d="M131 1356l139 190q29 39 80 39h471q51 0 80 -39l139 -190q8 -8 9 -21q0 -23 -29 -22h-201q-47 0 -80 41l-125 172q-10 16 -28 16q-20 0 -31 -16l-125 -172q-10 -16 -34.5 -28.5t-45.5 -12.5h-198q-29 0 -29 22q0 13 8 21zM383 1079l-2 -1079q-123 0 -211 88t-88 213v778
q0 23 14.5 37t36.5 14h199q20 0 35.5 -14t15.5 -37zM1087 1079l3 -780q0 -123 -88.5 -211t-210.5 -88h-209q-20 0 -35 15.5t-15 35.5v199q0 20 14.5 35.5t35.5 15.5h153q23 0 37 15.5t14 35.5v727q0 23 14.5 37t37.5 14h198q20 0 35.5 -14t15.5 -37z" />
    <glyph glyph-name="udieresis" unicode="&#xfc;" horiz-adv-x="1167" 
d="M264 1440q0 45 27.5 80.5t70.5 48.5v-258q-43 10 -70.5 47t-27.5 82zM438 1567q41 -12 67.5 -47t26.5 -80t-26.5 -80t-67.5 -47v254zM649 1440q0 45 29 80.5t72 48.5v-258q-43 10 -72 47t-29 82zM823 1567q41 -12 68 -47t27 -80t-27 -80t-68 -47v254zM383 1079l-2 -1079
q-123 0 -211 88t-88 213v778q0 23 14.5 37t36.5 14h199q20 0 35.5 -14t15.5 -37zM1087 1079l3 -780q0 -123 -88.5 -211t-210.5 -88h-209q-20 0 -35 15.5t-15 35.5v199q0 20 14.5 35.5t35.5 15.5h153q23 0 37 15.5t14 35.5v727q0 23 14.5 37t37.5 14h198q20 0 35.5 -14
t15.5 -37z" />
    <glyph glyph-name="yacute" unicode="&#xfd;" horiz-adv-x="1124" 
d="M545 -229q20 0 35.5 -14.5t15.5 -37.5v-198q0 -20 -15.5 -35.5t-35.5 -15.5h-74h-102q-125 0 -213 88t-88 211v47q0 20 15 35.5t36 15.5h198q25 0 37.5 -15.5t14.5 -33t14 -32.5t37 -15h125zM748 -530l2 1605q0 23 14 37t37 14h198q20 0 36 -14t16 -37v-1306
q0 -125 -88.5 -212t-210.5 -87h-4zM772 1362q-14 -47 -65 -47h-199q-39 0 -39 35q0 8 2 12l51 162q6 20 26.5 34.5t41.5 14.5h198q37 0 37 -35q0 -8 -2 -14zM68 291v784q0 23 15 37t36 14h198q23 0 37.5 -14t14.5 -37v-774h176q20 0 35.5 -15.5t15.5 -35.5v-199
q0 -23 -15.5 -37t-35.5 -14h-176q-121 0 -210 85t-91 206z" />
    <glyph glyph-name="thorn" unicode="&#xfe;" horiz-adv-x="1075" 
d="M356 1399q20 0 35 -15.5t15 -35.5v-1299q0 -20 -14.5 -35.5t-35.5 -15.5h-198q-23 0 -37.5 15.5t-14.5 35.5v1299q0 20 14.5 35.5t37.5 15.5h198zM979 498q0 -127 -87 -215t-212 -88h-105q-23 0 -37 15t-14 36v198q0 23 14.5 37.5t36.5 14.5h54q20 0 34.5 16t14.5 35
q-12 10 -1 73.5t2 138.5t-52 75h-56q-23 0 -37 15t-14 36v198q0 23 14.5 37.5t36.5 14.5h109q125 0 212 -87t87 -212v-338z" />
    <glyph glyph-name="ydieresis" unicode="&#xff;" horiz-adv-x="1124" 
d="M377 1124q-4 -786 -6 -825h227v-301h-227q-123 0 -212 88t-89 211l6 827h301zM750 -532l2 1656h301v-1357q0 -123 -88 -211t-211 -88h-4zM371 -135v-96h227v-301h-227q-125 0 -213 88t-88 211v98h301zM242 1440q0 45 27.5 80.5t70.5 48.5v-258q-43 10 -70.5 47t-27.5 82z
M416 1567q41 -12 67.5 -47t26.5 -80t-26.5 -80t-67.5 -47v254zM627 1440q0 45 28.5 80.5t71.5 48.5v-258q-43 10 -71.5 47t-28.5 82zM801 1567q41 -12 67.5 -47t26.5 -80t-26.5 -80t-67.5 -47v254z" />
  </font>
</defs>
</svg>
